<?xml version="1.0" encoding="utf-8"?>
<!-- Generator: Adobe Illustrator 24.2.3, SVG Export Plug-In . SVG Version: 6.00 Build 0)  -->
<svg version="1.1" id="Layer_1" xmlns="http://www.w3.org/2000/svg" xmlns:xlink="http://www.w3.org/1999/xlink" x="0px" y="0px"
	 viewBox="0 0 122.49 78.174" style="enable-background:new 0 0 122.49 78.174;" xml:space="preserve">
<style type="text/css">
	.st0{fill:#121037;}
</style>
<path class="st0" d="M11.97,62.624c-1.151-1.18-2.742-1.825-4.39-1.78c-4.338,0.155-7.729,3.797-7.575,8.135
	c0.147,4.121,3.454,7.428,7.575,7.575c1.649,0.052,3.243-0.594,4.39-1.78v1.6h3.44v-15.35h-3.44V62.624z M7.71,73.304
	c-2.543-0.119-4.509-2.276-4.39-4.82c0.111-2.377,2.013-4.28,4.39-4.39c2.543,0.119,4.509,2.276,4.39,4.82
	C11.989,71.291,10.087,73.193,7.71,73.304z"/>
<path class="st0" d="M46.88,69.494c0,2.27-1.19,3.87-3.29,3.87s-3.16-1.19-3.16-3.87v-8.47h-3.44v9.21c0,4.08,2,6.32,5.75,6.32
	c1.605,0.037,3.136-0.676,4.14-1.93v1.75h3.44v-15.35h-3.44V69.494z"/>
<path class="st0" d="M32.39,60.964c-1.983-0.455-4.058,0.177-5.45,1.66v-1.6H23.5v15.35h3.44v-8.29c0-3.09,2.35-4.51,5.45-3.88
	L32.39,60.964z"/>
<path class="st0" d="M33.65,73.524c-0.839-0.011-1.529,0.66-1.54,1.5s0.66,1.529,1.5,1.54c0.839,0.011,1.529-0.66,1.54-1.5
	c0-0.01,0-0.02,0-0.03C35.15,74.204,34.48,73.529,33.65,73.524z"/>
<path class="st0" d="M54.35,73.524c-0.839,0.006-1.515,0.691-1.51,1.53c0.006,0.839,0.691,1.515,1.53,1.51
	c0.839-0.006,1.515-0.69,1.51-1.53c0-0.834-0.676-1.51-1.51-1.51C54.363,73.524,54.356,73.524,54.35,73.524z"/>
<path class="st0" d="M19.45,73.524c-0.839-0.011-1.529,0.66-1.54,1.5s0.661,1.529,1.5,1.54c0.839,0.011,1.529-0.66,1.54-1.5
	c0-0.01,0-0.02,0-0.03c0.006-0.828-0.662-1.504-1.49-1.51C19.456,73.524,19.453,73.524,19.45,73.524z"/>
<path class="st0" d="M60.69,61.024h1v15.35h-1V61.024z"/>
<path class="st0" d="M71.41,10.644h13v-0.93c-3.788-0.771-7.499-1.878-11.09-3.31c-0.612-0.223-1.258-0.338-1.91-0.34
	c-0.977-0.001-1.936,0.258-2.78,0.75c-2.397,1.396-5.238,1.822-7.94,1.19v1c1.99,0.424,4.056,0.332,6-0.27
	c-0.535,0.873-0.815,1.877-0.81,2.9c0,1.7,0.61,2.57,1.77,4.57l3.7,6.42c0.205,0.352,0.312,0.753,0.31,1.16
	c0.022,1.298-1.012,2.368-2.309,2.39c-0.024,0-0.047,0-0.071,0c-2.4,0-3.92-4.5-9.5-4.5c-2.567,0.014-5.012,1.102-6.74,3l-15,14.92
	c1,0.18,5.26,0.72,7.33,0.86l-2.8,6c6.312-1.122,12.431-3.143,18.17-6v16.89h1v-17.44c0.84-0.44,1.67-0.89,2.49-1.36
	c2.823-1.573,4.587-4.538,4.62-7.77c0.333,0.022,0.667,0.022,1,0c3.855-0.298,6.738-3.664,6.44-7.518
	c-0.08-1.032-0.387-2.033-0.9-2.932l-4.83-8.15c-0.091-0.147-0.14-0.317-0.14-0.49c-0.022-0.552,0.407-1.017,0.959-1.039
	C71.389,10.644,71.399,10.644,71.41,10.644z M66.66,26.564c0.551,0.919,0.911,1.939,1.06,3c-1.75-0.49-2.61-1.64-3.69-2.44
	c0.689-0.393,1.467-0.599,2.26-0.6L66.66,26.564z M59.77,22.684c2.385-0.012,4.651,1.04,6.18,2.87
	c-0.974,0.058-1.916,0.372-2.73,0.91c-1.692-1.386-3.813-2.139-6-2.13c-0.981,0-1.956,0.152-2.89,0.45
	C55.814,23.424,57.757,22.674,59.77,22.684z M40.12,38.884l10.91-10.71l-5.25,11.27C43.94,39.334,41.94,39.174,40.12,38.884z
	 M44.26,45.064l2.14-4.58c1.12,0.06,2.25,0.08,3.38,0.08c3.291-0.002,6.576-0.249,9.83-0.74C54.726,42.19,49.571,43.95,44.26,45.064
	z M60.69,30.854v7.79c-3.608,0.61-7.261,0.918-10.92,0.92c-0.967,0-1.937-0.02-2.91-0.06l6-12.95c1.33-0.795,2.851-1.214,4.4-1.21
	c1.86,0.004,3.667,0.623,5.14,1.76C61.355,28.078,60.74,29.426,60.69,30.854z M61.69,38.454v-7.28c-0.002-1.294,0.543-2.529,1.5-3.4
	c1.45,1.11,2.35,2.38,4.61,2.88C67.812,34.354,65.285,37.579,61.69,38.454z M74.43,20.834c1.633,2.883,0.62,6.545-2.263,8.178
	c-0.766,0.434-1.619,0.694-2.497,0.762c-0.303,0.02-0.607,0.02-0.91,0c-0.104-0.998-0.375-1.971-0.8-2.88
	c0.416,0.169,0.861,0.258,1.31,0.26c1.856-0.001,3.359-1.507,3.357-3.363c0-0.573-0.148-1.137-0.427-1.637l0,0l0,0l-3.7-6.41
	c-0.297-0.51-0.452-1.09-0.45-1.68c-0.002-1.093,0.528-2.119,1.42-2.75c-0.015,0.12-0.015,0.24,0,0.36
	c0.001,0.351,0.094,0.696,0.27,1L74.43,20.834z M67.12,13.174c-0.851-2.37,0.381-4.982,2.752-5.832
	c0.506-0.182,1.04-0.272,1.578-0.268c0.519,0,1.033,0.091,1.52,0.27c2.57,0.93,4.7,1.69,6.89,2.3h-8.45
	C69.322,9.651,67.529,11.127,67.12,13.174z"/>
<path class="st0" d="M71.41,4.764c0.974,0,1.923,0.3,2.72,0.86l1.54-2.67l-0.87-0.5l-1,1.82c-0.606-0.277-1.256-0.443-1.92-0.49
	v-0.69c0.6-0.209,1.001-0.775,1-1.41c0.096-0.828-0.498-1.578-1.327-1.673s-1.578,0.498-1.673,1.327
	c-0.013,0.115-0.013,0.232,0,0.347c0.002,0.634,0.402,1.199,1,1.41v0.69c-0.637,0.057-1.259,0.222-1.84,0.49l-1-1.82l-0.86,0.5
	l1.54,2.67C69.508,5.069,70.446,4.769,71.41,4.764z M70.88,1.684c-0.006-0.276,0.214-0.504,0.49-0.51c0.003,0,0.007,0,0.01,0
	c0.276-0.056,0.545,0.123,0.601,0.4s-0.123,0.545-0.4,0.6c-0.066,0.013-0.135,0.013-0.201,0C71.107,2.174,70.885,1.956,70.88,1.684z
	"/>
<path class="st0" d="M78.76,62.774c-0.477-0.013-0.932,0.198-1.23,0.57v-0.52h-1v4.51h1v-2.49c0-0.66,0.34-1.13,1-1.13
	s1,0.34,1,1.13v2.49h1v-2.7C80.49,63.434,79.88,62.774,78.76,62.774z"/>
<path class="st0" d="M83.34,68.614c-0.499,0.042-0.952-0.291-1.06-0.78h-1c0.144,1.029,1.052,1.777,2.09,1.72
	c1.103,0.061,2.046-0.784,2.107-1.887c0.002-0.038,0.003-0.075,0.003-0.113c0.011-0.644-0.315-1.247-0.86-1.59
	c0.39-0.327,0.613-0.811,0.61-1.32v-1.82h-1v0.26c-0.284-0.222-0.64-0.332-1-0.31c-0.983-0.017-1.793,0.766-1.81,1.749
	c0,0.027,0,0.054,0,0.081c-0.006,0.507,0.214,0.991,0.6,1.32c-0.174,0.091-0.324,0.221-0.44,0.38l0.72,0.71
	c0.194-0.371,0.582-0.6,1-0.59c0.605-0.058,1.142,0.385,1.2,0.99c0.058,0.605-0.386,1.142-0.99,1.2c-0.07,0.007-0.14,0.007-0.209,0
	H83.34z M83.34,65.484c-0.491,0.011-0.899-0.378-0.91-0.87s0.378-0.899,0.87-0.91c0.491-0.011,0.899,0.378,0.91,0.87
	c0,0.01,0,0.02,0,0.03c0.022,0.463-0.335,0.857-0.798,0.88C83.387,65.484,83.364,65.485,83.34,65.484z"/>
<rect x="86.39" y="61.024" class="st0" width="0.99" height="6.31"/>
<rect x="88.5" y="62.824" class="st0" width="0.99" height="4.5"/>
<path class="st0" d="M88.99,62.174c0.359,0,0.65-0.292,0.649-0.651c0-0.358-0.291-0.649-0.649-0.649
	c-0.359,0-0.65,0.292-0.649,0.651C88.341,61.883,88.631,62.173,88.99,62.174z"/>
<path class="st0" d="M81.31,69.954c-0.359-0.006-0.654,0.281-0.66,0.64c-0.006,0.359,0.281,0.654,0.64,0.66
	c0.359,0.006,0.654-0.281,0.66-0.64c0-0.003,0-0.007,0-0.01c0.006-0.353-0.277-0.644-0.63-0.65
	C81.316,69.954,81.313,69.954,81.31,69.954z"/>
<rect x="80.81" y="71.864" class="st0" width="0.99" height="4.5"/>
<path class="st0" d="M99.88,69.954c-0.359-0.006-0.654,0.281-0.66,0.64c-0.006,0.359,0.281,0.654,0.64,0.66
	c0.359,0.006,0.654-0.281,0.66-0.64c0-0.003,0-0.007,0-0.01c0.006-0.353-0.277-0.644-0.63-0.65
	C99.886,69.954,99.883,69.954,99.88,69.954z"/>
<path class="st0" d="M93.88,63.294c-0.341-0.342-0.807-0.53-1.29-0.52c-1.273,0.084-2.237,1.184-2.153,2.457
	c0.076,1.156,0.997,2.077,2.153,2.153c0.483,0.012,0.95-0.176,1.29-0.52v0.47h1v-4.51h-1V63.294z M92.63,66.434
	c-0.746,0-1.35-0.604-1.35-1.35c0-0.746,0.604-1.35,1.35-1.35s1.35,0.604,1.35,1.35C93.98,65.829,93.375,66.434,92.63,66.434z"/>
<path class="st0" d="M78.08,71.814c-0.477-0.017-0.934,0.195-1.23,0.57v-0.52h-0.97v4.51h1v-2.49c0-0.67,0.34-1.13,1-1.13
	s1,0.34,1,1.13v2.49h1v-2.7C79.81,72.474,79.2,71.814,78.08,71.814z"/>
<polygon class="st0" points="84.69,74.964 83.61,71.864 82.54,71.864 84.2,76.374 85.17,76.374 86.83,71.864 85.77,71.864 "/>
<path class="st0" d="M89.32,71.814c-1.274,0.059-2.26,1.14-2.201,2.414c0.059,1.274,1.14,2.26,2.414,2.201
	c0.876-0.04,1.653-0.573,2.007-1.375h-1.18c-0.239,0.304-0.614,0.469-1,0.44c-0.606,0.006-1.134-0.41-1.27-1h3.49
	c0.01-0.113,0.01-0.227,0-0.34c0.028-1.264-0.975-2.312-2.239-2.34C89.334,71.814,89.327,71.814,89.32,71.814z M88.12,73.584
	c0.23-0.663,0.953-1.014,1.616-0.784c0.368,0.127,0.657,0.416,0.784,0.784H88.12z"/>
<path class="st0" d="M93.53,72.364v-0.5h-1v4.51h1v-2.49c0-0.74,0.51-1.11,1.33-1.12v-1C94.343,71.724,93.842,71.95,93.53,72.364z"
	/>
<path class="st0" d="M99.35,64.634h0.41l1.35,2.7h1.15l-1.38-2.74c0.978-0.178,1.627-1.115,1.449-2.093
	c-0.16-0.877-0.937-1.505-1.829-1.477h-2.16v6.31h1L99.35,64.634z M99.35,61.984h1.11c0.467,0.051,0.804,0.47,0.753,0.937
	c-0.043,0.397-0.356,0.71-0.753,0.753h-1.11V61.984z"/>
<path class="st0" d="M104.74,67.384c0.475,0.016,0.93-0.191,1.23-0.56v0.51h1v-4.51h-1v2.49c0,0.67-0.34,1.14-1,1.14s-1-0.35-1-1.14
	v-2.49h-1v2.71c-0.138,0.878,0.462,1.702,1.34,1.841C104.452,67.396,104.597,67.4,104.74,67.384z"/>
<path class="st0" d="M116.88,60.894c-0.365,0-0.66,0.295-0.66,0.66c0,0.003,0,0.007,0,0.01c-0.011,0.364,0.275,0.669,0.64,0.68
	c0.007,0,0.014,0,0.02,0c0.37,0,0.67-0.3,0.67-0.67c0-0.003,0-0.007,0-0.01c0.006-0.364-0.285-0.664-0.65-0.67
	C116.893,60.894,116.886,60.894,116.88,60.894z"/>
<rect x="116.43" y="62.824" class="st0" width="0.99" height="4.5"/>
<path class="st0" d="M120.72,62.774c-0.477-0.013-0.932,0.198-1.23,0.57v-0.52h-1v4.51h1v-2.49c0-0.66,0.34-1.13,1-1.13
	s1,0.34,1,1.13v2.49h1v-2.7C122.45,63.434,121.88,62.774,120.72,62.774z"/>
<path class="st0" d="M73.79,74.394c-0.059,0.621-0.61,1.077-1.231,1.019c-0.54-0.051-0.968-0.479-1.019-1.019v-4.33h-1v4.28
	c0.081,1.179,1.102,2.07,2.281,1.989c1.067-0.073,1.916-0.922,1.989-1.989v-4.28h-1L73.79,74.394z"/>
<path class="st0" d="M97.61,73.624c-0.52-0.18-1.17-0.17-1.17-0.57c0-0.18,0.16-0.36,0.45-0.36c0.201,0.003,0.383,0.119,0.47,0.3
	l0.66-0.6c-0.26-0.371-0.687-0.589-1.14-0.58c-0.717-0.039-1.33,0.51-1.369,1.227c0,0.004,0,0.009-0.001,0.013
	c0.007,0.588,0.423,1.092,1,1.21c0.48,0.13,1,0.16,1,0.67c0,0.36-0.31,0.56-0.68,0.56c-0.353,0.022-0.657-0.245-0.679-0.598
	c0-0.004,0-0.008-0.001-0.012h-1c0.1,0.911,0.921,1.569,1.832,1.468c0.773-0.085,1.383-0.695,1.468-1.468
	C98.489,74.322,98.143,73.804,97.61,73.624z"/>
<path class="st0" d="M110.17,64.584c-0.53-0.18-1.18-0.17-1.18-0.57c0-0.18,0.16-0.36,0.45-0.36c0.204-0.001,0.391,0.116,0.48,0.3
	l0.66-0.6c-0.264-0.377-0.7-0.595-1.16-0.58c-0.722-0.04-1.34,0.514-1.38,1.236c0,0.001,0,0.002,0,0.004
	c0.007,0.588,0.423,1.092,1,1.21c0.47,0.13,1,0.16,1,0.67c0,0.36-0.3,0.56-0.67,0.56c-0.358,0.023-0.667-0.249-0.69-0.608
	c0-0.001,0-0.002,0-0.002h-0.95c0.071,0.914,0.87,1.597,1.784,1.526c0.815-0.063,1.463-0.711,1.526-1.526
	C111.075,65.273,110.715,64.753,110.17,64.584z"/>
<polygon class="st0" points="114.97,62.834 113.84,62.834 112.81,64.354 112.81,61.024 111.82,61.024 111.82,67.334 112.81,67.334 
	112.81,65.914 113.42,65.034 114.78,67.334 115.9,67.334 114.03,64.184 "/>
<path class="st0" d="M73.52,61.024h-1l-2.34,6.31h1l0.46-1.27h2.66l0.45,1.27h1.13L73.52,61.024z M72.03,65.114l1-2.74l1,2.74H72.03
	z"/>
<polygon class="st0" points="106.98,74.524 105.86,71.864 104.84,71.864 106.5,75.664 105.44,78.174 106.38,78.174 109.04,71.864 
	108.1,71.864 "/>
<path class="st0" d="M103.57,75.494c-0.309,0.012-0.569-0.229-0.581-0.538c-0.001-0.021,0-0.041,0.001-0.062v-2.09h1.35v-0.94h-1.35
	v-1.47h-1v1.47h-0.91v0.94h0.91v2.11c-0.054,0.782,0.536,1.461,1.318,1.515c0.084,0.006,0.168,0.004,0.252-0.005
	c0.512,0.016,0.996-0.233,1.28-0.66l-0.73-0.6C103.999,75.36,103.795,75.485,103.57,75.494z"/>
<rect x="99.35" y="71.864" class="st0" width="0.99" height="4.5"/>
</svg>
