<?xml version="1.0" encoding="UTF-8"?> <!-- Generator: Adobe Illustrator 25.4.1, SVG Export Plug-In . SVG Version: 6.00 Build 0) --> <svg xmlns="http://www.w3.org/2000/svg" xmlns:xlink="http://www.w3.org/1999/xlink" version="1.1" id="Layer_1" x="0px" y="0px" viewBox="0 0 741.1 877.9" style="enable-background:new 0 0 741.1 877.9;" xml:space="preserve"> <style type="text/css"> .st0{fill:#66C1BF;} .st1{fill:#002D4F;} </style> <path class="st0" d="M535.5,74.4c5,5.5,14.5,14.6,25.5,16c1-0.1,1.3,0.5-1.5,1.9c-1.6,0.9-4.1,2-5.8,3c-1,0.7-0.3,1.3,0.7,2 c2.2,1.5,5,2.6,7.2,2.2c1.4-0.3,2.7-0.3,4.1-0.1c0.8,0.2,1.7,0.2,2.5-0.1c1.8-1.2,0.3-4.1,1.2-5.9c0.3-0.6,2.8-0.9,3.5-3 c0.7-2.4,0.4-3,1.5-5c1.6-2.8,4.1-5.1,6.3-7.6c3-3.4,5.9-5.6,8.9-10.1c1-1.5,5.7-8.7,4.6-9.7l0,0c-0.6,0-4.9,5-6,6.4l-3.2,3.7 c-4,4.4-7.8,9-12.2,13c-4.3,4-9.3,2.6-14.1,0.9c-7-2.5-13.9-5.4-20.8-8c-0.3-0.1-3.8-2.1-4.4-1.9C533.1,72.2,534.3,73.3,535.5,74.4z "></path> <path class="st0" d="M610.8,122.1c0.9,0.6-2.1,2.8-4,3.8c0,0-1.6,0.6-1.7,1.5c-0.2,1.3,4,2,6,2.3c1.7,0.3,3.5,0.3,5.3,0 c0.4-0.2,0.6-0.7,0.6-1.2c-0.6-4.6,1.2-4.2,1.2-4.2s4.4,0.6,6.2-0.5c0.7-0.4,1.6-0.4,2.3-0.1c0.9,0.2,1.4,0.5,0.5-0.8 c-0.5-0.6-0.6-1.5-0.2-2.1c8.3-12.4,8.6-20.7,5.9-27.5c-0.4-1.1-2.1,3.5-2.9,5.2c-0.5,1.2-2.4,5.6-2.6,6.2c-2.6,5.4-3,6.3-6.5,10.7 c-2,2.6-3.3,2.4-5.8,0c-7.5-7-9.7-14.4-15.1-22.1l0,0c-0.2-0.2-0.3-0.3-0.5-0.3c-0.8,0-1.4,2.6-1.2,3.9 C600.8,111.5,601.9,115.8,610.8,122.1z"></path> <path class="st0" d="M625.8,243.1c-3.4,2.4-7.6,4.1-11.6,5.9c0,0-4.3,2.1-6.2,3.2s-3-1.7-3.2-2.1c0,0,0-0.1-0.1-0.1 c-2.9-3.6-6.1-7.1-8.3-11.2c-1.9-3.6-5-4.4-7.9-4.4c-0.7,0-1.3,0.1-1.9,0.1c-7.5,0.7-14.9,2.7-22.3,4.3c-1.2,0.2-12.3,2.1-11.4,3.2 c0.3,0.4,2.3,0.9,4.7,1.2c0.7,0.1,1.3,0.1,2,0l7.3-1.3c0,0,1.1,0.4-0.3,0.9c0,0-2,0.7,1.1,2c6.6,2.8,8.4,2.9,16.1,5.6 c1.1,0.4,3,0.3,3.3,1.6c0.5,1.6,1.7,1.5,2.3,2.2c0.9,1,1,1.1,1.2,2.2c0.2,0.8,0.6,1.4,1.3,1.8c1,0.3,1,1.3,1.5,2 c1.8,2.6,3.3,5.5,5.5,9.1c0.1,0.2,0.1,0.5-0.1,0.6l-0.4,0.4c-2.7,2.7-5.7,5.2-8.7,7.5c-1.8,1.4-3,2.6-2.9,3.3s2.5,2,5.2,2.6 c0.2,0,0.4,0,0.6-0.2l4.7-6l-3.7,5.8c-0.2,0.3-0.1,0.6,0.2,0.8c0.1,0,0.1,0.1,0.2,0.1c1,0.2,1.9,0.3,2.8,0.5c0.7,0.1,1.5,0,2.2-0.3 c0.4-0.2,0.9-0.3,1.3-0.3c1.1,0,1.8,1,2.3,1.1c0.6,0.1,1.3,0,1.8-0.4c0.4-0.3,1-0.6,3-0.4c0.4,0.1,0,1.7,1.4,1.8 c2.5,0.1,2.8-0.3,2.8-0.6c0-2.2-0.2-4.4-0.7-6.6c-0.8-3.4-0.8-4.2-1.5-6.8c-0.2-0.7-0.8-1.8,0.9-2.2l2.8-0.9 c1.5-0.5,2.7-1.7,3.4-3.1c0.8-0.7,1.7-1.4,2.7-2.1c2-1.4,4.2-2.6,6.5-3.6c2.6-1,6.3-3.1,9.4-2.9c6.6,0.4,9,0.9,13.5,1 c0,0,3,0.5,0.3-1.1l-5.6-3.4l14.1,5.6c4,1,8.8,2.1,9.3,1.6c1.1-1-8.6-5.6-9.7-6.2c-6.4-3.7-13.9-8.6-20.7-11.6 C633.4,241.7,629.4,240.4,625.8,243.1z"></path> <path class="st0" d="M628.9,58.8c0.3,0-0.5,1.1-0.7,1.4c-0.3,0.4-0.5,0.8-0.7,1.3c-0.4,1.3,0,1.6,0.1,2.5c0,0.3,0.3,0.5,0.5,0.5 c0,0,0,0,0,0c0.8-0.1,2.5-1.4,3.8-1.1c1.4,0.3,2.9,0,4.2-0.8c5.5-2.6,3.5-3.8,7.8-5.4c0.6-0.2,7.7-2.3,7.6-2.7 c-0.3-0.7-4.9-1.3-6.7-1.5c-0.6-0.1-2.3,1.5-3.1,1.7c-1.2,0.3-1.4,0.2-1.4,0.2c1-0.6,1.9-1.4,2.6-2.3c0.6-0.7,1.1-1.5,1.5-2.3 c0,0,2.5-4.9,2.7-15.1c0.2-1-0.2-2.1-1-2.8c-0.1-0.1-0.2-0.1-0.3-0.1c-0.1,0-0.2,0-0.3,0.1c-0.8,0.8-1.5,1.8-2,2.8 c-2.9,5.8-3.5,11.3-8.4,17c-0.3,0.4-0.7,0.3-1,0.4c-6.1,2-8.9-3-14.8-9.8c-0.6-0.7-2-4.1-2.1-1.9c-0.2,2.6,0,5.2,0.6,7.7 C619.8,53.9,623.6,58.1,628.9,58.8z"></path> <path class="st0" d="M553.7,162.7c0.3-0.1,0.7-0.3,1-0.4c0.4-0.2,0.6-0.7,0.5-1.1c-0.1-0.4-0.5-0.7-1-0.7h-2.4c-3.3,0-6.4,0-9.5,0 c-6.5-0.1-13.5-0.3-20.5-0.7c-5.3-0.3-10.5-0.8-15.7-1.7l-4.9-0.7h-0.2c-1.1-0.1-1.9-0.3-2.3-0.7c-0.3-0.6-0.3-1.2-0.1-1.8 c0.1-0.8-0.1-1.6-0.6-2.2l0.6-2.2c0.1-0.2,0-0.4-0.2-0.6c-0.1-0.1-0.3-0.2-0.4-0.2H498c-0.8,0.2-1.5,0.6-2.2,1 c-1.3-0.2-2.6,0.2-3.5,1.2l-0.7,0.8l-0.8,0.9c-3.8,4.1-7.4,6.8-11.4,8.4c-3.3,1.3-6.3,2.5-9.4,3.7l-4.1,1.5 c-4.6,1.7-8.6,3.2-16.1,5.8c-6,1.9-12.2,3.5-18.4,4.7c-3.1,0.7-6.3,1.4-9.5,2.2c0,0-2.9,0.8-2.9,1.8c0,0.2,0.1,0.5,0.3,0.6 c0.2,0.1,0.4,0.2,0.7,0.2l6.4-1l-2.2,0.6c-0.3,0.1-0.5,0.3-0.5,0.6c0,0.3,0.3,0.5,0.6,0.5c7.1,0.5,14.3,0.5,21.4,0.2 c0.7,0,1.3-0.2,1.9-0.5l1.3-0.2c0.2,0.5,1,0.5,1.3,0.4c8.1-0.5,15.3-2.1,20.4-4.6l0.2-0.1c0.6-0.3,1.1-0.5,1.5-0.7 c-1.4,1.9-4.3,5.2-5.9,7c-0.8,0.8-1,1.5-0.7,2.1s1.5,0.8,2.5,0.8c0.9,0,1.8-0.1,2.8-0.3c2.4-0.5,4.8-0.8,7.2-0.9l0.9,0 c0.4,0,0.7-0.2,0.9-0.6l1.7-3.3l-0.7,2.5c-0.1,0.3,0,0.6,0.2,0.8c0.2,0.2,0.5,0.3,0.8,0.3c1.5-0.2,3-0.4,4.5-0.8 c6.2-1.6,9.5-2.6,13-6.3c0.2-0.2,0.3-0.5,0.3-0.8c0,0,0.1,0,0.1,0c0.2,0,0.5-0.1,0.6-0.3c0.8-1,0.2-1.8-1.2-3.1 c-0.2-0.2-0.6-0.5-1-1c-0.9-0.9-2.1-2-2.9-2.7c0.3,0,0.5,0,0.8,0c3.2,0.2,6.5,0.6,9.7,0.9l3.7,0.4c0.3,0,0.4,0,0.5-0.1 c0.1-0.1,0.3-0.2,0.3-0.4c0.1-0.3,0.4-0.4,0.7-0.3c0.1,0,0.2,0.1,0.2,0.1l0.5,0.5c0.2,0.2,0.5,0.3,0.8,0.4c4.9,0.4,9.8,0.1,14.7-0.9 c7.5-1.6,15.5-3.6,23.1-7.3c0.2-0.1,0.7-0.4,0.7-0.8s-0.6-0.6-0.9-0.6l-1-0.1h2.4C552.3,162.8,553,162.8,553.7,162.7z"></path> <path class="st0" d="M583.9,172c-2.1-2.7-4-5.2-4-5.4c-0.8-0.9-1.7-1.6-2.4-1.1s-0.5,1.5,0.6,3.5c2.3,4.6,7.1,9.3,9.4,11.1 c0,0.1-0.1,0.1-0.1,0.2c-0.3,0.8,0.4,1.4,0.7,1.6c0.7,0.6,1.5,1.1,2.3,1.5c0,0.1,0,0.3,0,0.4c0,0.5,0.4,0.9,0.8,1l0.6,0.3 c1.4,0.8,2.9,1.3,4.5,1.6h0.1c-0.3,0.3-0.5,0.7-0.5,1.1c0.1,1.3,2.1,1.8,3.8,2.1l0.3,0c1.1,0.2,1.1,0.2,1.4,0.6 c0.7,1.2,1.9,2,3.2,2.1c0.6-0.1,1.3,0.1,1.8,0.5c0.6,0.5,2.2,1.4,3.3,0.7l0.2-0.1c0.1,0.1,0.2,0.1,0.2,0.2c1.4,1.2,2.5,0.6,2.8,0.4 c0.1,0,0.5,0.2,0.7,0.3c0.6,0.4,1.3,0.4,1.9,0l0,0c0.2-0.1,0.4-0.2,0.5-0.3c0.2,0.2,0.4,0.3,0.6,0.4c0,0.7,0,1.4-0.2,2 c-0.2,1-0.7,2-1.2,2.8c-0.4,0.3-2.3,1.7-4.6,3.6c-2.7,1.9-5.6,3.7-8.5,5.2c-1.5,0.8-2.2,1.2-2.4,1.4c-0.4,0.2-0.6,0.7-0.6,1.2 c0.1,0.6,0.8,0.8,1.3,1l0.4,0.1c0,0.1,0,0.1,0,0.2c0.1,0.5,0.4,0.9,0.8,1.1c0.8,0.2,1.6-0.1,2.2-0.6l2.8-2.1 c3.5-2.5,4.8-3.3,5.8-3.9c0.4,0,0.9,0,1.3,0.1c0.6,0.1,1.1,0.1,1.7,0c2.9-0.7,5.8-1.8,8.5-3.1c1.9-1,3.7-2.1,5.4-3.4l2.2-1.5 c1.7-1.2,2.8-3.2,2.7-5.3c0.7-0.5,1.4-1,2-1.6c1.2-0.6,1.9-2,1.5-3.3c0.3-0.6,0.7-1,1.3-1.2c0,0,0.6-0.3,0.4-0.5 c-0.9-0.5-1.9-0.7-2.9-0.4c-0.2,0.1-0.5,0.1-0.7,0l0,0c-1-0.2-2.1-0.2-3.1,0.2c0.3-2.3,1.3-4.4,2.9-6.1l0.7-0.7 c3-2.9,6.8-6.5,8-12.5c0.6-2.9,1.5-5.7,2.5-8.5c1-2.6,1.7-5.2,2.1-7.9c0.2-13.6-1.3-13.9-2-14c-0.1,0-0.1,0-0.2,0 c-1,0-1.7,1.1-2.5,4.2c-0.2-0.2-0.4-0.3-0.7-0.3c-2.4-0.1-10.1,13.9-11.3,19.5l-0.2,0.9c-0.1,0.3-0.1,0.6-0.2,0.9 c-0.2,0.2-0.3,0.4-0.5,0.6c-0.5,1.1-0.8,2.4-0.8,3.6c0,0.9-0.2,1.8-0.5,2.7c-0.4,0.5-0.8,1.3-1.2,2.1c-0.4,0.8-0.8,1.5-1.3,2.2 c-0.3,0.5-0.6,1.1-0.7,1.7c0,0.4-0.2,0.7-0.4,1c-0.2,0.3-0.5,0.5-0.8,0.7c-0.6,0.3-0.9,0.9-0.8,1.6c0,0.2,0.1,0.4,0.2,0.5 c-0.1,0.1-0.2,0.2-0.3,0.3c-0.6,0.5-0.9,1.3-0.7,2c-1,0.7-1.7,1.3-1.4,2.7c0.1,0.2,0.1,0.4,0.2,0.5s0,0,0,0l-0.1,0.1 c-0.1,0.1-0.2,0.2-0.4,0.3c-0.6,0.3-0.9,1-0.8,1.7c0,0.2,0,0.4,0,0.6c-2.7-0.2-15.6-1.4-23.2-5.7C589,176.5,585.9,174.6,583.9,172z"></path> <path class="st0" d="M643.2,406.5c2.4-6.3,3.2-13,2.5-19.7c-0.2-3.7-5-27.7-3.5-4.3s-10.9,35.1-21.9,50c-3.1,4.1-6.4,7.9-9.9,11.6 l-0.3-0.4c-0.2-0.4-0.5-0.8-0.9-1.1c-0.3-0.2-0.5-0.4-0.7-0.7c-0.4-0.9-0.9-1.7-1.6-2.4l-0.4-5c0,0,0-1.8-1.1-1.8s-1.6,1.4-1.6,1.4 l-2,3.7c-1.2,0.3-2.3,0.9-3.3,1.6c-3.7,2.7-4.5,5.5-6.7,8.3c-1,1.3-1.9,2.7-2.8,4c-3.8,5.3-8.1,7.7-12.2,9.6l0,0 c-5.3,2.2-14.9,2.9-15.7,2.8c-1.9-0.3-5.7-0.9-10.5-1.8c-8.8-1.4-17.3-3.9-25.5-7.4c-3.3-1.8-6.5-3.8-9.6-6c-1.7-1.2-3.4-2.4-5-3.8 c-2.1-2-3.8-4.4-5.1-7c-0.3-0.5-0.5-1.1-0.8-1.8c0.6-0.3,1.1-0.6,1.7-0.9c0.7-0.3,1.4-0.7,2.3-1.1c2.2-1.1,4.7-2.3,6.3-3 c0.3-0.2,0.7-0.3,1-0.4c0.2-0.1,0.4-0.2,0.5-0.4l0.6-0.5c0,0,0.2,0.3,0.3,0.2c1.3-0.2,2.5-0.5,3.8-1c1-0.5-0.2-2.2,0.9-2.7 c2.6-1.1,9.8-1.1,13-2c0.5-0.1,0.8-0.7,0.7-1.2c0,0,0-0.1,0-0.1l0.3-0.5l0.8,0.8c0.2,0.3,0.5,0.4,0.7,0.3c1.3-0.3,2.5-0.9,1.8-1.9 c0,0-0.7-1.3-0.7-1.3c-1.4-2.2-3.8-6.1-5.4-8.3c-1.5-2.1-2.8-4.4-4-6.8c-0.4-0.9-1-1.8,0-3.4c0.8-0.9,1.7-1.7,2.7-2.5 c5.4-5.6,10.2-8.1,13.6-15.8c1.2-2.7,2.2-7.1,2.3-7.1s-0.1-2.8,1.7-10.3c1.1-4.3,1.2-8.8,0.2-13.2c-0.3-0.8-0.6-1.5-1.1-2.2l0.2-4.2 c0,0,0.2-1.5-0.8-1.7s-1.5,1-1.5,1l-2.2,2.9c-1.1,0.1-2.1,0.5-3,1c-3.5,1.9-4.6,4.1-6.8,6.3c-0.8,0.8-1.5,1.5-2.2,2.3 c-1.9-2.2-3.3-4.7-4.1-7.5c-2-7.4-11.9-44.8-11.8-60.7c0,0-0.1-5.4-0.3-10.1c-0.2-6.4,6.3-17.7,7-19.1s-0.9-0.7-0.9-0.7 c-9,8.2-10.6,17.4-10.6,17.4c0,0.4-0.1,0.7-0.3,1c-0.3,0.3-0.8,0.1-1-1.2c-0.2-1.6-0.7-4.2-0.7-4.2s-0.4-2.5-1.4,0.5 c-1.1,3.1-1.8,6.3-2,9.5c0,0-0.1,3.2-0.8,1.8c-0.5-1.1-0.9-2.3-1.1-3.5c0,0-0.5-4.3-1.6,1.5c-0.9,5-1.6,8.5-1.6,8.5s0,1.1-0.7,0.8 s-1.2-1.8-1.7-0.4s-1.2,6.5,0.3,10.3c0,0,0.9,1.5-0.2,2.5c0,0-1.5,1.4-1.4,2.8s-0.3,2-0.8,2.3s-2.3,2.2-1.4,3.6s1.5,1.6,0.8,2.3 s-2.8,1.9-2.6,3.3c0.2,1,0.9,1.8,1.8,2.2c0,0,0.7,0.3,0.5,0.8c-0.2,0.5-0.5,0.8-1,1c-0.7,0.4-1,1.1-0.9,1.9c0.3,0.9,1.7,1.8,1.7,1.8 s0.8,0.5,0.8,1s-0.4,0.9-1,1.3c-1.2,0.8-1.6,2-1.3,2.6s1.7,1.3,1.7,1.3s0.5,0.4,0.2,0.7s-2,1.7-1.8,2.5s3.3,1.8,3.3,1.8 s1.7,0.4,0.8,1.5c-0.4,0.5-2.5,4-2.5,4l-0.2,0.2c-3.1-1.2-9-3.6-15.3-6.4c-6.7-2.9-13.1-6.3-19.4-10.1c-7.4-4.5-3.8-13.1-6.6-16.8 c-2.2-2.9-9.3-8.1-9.3-12.3c0-2.4,0.1-4.7,0.3-7c11.1,0.8,16.5-1.4,24.6-3.2c4.5-1,6.7-5.1,7.7-9.3l0.5-0.1c0.8-0.9,2.6-1.5,3.5-1.1 c0,0,0.9,0.3,0.9-0.2c-0.5-1.5-1.5-2.7-2.9-3.4c-0.3-0.1-0.6-0.4-0.8-0.7c-0.1-0.1-0.2-0.3-0.3-0.4c0.1-1.4,0.1-2.9,0-4.3l0,0 c0.2-0.4,3-7.7,10.1-10.9c7.3-3.3,16.2-6.6,22.5-17.1s14.7-19.2,18.3-26.5c0,0,15.4-41.1,0.1-18.5c0,0-2.3,1.3-1.6-1.7 s-0.8-5.5-4.6,1.4c0,0-3.8,8.2-2.9,3.7s-1-7.4-3.9-0.4s-3.5,6.5-3.2,3.9s-2.8-0.4-4.3,4.1s-2.9,6.6-4.9,8.3s-4.6,0.7-6.1,5.6 s-1.5,2.7-3.4,4.1s-4.5,9.2-6.4,10.5s-5,4.7-7,6.1s-1.5,3-3.7,4.2s-3.2,0.5-3.5,1.9s0.5,1.7-1.8,2.6s-0.6,2.5-2.7,3.1 s-2.8,0.8-3,2.5s0.3,2-1.3,2.6s-1.8,0.1-2.5,1.9s-0.2,3.1-1.5,2.4c-6.7-3.7-13.1-7.9-19.2-12.5c-2.3-1.8-7.2-6.2-12.5-11 c-5.2-5.4-19.4-20.6-25.2-31.2c-3-5.4-6.8-10.4-10.3-16.4c-4.4-7.6-8.4-15.4-11.8-23.5c-5.1-13.1-3.2-19.8-3.2-19.8s3-1.5,3-1.5 c1.9-0.6,3.8-1,5.7-1.4h0.1c0.3,0,0.6-0.2,0.9-0.4c0.2,0.1,0.4,0.2,0.6,0.2c0.7-0.1,1.4-0.3,1.7-0.9c0.2-0.4,0.2-0.8,0-1.1l-0.2-0.3 l-0.2-0.6c-0.9-1.8-1.7-3.4-2.4-4.8c-0.8-1.6-1.5-3.2-2-4.8l-0.1-0.2c-0.3-0.5-0.2-1.2,0.2-1.6c0.3-0.3,0.7-0.6,1.1-0.8 c0.3-0.2,0.5-0.4,0.8-0.6c1.1-1,2.2-1.8,3.3-2.7c2.5-1.9,4.9-3.8,6.7-7.2c0.4-0.8,0.7-1.5,1-2.2c1.1-1.1,4.3-3.6,5.8-2.6 c1.2,0.8,2.1-0.2,2.7-0.8l0.1-0.1c0.1-0.1,0.1-0.1,0.1-0.1l0.2,0.1c0.2,0.1,0.3,0.2,0.5,0.3c0.8,0.4,1.2,0.4,1.7-0.1l0.1-0.1 c0.2-0.1,0.6-0.5,0.8-0.4c0.4,0.3,1.3,0.7,2.5-0.6c0.1-0.1,0.2-0.2,0.3-0.4c0.1,0,0.2,0.1,0.3,0.2c1.2,0.8,5.3-3.1,5.3-3.1 c0.6-0.5,1.3-0.8,2-0.8c1.3-0.2,2.4-1.2,2.8-2.4c0.3-0.7,0.3-0.7,1.5-1.1l0.3-0.1c1-0.3,3.3-1.1,3.3-2.4c0-0.6-0.4-1.1-1-1.1 c-0.1,0-0.2-0.1-0.3-0.1c0.3-0.2,0.7-0.4,1.1-0.4c1.5-0.5,3-1.2,4.3-2.1l0.5-0.4c0.3-0.1,0.5-0.4,0.6-0.8c0-0.2-0.1-0.4-0.3-0.6 c0.9-0.6,1.7-1.4,2.5-2.2c0.2-0.2,0.8-0.8,0.5-1.4c0-0.2-0.2-0.3-0.3-0.3c0.1-0.1,0.2-0.2,0.3-0.3c2-2.2,6.5-7.9,8.4-13.5 c0.9-2.5,1-3.2,0.4-3.6c-0.4-0.2-0.8-0.1-1.9,1.4c-0.2,0.2-2.2,2.8-4.2,6c-2.2,3.4-5,5.4-11.3,9.7c-1,0.7-2.1,1.5-3.3,2.3 c-7.1,5-17.7,6.1-21.5,6.4l-0.2-1.2c1.3-1.1,1.9-2.8,1.4-4.5c0.2-0.5,0.6-0.9,1.1-1.1c0.2-0.1,0.7-0.4,0.8-0.8 c0.1-0.2,0-0.4-0.1-0.5c-1-0.6-2.3-0.7-3.4-0.2c-0.1,0.1-0.3,0.1-0.5,0.1c-0.2-0.1-0.3-0.1-0.5-0.2c-2.5-0.4-5,0.5-6.6,2.5 c-1.3,0.9-2.6,2-3.7,3.1c-0.5,0.5-1,1-1.5,1.4s-0.6,0.5-0.8,0.7l-0.3,0.3c-2.6,2.4-8.3,3.8-8.4,3.8l0,0c-0.4,0-0.7,0.1-1.1,0.2 c-1.7,0.4-3.9,0.9-5.6,0.4c-2.7-0.6-5.4-0.7-8.2-0.5c-1,0-2,0.2-3.1,0.2c-1.8,0.3-3.7,0.3-5.6,0.2c-2.4-0.5-4.7-1.3-7-2.2l-2.7-5.7 l-0.3,0.6L87.1,618h110.9l39.8-72.3h220.4l39.3,72.3h111l-35.8-71.6c5-5.9,2.6-3.3,5-4.2c2.6-1,4.3-4.7,6.8-6c0.5-0.3,1-0.6,1.5-0.8 c0.1-0.1,0.2-0.2,0.2-0.3c0,0,0.4-1.5,0.6-0.7c0,0.2,0.2,0.2,0.3,0.2c0,0,0,0,0.1,0c1.4-0.4,2.8-1,4.1-1.7c1.1-0.7-0.6-2.6,0.6-3.3 c3-1.7,6.1-3.3,9.3-4.7c0.6-0.3,0.9-1,0.6-1.6c0,0,0-0.1-0.1-0.1l-1.1-1.8l2.3,2.1c0.2,0.3,0.6,0.4,0.9,0.3c1.5-0.6,2.7-1.4,1.7-2.5 c0,0-1-1.3-1-1.4c-2-2.3-4-4.7-6-7c-2-2.3-3.9-4.7-5.5-7.3c-0.6-1-1.4-2-0.4-3.9c0.8-1.1,1.7-2.2,2.6-3.3c5.2-7.4,10.8-11.6,13-20.3 c0.7-2.7,1.2-5.5,1.4-8.4c0-0.1,0.1-0.2,0.2-0.3c0.8-0.3,1-1.3,1.1-2.3s0.5-0.8,1.3-0.8c0.3,0,0.5,0,0.8,0c1.2-0.1,2.2-1,2.5-2.1 c0.4-1.1,1.7-1.1,2.4-1.1s0.9-1.1,1.4-2.3c0.3-0.8,1.6-0.8,2.5-1.1c1.4-0.4,0.8-2.2,0.8-2.7s2-1.4,2.4-2c0.7-1.1-0.5-2.2,0.7-2.8 c0.9-0.3,1.6-1.1,1.9-2c0.2-0.7,1-1,0.8-1.9s1-1.6,2-2.3s0.5-3.2,0.5-4.3c0.1-1,0.5-1.9,1.1-2.6c0,0,3.8-3.7,5.5-5.5 s-0.9-1.3-1.6-1.2s-2.2,0.8-2.8,0.1s0.9-2.5,0.9-2.5s5.8-6.6,7.5-8.7c2.8-3.5-0.2-1.8-0.2-1.8s-1,0.5-1.5,0.2 c-0.3-0.2,0.6-1.3,0.6-1.3s1.8-2.7,3.4-5.7c3.2-5.9-0.6-2.5-0.6-2.5s-0.9,1-1.2,0.1s0.9-3.4,1-3.6L643.2,406.5z M358.2,116.9l8,2.3 c5.9,1.7,13.2,3.8,15.2,4.2c0,0,1.5,0.1,0.4,2c-0.9,1.6-1.7,3.3-2.3,5l-4,7.8l-0.7,1.4l-2.4,4.8c-0.3,0.9-0.8,1.7-1.4,2.4 c-0.1,0.1-0.2,0.1-0.3,0.1c-0.4,0-0.6-0.8-0.7-1.6s-0.2-2.8-0.2-2.8c0-3,0-4.3-0.1-9.2c-0.1-2.5-10.1-13.5-11.6-14.7 C355.9,116.7,356.8,116.6,358.2,116.9z M286.4,456.3l61.8-130.7l61,130.7H286.4z M438.1,280l-1.6,0.4c-0.1,0-0.2,0.1-0.2,0.1 c-0.6,0-0.5-1.4-0.5-1.4s-0.8-14-1.3-17.7c-0.2-0.9-0.3-1.8-0.3-2.6c0-0.1,0-0.1,0.1,0c0.2,0.1,0.3,0.2,0.4,0.4 c0.2,0.2,0.5,0.5,0.8,0.9c0,0,3,4,21.6,11.5c0,0,2.8,1.3-1.4,2.5l-11.7,4L438.1,280z M514.7,394.9l-0.4,0.7 c-0.2,0.3-0.3,0.5-0.5,0.8s-0.4,0.6-0.6,0.9s-0.4,0.6-0.7,1s-0.7,0.9-1,1.4s-0.7,0.9-1,1.3c-1.3,1.6-2.6,3.3-4,4.7 c-0.5,0.6-1.1,1.2-1.6,1.7s-1.1,1-1.6,1.5c-1.8,1.4-3.9,3.8-4.7,3.8c-0.1,0-0.1,0-0.2,0s-0.1-0.5,0.1-1.2c0.1-0.3,0.2-0.7,0.4-1.1 c0-0.1,0.1-0.2,0.1-0.3c0.2-0.6,0.4-1.2,0.7-1.9c0.2-0.4,0.3-0.8,0.5-1.2s0.2-0.6,0.3-1c0.3-0.8,0.6-1.7,0.9-2.6 c0.1-0.4,0.2-0.8,0.3-1.2c0.1-0.4,0.3-0.9,0.3-1.3c0.1-0.4,0.2-0.8,0.3-1.3s0.2-0.9,0.2-1.3l0.1-0.5l0,0c0,0,0-0.1,0-0.2 s0-0.1,0-0.1c0-0.2,0-0.5,0-0.7c0.2-1.5,0-3-0.6-4.4c-0.7-1.4-3.2-4.7-6.3-8.5c-2.4-3-5.1-6.2-7.5-9c-0.4-0.5-0.8-1-1.2-1.5 l-2.2-2.6c-0.3-0.4-0.5-0.7-0.8-1l-1.2-1.5c-0.7-0.9,0.3-0.5,0.5-0.5c1.5,0.7,3.3,1.6,3.3,1.6l2.9,1.6l2.6,1.5 c0,0,13.7,8.6,19.1,11.5l4.1,2.4c2,1.3,2.7,1.9-0.2,7.9C514.9,394.5,514.8,394.7,514.7,394.9z M584.7,502.5 c-2.5,7.6-10.7,26.6-13.3,34.8c-0.1,0.2-0.2,0.5-0.2,0.7l0,0c-0.2,0.5-0.3,1.1-0.5,1.7c-0.1,0.3-0.2,0.6-0.3,0.8 c0,0.1,0,0.1-0.1,0.1c-1.9,0-21.1-43.4-23.8-48.1l0.8,0.2l1.2,0.2c0.2,0,0.5,0.1,0.8,0.2l3.5,0.7l2.9,0.6c2,0.3,5.7,0.9,6.1,1 c0,0,18.9,2.3,21.7,2.9S585.1,501.3,584.7,502.5L584.7,502.5z"></path> <path class="st0" d="M491.5,110.7c-1.5-0.1-1.8-0.8-2-2.1c-0.1-0.5-0.2-1-0.5-1.5c0,0,0.5-1.2,0.6-1.5s0-0.6-0.2-0.6 c0,0-0.1,0-0.1,0c-0.2,0.1-0.8,0.6-1.2,1c-1-0.7-2.3-0.5-3.2,0.3c-3.1,2.6-2.6,3.3-10.3,4c-6.7,0.6-11.6,2.5-18.2,3.5 c-2.3,0.4-5.5,1.4-7.2,1.8c-1,0.3-1.3,1.2,0.1,1.3c3.6-0.1,8.8,3.3,12.9,4s7.2-0.4,10.4-0.8c1.1-0.1,2.2,0.7,2.3,1.9 c0,0.1,0,0.2,0,0.2c0,1.9-2.2,4.5-6.2,8.3c-0.4,0.4-0.4,0.9,0,1.3c0.1,0.1,0.2,0.2,0.3,0.2c5.2,1.5,9-1.1,12.4,3.5 c0.8,1,1.8,0.4,1.6-0.4c-0.4-1.6-0.7-3.3-0.9-4.9c-0.2-1.1-0.3-2.3-0.3-3.4c0-0.9,0.1-1.6,0.2-2.5c0.2-1.9,2.2-2.9,4.1-2.5 c6.1,1.3,12.2,2.5,18.2,3.9c5.7,1.3,11.2,1.1,16.4-1.6l0,0c1.3-0.7,1.7-2-0.5-2.2c-0.7-0.1-1.7-0.3-2.2-0.4c-5.5-1-9.5-3.1-13.9-5.5 C500.2,113.9,496.4,110.8,491.5,110.7z"></path> <path class="st0" d="M467.2,44.5l2.9,2.7c2.4,2,3.1,2.7,4.7,4c2.4,2.1,4.6,4.3,6.7,6.7c1.9,2,3.5,4.3,4.7,6.8c0.5,1,1.2,2.5,1,3.2 c-0.5,1.1-1.5,1.8-2.6,2.2c-2.2,0.5-4.4,1-6.7,1.3c-0.4,0.1-0.6,0.5-0.5,0.8c0,0.1,0,0.1,0.1,0.2c1,2.3,1.9,3.9,4.5,3.3 c1.8-0.4,4.3-1.7,6.8-2.4c1.6-0.3,3.2-0.5,4.9-0.5c0.7-0.1,1.3-0.1,1.8-0.2c1.9-0.1,4.4-1,7.8-4.7c0,0,2.7-2.6,2.7-2.7 c0.2-0.4,1.8-2.4,2-2.8c0.3-0.6,0.6-1.2,1.1-1.8c0.4-0.5,0.9-0.9,1.6-1c0,0,0.4-0.3,0.3-0.5c-0.5-0.5-1.2-0.7-1.8-0.7 c-0.2,0-0.3-0.1-0.5-0.2c-0.4-0.3-1-0.5-1.5-0.4c-0.6,0.2-1.2,0.5-1.6,1c-0.2,0.1-0.3,0.2-0.5,0.3l-1.1,0.7c0.9-2.7,2-5.4,3.2-8.1 c0.9-1.7,0.7-3.8-0.4-5.4c-0.4-0.5-0.8-0.8-1.3-1.1c-0.9-0.4-1.9-0.2-2.4,0.6c-2,3.2-4,6.4-6.2,9.9c-0.5,0.9-1.7,1.1-2.5,0.6 c-0.2-0.1-0.3-0.2-0.4-0.4c-3.2-3.7-7.3-5.4-11.3-7.1c-2.9-1.3-12.3-6.3-16.3-7.6c-0.5-0.2-0.9-0.3-1.4-0.3 C463.7,40.9,464.2,41.9,467.2,44.5z"></path> <path class="st0" d="M575.6,300.9c0.1,0,0.2,0,0.3,0c0.2,0.1,0.4,0.2,0.5,0.4c0.3,0.5,3.2,5.1,3.4,5.4c2.1,2.5,5.3,4.6,10.9,7 c5.8,2.4,25.8,4.8,28,5l0,0h0.2c0.6-0.1,1.2-0.2,1.7-0.3c1.5-0.5,3.2-0.5,4.7-0.1c0.6,0.2,1.2,0,1.7-0.4c1.2-1.9,3-3.3,5-4.3 c0.3-0.4,0.5-0.7,0.7-1.2c0.4-0.8,0.6-1.3,1.1-1.3c0.2,0,0.4,0.1,0.5,0.3c0.2,0.5,0.4,1.1,0.4,1.6c0,0.4,0.1,0.8,0.2,1.2 c0.8,1,1.4,2.2,1.7,3.5c0.3,1.1,0.1,2.2-0.6,3.1c-0.7,0.7-0.9,1.8-0.6,2.8c0.3,0.6,0.6,1.1,1.1,1.5c1.3,0.9,2.3,2,3,3.3 c0.1,0.3,0.3,0.5,0.5,0.6c3.3,2,20.1,12,27.9,14.4c0,0,2.6,0.9,5,1.7c1.8,0.6,5.2,0.5,10.1-0.3h0.4c0.4-0.1,0.7,0,0.8,0.3 s-0.1,0.8-0.2,1l-0.1,0.1c-3.1,1.6-6.6,2.4-10.1,2.3l1.5,0.7c0.5,0.2,0.7,0.5,0.6,0.8c-0.1,0.5-0.7,0.5-1.3,0.5 c-1.6,0.1-3.2-0.1-4.8-0.4l0.5,0.2c0.7,0.3,1,0.6,0.9,1s-0.8,0.5-2.1,0.3l-4.3-0.5c0.1,0.2,0.1,0.5,0,0.7c-0.2,0.2-0.5,0.3-0.8,0.3 c-1.9-0.1-3.7-0.7-5.3-1.8c-0.1,0-0.4-0.4-0.8-0.2c-0.6,0.3-1.3,0.4-2,0.2c-0.6-0.2-0.8-0.1-0.9,0c-0.3,0.2-1.8,0.9-2.6,0 c-0.2-0.2-0.3-0.3-0.4-0.5c0,0-0.1-0.1-0.1-0.1l0,0l-0.3,0.2c-0.6,0.5-1.4,0.7-2.1,0.5c-0.5-0.3-0.9-0.8-1-1.4 c-0.1,0-0.2,0.1-0.2,0.2c-0.5,0.4-1.1,0.4-1.6,0.1c-0.4-0.3-0.7-0.8-0.8-1.3c0-0.1-0.1-0.2-0.1-0.2c-0.1,0.1-0.3,0.1-0.4,0.2 c-0.6,0.5-1.4,0.6-2.1,0.2c-0.3-0.3-0.4-0.6-0.5-1c-0.7,0.3-1.3,0.6-1.7,0.3s-0.5-1-0.5-2.2c0-0.1,0-0.1,0-0.2l0,0 c-0.3,0.1-2,0.5-2.4,0.6c-0.6,0.2-1.2,0.1-1.7-0.3c-3-1.4-5.8-3-8.5-4.9c-0.7-0.5-1.5-1-2.3-1.3l0,0c0.2,2.3,0.3,3.5,0.6,5.1 l0.2,1.4c0.1,0.6,0.3,1.4,0.4,2.3c0.2,1.1,0.4,2.3,0.5,3.2c0.1,0.5,0,1-0.3,1.4c-0.2,0.2-0.5,0.3-0.8,0.3c-0.6,0.2-1.1,0.5-1.6,1 c-0.8,0.6-1.6,1.3-2.5,1.2c-0.7-0.1-1.3-0.6-1.7-1.2c-0.1,0.1-0.2,0.1-0.3,0.2c-0.2,0.2-0.5,0.3-0.8,0.4l-0.3,0 c-0.5,0.1-1.1,0.1-1.7,0c-0.3-0.1-0.7-0.2-1-0.3c-0.9-0.5-1.8-1-2.7-1.7l-0.5-0.4c-0.6-0.4-1.5-0.7-1.2-1.3l0.4-0.8 c0.2-0.4,0.2-0.5,0.5-1.1c0,0,0.8-1.6-0.8-0.8c-0.6,0.3-1.3,0.8-1.6,0.9c-2,1-2.3,0.8-3.8,1.4c-0.4,0.1-0.9,0.3-1.4,0.5 c-1,0.4-2.2,0.1-2.8-0.8l-1-1.4c-0.4-0.5-0.3-1.3,0.3-1.7c0,0,0,0,0,0l-0.4,0.1c-0.5,0.1-1-0.1-1.4-0.4c-2.2-1.8-4.1-3.8-5.8-6 l-0.2-0.2c-0.2-0.2-0.3-0.4-0.3-0.6c0-0.3,0.7-0.3,0.7-0.3h0.3c1.1-0.1,1.2-0.4,0.8-0.5l-2.1-0.3c-0.2,0-0.9-0.2-0.8-0.7 s0.7-0.6,1.2-0.6c4.3-0.2,8.5-1.5,12.2-3.7c-0.5-0.2-1-0.5-1.3-1c-0.5-0.5-1.2-0.8-2-0.7c-0.7,0.3-1.5,0-1.9-0.6 c-0.2-0.3-0.4-0.3-1.2-0.3c-1,0.1-1.9-0.5-2.3-1.3c-0.4-0.6-1-0.9-1.6-0.9c-0.8,0.1-1.6-0.2-2.2-0.8l-0.2-0.3 c-0.3-0.4-0.5-0.6-0.9-0.7c-0.9-0.1-1.4-0.9-1.6-2.5c-0.1-0.5-0.6-0.6-2-0.6c-1.3-0.1-2.3-1-2.6-2.2c-0.1-0.2-0.1-0.4-0.1-0.6 c-0.1-0.4-0.1-0.4-0.4-0.4c-1.3-0.2-2.5-1-3.1-2.2c-0.1-0.2-0.2-0.4-0.3-0.6c-0.3-0.7-0.4-0.9-0.8-1.1c-0.8-0.4-1.3-1.2-1.2-2.1 c0-0.4-0.2-0.8-0.6-1c-1.7-1-4.1-4.2-5.1-5.6c-0.2-0.3-0.2-0.5,0-0.7s0.6-0.1,0.8,0c0.2,0.1,0.4,0.2,0.6,0.2 c-0.7-1.4-1.6-3.4-2.3-4.9c-0.1-0.3,0-0.7,0.2-0.8c0.3-0.2,0.6-0.1,0.9,0.1l1.6,1.8l-0.8-1.8c-0.1-0.4,0-0.7,0.2-0.8"></path> <path class="st0" d="M121.9,748H98.9L92,734.5H54.5L47.7,748H24.7l48.7-97.2L121.9,748z M63.1,717h20.4l-10.1-20.1L63.1,717z"></path> <path class="st0" d="M241.8,747.8h-26.6L193.5,716h-8.6v31.8h-21.7v-97.3h36.3c18-0.1,32.7,14.5,32.8,32.5 c0.1,11.5-5.9,22.1-15.8,27.9L241.8,747.8z M210.5,683.1c0-6.1-4.9-11-10.9-11.1h-14.7v22.3h14.7 C205.6,694.2,210.5,689.2,210.5,683.1L210.5,683.1z"></path> <path class="st0" d="M365.9,699.1c0,27-21.9,48.8-48.9,48.8h-30.2v-97.7h30.2C344,650.3,365.9,672.1,365.9,699.1 C365.9,699.1,365.9,699.1,365.9,699.1z M343.8,699.1c0.1-14.8-11.8-26.8-26.6-26.8c0,0-0.1,0-0.1,0h-8.4V726h8.4 c14.8,0,26.7-12,26.7-26.7C343.8,699.2,343.8,699.2,343.8,699.1L343.8,699.1z"></path> <path class="st0" d="M413.4,747.8v-97.4h68.3v21.7h-46.4v16h32.7V710h-32.7v16.1h46.4v21.7L413.4,747.8z"></path> <path class="st0" d="M551,697.8v49.7h-21.5v-99.8l57.2,52.4v-49.8h21.5v99.8L551,697.8z"></path> <path class="st1" d="M89.6,839.1c-5.2-5.1-7.8-12.5-7.8-22v-36.5h15.1v35.9c0,11.7,4.8,17.5,14.5,17.5c4.7,0,8.3-1.4,10.8-4.2 c2.5-2.8,3.7-7.2,3.7-13.3v-35.9h14.9v36.5c0,9.6-2.6,16.9-7.8,22c-5.2,5.1-12.4,7.7-21.7,7.7C102,846.8,94.8,844.3,89.6,839.1z"></path> <path class="st1" d="M217.2,780.6v65.1h-12.4l-32.5-39.5v39.5h-14.9v-65.1H170l32.4,39.5v-39.5H217.2z"></path> <path class="st1" d="M238.2,780.6h15.1v65.1h-15.1V780.6z"></path> <path class="st1" d="M338.3,780.6l-28.2,65.1h-14.9l-28-65.1h16.3l19.7,46.5l20.1-46.5H338.3z"></path> <path class="st1" d="M399.7,833.7v12h-50.4v-65.1h49.2v12.1h-34.2v14.1h30.2v11.7h-30.2v15.2H399.7z"></path> <path class="st1" d="M458.8,845.7l-12.5-18.1h-13.9v18.1h-15.1v-65.1h28.2c5.1-0.1,10.3,0.9,15,2.9c4,1.7,7.4,4.6,9.8,8.2 c2.4,3.8,3.6,8.1,3.5,12.6c0.4,9-5,17.2-13.4,20.5l14.6,20.9H458.8z M455,795.8c-2.4-1.9-5.8-2.9-10.3-2.9h-12.3v22.7h12.3 c4.5,0,8-1,10.3-3c2.4-2.1,3.7-5.2,3.5-8.4C458.5,800.6,457.3,797.8,455,795.8L455,795.8z"></path> <path class="st1" d="M497.7,844.7c-4.2-1.1-8.1-2.9-11.6-5.4l5.1-11.3c3,2.2,6.4,3.8,10,4.9c3.7,1.2,7.6,1.8,11.5,1.9 c4.3,0,7.4-0.6,9.5-1.9c1.9-1,3.1-2.9,3.1-5.1c0-1.5-0.6-2.9-1.8-3.9c-1.4-1.1-3-2-4.7-2.5c-1.9-0.6-4.5-1.3-7.7-2 c-4.1-0.9-8.2-2.1-12.2-3.5c-3.2-1.2-6-3.1-8.1-5.7c-2.3-2.6-3.4-6.1-3.4-10.4c0-3.7,1-7.2,3.1-10.3c2.3-3.3,5.5-5.8,9.3-7.3 c4.8-1.9,9.9-2.8,15.1-2.7c4.1,0,8.2,0.5,12.2,1.5c3.7,0.9,7.2,2.3,10.4,4.3l-4.7,11.4c-5.4-3.2-11.7-5-18-5.1c-4.2,0-7.3,0.7-9.3,2 c-1.9,1.1-3,3.2-3,5.4c0,2.2,1.2,3.9,3.5,5c3.4,1.4,7,2.5,10.6,3.2c4.1,0.9,8.2,2.1,12.2,3.5c3.1,1.2,5.9,3.1,8.1,5.6 c2.2,2.5,3.3,6,3.3,10.4c0,3.6-1.1,7.2-3.1,10.2c-2.3,3.3-5.6,5.8-9.3,7.3c-4.8,1.9-10,2.8-15.2,2.7 C507.6,846.9,502.5,846.2,497.7,844.7z"></path> <path class="st1" d="M556.1,780.6h15.1v65.1h-15.1V780.6z"></path> <path class="st1" d="M605.7,792.9h-20.8v-12.3h56.7v12.3h-20.8v52.8h-15.1V792.9z"></path> <path class="st1" d="M691.2,822.7v23h-15.1v-23.2l-25.2-41.8h16l17.4,28.9l17.4-28.9h14.8L691.2,822.7z"></path> </svg> 