<?xml version="1.0" encoding="UTF-8"?> <!-- Generator: Adobe Illustrator 25.2.1, SVG Export Plug-In . SVG Version: 6.00 Build 0) --> <svg xmlns="http://www.w3.org/2000/svg" xmlns:xlink="http://www.w3.org/1999/xlink" version="1.1" id="Layer_1" x="0px" y="0px" viewBox="0 0 992.4 209.8" style="enable-background:new 0 0 992.4 209.8;" xml:space="preserve"> <g> <path d="M369.5,1.4c0,41.7,0,82.9,0,125c-1.5-1.4-2.6-2.3-3.5-3.2c-27.8-28-55.6-56.1-83.5-84c-11.4-11.5-24.9-17.2-41.3-12.4 c-8.2,2.4-14.8,7.4-20.7,13.4c-8.3,8.4-16.8,16.6-25.4,25.2c-2.6-2.3-5.3-4.7-8-7c-16-12.9-35.1-13.3-50.7,0 c-9.9,8.4-18.6,18.1-27.9,27.2c-1.2,1.1-2.4,2.2-3.8,3.6c-2.5-2.3-4.7-4.5-7.1-6.5c-16.8-14-36.8-14.3-53.1,0.5 c-13.7,12.4-26.3,26-39.3,39.1c-1.4,1.4-2.3,3.3-3.5,4.9c-0.5-0.3-1-0.7-1.4-1c0-41.5,0-83,0-124.8C123.1,1.4,246.1,1.4,369.5,1.4z "></path> <path d="M0,184.3c123.3,0,246.2,0,369.4,0c0,8.4,0,16.6,0,25.1c-123.2,0-246.1,0-369.4,0C0,201,0,192.9,0,184.3z"></path> <path d="M211.6,81.8c9.4-9.3,18.4-18.6,27.8-27.6c8.7-8.3,17.4-7.9,26.7,1.3c14.1,13.9,28,28,41.9,42.1 c19.2,19.4,38.4,38.8,57.6,58.2c1.3,1.3,2.5,2.6,4.3,4.4c-2,0.1-3.2,0.3-4.4,0.3c-24.1,0-48.3,0.1-72.4-0.1c-1.9,0-4.4-0.6-5.7-1.9 c-25.1-25.1-50-50.3-75-75.4C212.1,82.9,212,82.6,211.6,81.8z"></path> <path d="M695.3,209.5c-17.4,0-34.5,0-51.7,0c-1.1-3.6-0.8-5.6,3.7-6.1c9.7-1.2,11.3-3.3,11.3-13.4c0-28.7,0-57.3,0-86 c0-14.8-0.1-14.9-15-17.7c-0.1-0.8-0.4-1.7-0.4-2.7c0-0.8,0.1-1.6,0.2-2.3c0.5-0.3,0.7-0.6,1-0.6c21.3,0.2,42.6,0.2,63.9,1 c5.9,0.2,12.2,2.4,17.6,5.1c22.6,11.2,24.8,41.5,4.2,56c-5,3.5-10.8,5.7-16.5,8.7c7.6,10,15.6,20.4,23.5,30.9 c3.5,4.6,7.1,9.3,10.6,13.9c3,4,6.7,6.8,11.9,7.5c3.1,0.4,3.1,0.7,2.4,5.9c-8.7,0-17.5,0.4-26.3-0.3c-2.6-0.2-5.5-3.1-7.3-5.4 c-9.5-12.4-18.7-25.1-28-37.7c-1.3-1.7-2.8-3.4-3.8-5.3c-3.2-6.6-8.4-8.4-15.6-6.4c-0.1,0.6-0.5,1.5-0.5,2.4c0,11.3-0.1,22.7,0,34 c0.1,9.1,1.8,11.2,10.8,12.3C695.3,203.8,696.5,205.4,695.3,209.5z M680.8,87.9c0,19.8,0,39.3,0,59.1c13.7-0.1,27.9,1.6,35.8-12.4 c6.5-11.5,7-24.2-0.6-35.5C707.5,86.6,694.1,87.4,680.8,87.9z"></path> <path d="M403,80.3c26.1,1.6,52-2.9,77.4,3.3c30.2,7.3,47.4,32.6,44.8,63.7c-1.7,20-8.2,37.3-24.6,49.8c-9.2,7.1-19.8,11.6-31.3,12 c-21.9,0.7-43.9,0.2-66.1,0.2c-1.4-3.8-0.4-5.4,4-6c9.2-1.1,10.8-3.3,10.8-12.7c0-29.7,0-59.3,0-89c0-12-0.6-12.7-12.5-14.9 c-0.8-0.1-1.6-0.3-2.6-0.5C403,84.5,403,82.9,403,80.3z M440.4,86.7c-0.2,2.9-0.3,4-0.3,5.2c0,32.5,0,64.9,0,97.4 c0,1.8,0.2,3.7,0.5,5.5c0.7,4.3,3.3,7,7.5,7.6c19.6,2.8,38-1.5,47.6-24.4c8.5-20.3,8.2-41.3,0.6-61.9c-4.8-13-13.8-22.7-27.5-26.1 C459.7,87.8,450.2,87.7,440.4,86.7z"></path> <path d="M771.2,209.7c-1.2-4.4,0-5.8,3.8-6.3c9.6-1.1,11.4-3.5,11.4-13.4c0-29.5,0-59,0-88.4c0-11.4-1-12.7-12.2-14.8 c-1-0.2-1.9-0.3-3.2-0.6c-0.1-1.6-0.2-3.3-0.3-5.2c1.3-0.2,2.4-0.5,3.5-0.5c18.7,0,37.3-0.5,56,0.4c8.3,0.4,17.1,2.2,24.5,5.7 c19.8,9.4,20.9,36.9,2.5,48.7c-4.8,3.1-10.4,4.9-15.9,7.5c3.8,0.9,7.6,1.6,11.3,2.8c21.5,6.8,30.5,27.1,20,45.7 c-6,10.6-16.1,15-27.4,17.1c-4.6,0.9-9.3,1.2-13.9,1.2c-18.3,0.1-36.6,0.1-55,0.1C774.5,209.7,772.9,209.7,771.2,209.7z M808.4,146.3c0,14.1,0,27.1,0,40c0,14.1,1.8,16,15.9,16.7c0.2,0,0.3,0,0.5,0c18.4,0.6,28-7.9,29.5-26.1 c1.2-14.9-7.2-26.8-21.4-29.1C825.1,146.6,817.1,146.8,808.4,146.3z M808.6,139.5c5.6,0,10.6,0.3,15.5-0.1c13-0.9,21-7.4,23.2-18.7 c2.6-13.4-1.7-24.8-11.5-29.8c-8.7-4.3-17.9-3.6-27.2-3.2C808.6,105.2,808.6,122.1,808.6,139.5z"></path> <path d="M256,160.6c-2.4,0-3.8,0-5.2,0c-23.8,0-47.6,0.1-71.4-0.1c-2.1,0-4.8-0.7-6.2-2c-17.1-17-34-34.2-51-51.4 c-0.3-0.3-0.5-0.8-0.4-0.7c9.9-10.2,19.1-20.7,29.4-30.1c7.3-6.7,15.8-5.5,23.5,2.2c10.6,10.4,21,20.9,31.4,31.4 c15.6,15.7,31.1,31.5,46.7,47.2C253.7,157.9,254.5,158.9,256,160.6z"></path> <path d="M626.2,113.5c-1.5-1.3-2.9-2.5-4.3-3.9c-0.3-0.3-0.4-0.9-0.6-1.4c-5.8-15-15.9-22.7-32.7-20.8c-7.2,0.8-14.6,0.1-22.2,0.1 c0,17.4,0,34.3,0,51.7c9.7,0,19.5,0.6,29.2-0.2c6.3-0.6,7.8-6.9,8.7-12.1c0.7-4.3,2.7-4.8,6.5-3.7c0,13.2,0,26.4,0,39.7 c-3.9,1.4-5.7,0.4-6.6-3.9c-2.1-10.1-5.3-12.3-15.5-12.3c-7.3,0-14.6,0-22.3,0c-0.1,2.3-0.2,4.1-0.2,5.9c0,12,0,24,0,36 c0,10.4,2.8,13.5,13.1,14.1c5.8,0.3,11.7,0.2,17.5,0.4c9,0.2,16.1-3.6,21.3-10.9c3.1-4.5,6.1-9.1,9-13.8c2.3-3.7,2.3-3.8,7.6-3.1 c-0.9,5.7-1.8,11.4-2.8,17.1c-0.9,5.7-1.9,11.4-2.9,17.2c-33.4,0-66.4,0-99.5,0c-1.5-4-0.5-5.6,3.9-6.2c9.1-1.1,10.8-3.3,10.8-12.8 c0-29.7,0-59.3,0-89c0-11.7-0.8-12.6-12.1-14.8c-1-0.2-1.9-0.4-3-0.6c0-1.8,0-3.4,0-5.4c32.5,0,64.9,0,98.1,0c0,10.4,0,20.7,0,31.1 C626.8,112.5,626.5,113,626.2,113.5z"></path> <path d="M142.2,160.3c-47.7,0-94.4,0-142,0c4.9-5.1,9.3-9.8,13.8-14.3c13.8-14,27.7-27.9,41.5-41.8c1.1-1.1,2.1-2.1,3.3-3.1 c9-7.6,16.7-7.5,25.2,0.6c6.4,6.1,12.5,12.4,18.8,18.7c11.9,11.9,23.7,23.9,35.5,35.8C139.4,157.3,140.4,158.4,142.2,160.3z"></path> <path d="M876.2,86.5c0-2.2,0-3.7,0-5.5c16.8,0,33.5,0,50.5,0c0,1.8,0,3.5,0,5.2c-3.6,0.5-6.9,0.8-10.1,1.5c-4.5,1-5.9,3.8-4.6,8.3 c0,0.2,0.1,0.3,0.2,0.5c9.7,17.4,19.4,34.8,29.4,52.8c9.2-16.5,18-31.9,26.4-47.6c5.6-10.4,3.2-14.1-8.5-14.9 c-1.1-0.1-2.3-0.1-3.7-0.2c0-1.9,0-3.6,0-5.6c12,0,24,0,36.4,0c0.1,1.7,0.2,3.5,0.2,5.6c-7.2,0.8-10.5,5.7-13.6,11.3 c-10.7,19.4-21.6,38.6-32.3,58c-1.1,2.1-1.8,4.7-1.8,7c-0.2,8.8-0.1,17.7-0.1,26.5c0,10.4,2,12.9,12.5,14.1c3.9,0.5,5.6,1.6,4.3,6 c-18,0-36.2,0-54.5,0c-1-3.5-0.7-5.8,3.8-5.9c2.3,0,4.6-0.8,6.8-1.4c4-1.2,6.2-3.9,6.2-8.1c0.1-11.2,0.1-22.3,0-33.5 c0-1.7-1-3.5-1.8-5c-10.9-19.6-22-39.1-32.9-58.8C886,91.5,882.9,87,876.2,86.5z"></path> <path d="M681,31.1c7.6,7.8,11,19,23.2,23.2c-11.4,3.1-15.3,1.8-20.9-6c-3.3-4.6-6.5-9.3-10-13.7c-1-1.3-3.2-1.6-4.8-2.4 c-0.5,1.5-1.2,2.9-1.3,4.4c-0.2,2.5,0,5-0.1,7.5c-0.2,4.4-0.3,8.6,5.7,9c0.3,0,0.6,1,1.1,2.1c-7.8,0-15.1,0-22.9,0 c0.5-1,0.8-2.2,1.2-2.2c5.5-0.3,5.5-3.9,5.5-8.1c-0.2-10.8-0.1-21.7-0.1-32.5c0-7.1,0-7.1-7.1-10c1.3-0.7,2.1-1.6,2.9-1.6 c8.6,0.1,17.3-0.1,25.9,0.7c8.3,0.7,13.4,5.5,14.3,11.7c1.1,7.8-1.9,12.6-10.4,16.6C682.6,30.1,682.1,30.5,681,31.1z M667.4,28.1 c7.7,1.3,12.3-0.1,14.9-4.4c2.7-4.5,2.4-11.8-0.8-15.5c-3.8-4.4-8.8-4.5-14.1-3.7C667.4,12.7,667.4,20.4,667.4,28.1z"></path> <path d="M503.7,39.1c0-11.4,0.1-21.6-0.1-31.8c0-1.1-1.9-2.4-3.2-3.2c-1.1-0.7-2.6-0.8-4.3-1.2c3-2.7,14.4-2.9,18.2-0.8 C514.2,2.4,514.1,3,514,3c-5.7,0.9-6.5,4.6-6.4,9.7c0.3,14.1,0.1,28.3,0.1,44.2c-2.6-2-4.5-3-5.7-4.4c-9.2-11.6-18.3-23.3-27.5-35 c-1.1-1.4-2.3-2.7-4.1-4.9c0,12.7-0.1,24.3,0.2,35.9c0,1.4,2.5,2.9,4,4c0.9,0.7,2.3,0.9,3.4,1.4c-0.1,0.4-0.2,0.8-0.3,1.2 c-5.8,0-11.6,0-17.7,0c0.3-0.8,0.4-1.9,0.7-1.9c6.1-0.6,5.9-4.9,5.8-9.4c-0.2-9.2-0.1-18.3,0-27.5c0.1-5.7,1-11.7-7.2-13.3 c4.6-3.6,13.9-2.9,16.7,0.6c7.9,10.1,15.7,20.3,23.6,30.4C500.7,35.4,501.8,36.8,503.7,39.1z"></path> <path d="M898.4,28.6C898.5,8.3,914-4.3,931.7,1.4c13,4.2,19.6,19.1,15.7,35.1c-3.5,13.9-15.7,22-29.3,19.4 C905.5,53.4,898.3,43.5,898.4,28.6z M907.2,28.4c1.8,5.8,2.8,12.4,5.7,18c5.1,9.6,16.5,9.4,21.3-0.3c5.9-11.7,5.6-23.8-0.2-35.6 c-2.3-4.6-6.1-7.4-11.7-7.1c-5.4,0.2-8.9,3.4-10.6,7.9C909.9,16.5,908.9,22.1,907.2,28.4z"></path> <path d="M602.9,1.3c13.6,0,27.3,0,41.4,0c0,4.1,0,8.6,0,13c-3.4-3.4-6.1-8-10-9.6c-4.3-1.8-9.7-0.9-15.1-1.3c0,7.5,0,14.4,0,22 c6.6-0.3,14.6,4,17-8.7c0.4,0.7,0.8,1.5,1.2,2.2c0,5.6,0,11.2,0,17.1c-2.8-2.6-4.8-5.7-7.7-6.7c-3-1.1-6.8-0.3-10.8-0.3 c0,6.8-0.2,13.1,0.1,19.4c0.1,1.2,1.7,2.9,3,3.4c7.5,3.1,15.9,0.2,20.4-6.7c1.2-1.8,2.5-3.4,3.8-5.1c0.5,0.2,0.9,0.5,1.4,0.7 c-0.7,4.7-1.4,9.3-2.2,14.4c-14.1,0-28.2,0-42.8,0c0.7-1,1.2-2.3,1.7-2.3c4.8-0.4,5.3-3.5,5.2-7.4c-0.1-10.3,0-20.7,0-31 C609.4,6.1,609.4,6.1,602.9,1.3z"></path> <path d="M401.3,2c7.2-1.9,14.5-1,22.5-0.2c-0.8,0.6-1.4,1.6-2.3,1.8c-3.1,0.6-4.5,2.3-4.4,5.5c0.1,9.3-0.1,18.7,0.1,28 c0.2,8.9,4.6,13.9,12.1,14.4c8.9,0.6,15.1-3.9,15.8-12.9c0.8-10.1,0.4-20.3,0.2-30.5c0-1.4-2.1-3-3.5-4.1c-1-0.8-2.6-0.8-4.3-1.2 c3.2-2.7,14.8-2.8,18.9,0c-9.4,1-7.2,7.6-7.3,13.1c-0.1,6.8,0,13.7,0,20.5c0,8.1-2.6,15-10.7,18.1c-8.7,3.4-17.4,3-25-3.1 c-4.3-3.4-5.6-8.5-5.6-13.9c-0.1-8.3,0-16.7,0-25C407.7,5.2,407.7,5.2,401.3,2z"></path> <path d="M820.6,0.7c0.4,6.1,0.7,11.5,1.1,16.9c-0.4,0.2-0.8,0.5-1.1,0.7c-5-5.9-5.4-17.7-18.1-13.9c-0.1,1.3-0.3,3-0.4,4.7 c0,11.8,0.1,23.7-0.1,35.5c-0.1,4.5,0.3,8.1,5.9,8.3c0.5,0,1,1,2.1,2.2c-8.7,0-16.5,0-24.3,0c-0.2-0.3-0.3-0.6-0.5-0.8 c1-0.6,2-1.5,3.1-1.7c2.9-0.6,4.3-2.1,4.3-5.1c0-14.3,0-28.6,0-43c-12.5-4.1-13.9,7.1-18.2,14.2c-0.5-0.3-0.9-0.6-1.4-0.9 c0.3-5.2,0.5-10.3,1-15.5c0.1-0.6,1.7-1.5,2.6-1.5C791.1,0.7,805.6,0.7,820.6,0.7z"></path> <path d="M967.4,3.4c0,6.6,0,12.1,0,17.6c0,1.6,0,3.3,0,5.5c3.6,0,7.3,0.9,10-0.3c2.5-1.1,4.1-4.5,6.6-7.5c0,6.4,0,12.2,0,18.9 c-2.3-3-3.7-6.5-6.1-7.5c-2.8-1.2-6.5-0.3-10.4-0.3c0,6.2-0.4,12.3,0.2,18.4c0.2,1.6,3.3,3,5.2,4.3c1.1,0.7,2.6,0.9,3.9,1.3 c-0.1,0.4-0.2,0.9-0.3,1.3c-8.3,0-16.5,0-25.1,0c0.3-0.8,0.4-1.8,0.7-1.8c5.7-0.7,5.8-4.6,5.7-9c-0.2-10.2-0.1-20.3-0.1-30.5 c0-7.8,0-7.8-6.2-11.2c2.1-2.1,24.2-2.9,39.8-1.4c0,4.4,0,8.9,0,13.4c-3.2-3.4-5.8-7.9-9.6-9.7C977.8,3,972.7,3.8,967.4,3.4z"></path> <path d="M708.2,37.5c0.8,1.7,1.6,3.4,2.3,5.1c3.2,8.7,9.8,12.5,17.3,10.1c3.7-1.2,6.6-3.7,6.3-7.4c-0.2-3.1-1.7-7-3.9-8.9 c-3.2-2.7-7.9-3.5-11.4-5.9c-3.9-2.6-8.6-5.3-10.6-9.2c-4.5-8.6,1.2-18.8,10.9-20.5c3.7-0.7,7.7-0.6,11.4,0 c9.4,1.4,11.7,5.8,8.4,16.7c-1.1-2.3-1.9-3.6-2.4-5c-2.2-6.3-6.6-9.6-12.7-9.3c-4,0.2-7.1,1.8-8.4,5.9c-1.3,4.2-0.2,7.7,3.3,10.1 c2.6,1.7,5.7,2.8,8.4,4.2c3.5,1.8,7.4,3.3,10.4,5.8c7.7,6.3,6.6,18.6-1.8,23.9c-7.1,4.5-20,4.3-26.7-0.5c-0.9-0.6-2-1.7-2-2.6 c-0.2-4-0.1-8.1-0.1-12.2C707.3,37.8,707.8,37.6,708.2,37.5z"></path> <path d="M860.6,55.3c-7.6,0-15.2,0-22.8,0c-0.2-0.3-0.3-0.7-0.5-1c1-0.6,1.9-1.5,3-1.7c3.3-0.5,4.3-2.4,4.5-5.5 c0.5-8.1-0.3-15.7-5.3-22.7c-3.5-4.8-5.8-10.5-9-15.5c-1.6-2.6-3.9-4.8-6.2-7.5c7.7,0,14.8,0,22.1,0c-0.3,1-0.3,1.5-0.4,1.6 c-7.5,2.3-7.5,2.3-3.4,9.5c3.1,5.4,6.2,10.9,9.8,17.1c4.1-7.6,7.9-14.4,11.5-21.3c1.4-2.6,0.2-4.1-2.5-4.6 c-1.1-0.2-2.2-0.4-3.3-1.2c4.8-3.1,10-1.2,15-1.8c0.2,0.9,0.5,1.7,0.4,1.8c-9.5,8.4-13.5,20.3-19.1,31c-2.3,4.3-0.6,10.7-0.3,16.2 c0.1,1,2.3,2,3.6,2.8c1,0.6,2.2,1,3.3,1.5C860.9,54.4,860.8,54.9,860.6,55.3z"></path> <path d="M583,2.9c2.4-2.6,10.6-3,15.2-1.3c-9.6,14.3-13.5,31.2-20.6,46.6c-1.2,2.7-2.3,5.4-4,9.3c-1.5-2.3-2.5-3.6-3.2-5.1 c-5.7-12.7-11.2-25.6-17-38.2c-2-4.4-4.8-8.5-7.3-12.8c6.7,0,13.9,0,21.3,0c-0.3,1-0.4,1.5-0.5,1.6c-7.3,2.3-7.4,2.4-4.3,9.5 c4.4,9.8,8.8,19.7,13.6,30.4c4.6-11.9,9-23,13.2-34.1c1-2.7-0.2-4.5-3.1-5C585.3,3.5,584.2,3.2,583,2.9z"></path> <path d="M541.2,55.3c-7.2,0-14.5,0-22.3,0c0.6-1.1,0.9-2.3,1.2-2.3c5.5-0.3,5.5-4,5.5-8.1c-0.2-10.8-0.2-21.6,0-32.4 c0.1-5-0.2-9-6.6-9.2c2.3-3,18.7-3.5,23-0.6c-1.3,0.5-2.4,0.7-3.1,1.3c-1.4,1.5-3.6,3.2-3.7,4.9c-0.3,13-0.3,26,0,38.9 c0,1.7,2.2,3.4,3.7,4.9c0.7,0.7,1.9,1,2.8,1.5C541.6,54.5,541.4,54.9,541.2,55.3z"></path> <path d="M769.1,3.1c-8.2-0.1-7.5,5.1-7.4,10.1c0.1,10.8,0.1,21.6,0,32.4c-0.1,4,0.5,7,5.3,7.3c0.5,0,1,1,2.1,2.2 c-8.2,0-15.5,0-23.8,0c1-1.1,1.6-2.3,2.3-2.3c4.3-0.4,4.9-3.1,4.9-6.6c-0.1-11-0.1-22,0-32.9c0.1-5,0.6-10.1-7.1-9.9 C748,0.2,764.4-0.3,769.1,3.1z"></path> </g> </svg> 