<?xml version="1.0" encoding="UTF-8"?> <svg xmlns="http://www.w3.org/2000/svg" xmlns:xlink="http://www.w3.org/1999/xlink" id="Capa_1" data-name="Capa 1" version="1.1" viewBox="0 0 55.4 42.5"><defs><style> .cls-1 { fill: #0091b9; } .cls-1, .cls-2, .cls-3 { stroke-width: 0px; } .cls-4 { clip-path: url(#clippath); } .cls-2 { fill: none; } .cls-3 { fill: #92278f; } </style><clipPath id="clippath"><rect class="cls-2" width="55.4" height="42.5"></rect></clipPath></defs><g class="cls-4"><path class="cls-1" d="M10.7,2.4c-.4-.4-1-.7-1.7-.7s-.6,0-.9.2c-.3.1-.5.3-.7.6V0H1.3L0,1.4h2.8v6.3s1.5,0,1.5,0V1.4h1.8v6.3h1.3v-2.5c0-.8,0-1.3.3-1.6.2-.3.5-.5,1-.5s.7.1.9.4c.2.3.3.7.3,1.2v3h1.4v-3.3c0-.8-.2-1.5-.6-1.9"></path><path class="cls-1" d="M16.6,2.6c-.6-.6-1.3-.9-2.2-.9s-1.5.3-2.1.9c-.6.6-.9,1.3-.9,2.2s.3,1.6.9,2.2c.6.6,1.3.9,2.1.9s1.2-.2,1.7-.5c.5-.4.9-.8,1.1-1.5h-1.4c-.1.2-.3.4-.6.5,0,0,0,0,0,0,0,0,0,0,0,0,0,0,0,0-.1,0,0,0,0,0,0,0,0,0,0,0,0,0-.1,0-.2,0-.4,0,0,0-.1,0-.2,0-.3,0-.5,0-.7-.1-.2,0-.3-.1-.4-.2-.2-.1-.3-.3-.4-.5-.1-.3-.2-.6-.2-.9,0-1,.6-1.8,1.7-1.8.9,0,1.4.5,1.6,1.2,0,0,0,0,0,0h0s-1.9,0-1.9,0l-1.1,1.1h3s1.4,0,1.4,0c0,0,0,0,0-.1,0,0,0-.1,0-.2,0-.9-.3-1.7-.9-2.3"></path><path class="cls-3" d="M49.9,25.4l-2.5,10.3h0l-2.7-10.3h-4.1l-2.7,10.3h0l-2.5-10.3h-9.7v1.8h0c-.6-1-2.1-2.3-4.8-2.3-4.4,0-8.3,3.4-8.3,8.8s.2,2.3.5,3.3h-6.1v-17.1l-5.6,3.8v18.2h12.2v-3.5c1.4,2.4,3.8,4.1,7.1,4.1s4-.7,4.8-2.4h0v1.8h4.9v-15.5l4.7,15.5h4.6l2.8-10.7h0l2.8,10.7h4.6l5-16.5h-5.1ZM21.5,37.9c-3,0-4.1-2.6-4.1-4.2s1.2-4.3,4.1-4.3,4.1,2.2,4.1,4.2-1,4.2-4.1,4.2"></path><path class="cls-1" d="M54.6,11.4c.1-.1.3-.2.7-.2h.1v-1.2s0,0-.1,0c0,0-.1,0-.1,0-.7,0-1.2.2-1.5.5-.3.3-.5.8-.5,1.4v.3h-.9l-.6.6s0,0,0,0c-.6-.6-1.3-.9-2.2-.9s-1.5.3-2.1.9c-.6.6-.9,1.3-.9,2.2s.3,1.6.9,2.2c.6.6,1.3.9,2.2.9s1.6-.3,2.2-.9c.6-.6.9-1.3.9-2.2s-.2-1.2-.5-1.7h1.1v4.7h1.3v-4.7h1v-1.1h-1v-.2c0-.2,0-.4.2-.5M50.6,16.2c-.3.3-.7.5-1.2.5s-.9-.2-1.2-.5c-.3-.3-.5-.7-.5-1.3s.1-.9.5-1.3c.3-.3.7-.5,1.2-.5s.9.2,1.2.5c.3.3.5.7.5,1.2s-.1,1-.4,1.3"></path><rect class="cls-1" x="13.7" y="12" width="1.4" height="5.9"></rect><rect class="cls-1" x="13.7" y="10.6" width="1.4" height=".9"></rect><rect class="cls-1" x="34.4" y="10.6" width="1.4" height="1"></rect><path class="cls-1" d="M2.5,9.9v5.1c0,.4.1,1.7,1.7,1.7s1.6-1.4,1.6-1.8v-4s1.5-1,1.5-1v5.1c0,.6,0,1.4-.5,1.9-.5.6-1.4,1.2-2.6,1.2s-2.2-.7-2.6-1.1c-.3-.3-.5-.9-.5-1.9v-4l1.5-1Z"></path><polygon class="cls-1" points="15.2 12 16.8 12 18.2 15.9 18.2 15.9 19.5 12 21.1 12 18.7 17.9 17.6 17.9 15.2 12"></polygon><path class="cls-1" d="M25.9,12.7c-.6-.6-1.3-.9-2.2-.9s-1.5.3-2.1.9c-.6.6-.9,1.3-.9,2.2s.3,1.6.9,2.2c.6.6,1.3.9,2.2.9s1.2-.2,1.7-.5c.5-.4.9-.9,1.1-1.5h-1.5c-.1.2-.3.4-.6.5,0,0,0,0,0,0,0,0,0,0,0,0,0,0,0,0-.1,0,0,0,0,0,0,0,0,0,0,0,0,0-.1,0-.2,0-.4,0,0,0-.1,0-.2,0-.3,0-.5,0-.7-.1-.2,0-.3-.1-.4-.2-.2-.2-.3-.3-.4-.6-.1-.3-.2-.6-.2-.9,0-1,.7-1.8,1.7-1.9.9,0,1.4.5,1.6,1.2,0,0,0,0,0,0h0s-2,0-2,0l-1.1,1.1h3.1s1.4,0,1.4,0c0,0,0,0,0-.1,0,0,0-.1,0-.2,0-.9-.3-1.7-.9-2.3"></path><polygon class="cls-1" points="45 12 43.4 12 42 15.8 40.7 12 39.9 12 39.9 12 39.7 12 39.1 12 39.1 12 38.4 12 38.4 9.9 37 11 37 12 35.6 12 34.4 12 34.4 17.9 35.8 17.9 35.8 13.2 37 13.2 37 17.9 38.4 17.9 38.5 13.2 39.6 13.2 41.2 17.3 40.2 19.6 41.7 19.6 45 12"></polygon><path class="cls-1" d="M9.3,12v.7c.2-.3.4-.5.7-.6.3-.1.6-.2.9-.2s.8,0,1.1.2c.3.2.6.4.8.7.1.2.2.5.3.7,0,.3,0,.7,0,1.2v3.1h-1.4v-2.6c0-.8,0-1.3-.3-1.6-.2-.3-.5-.4-.9-.4s-.8.2-1,.5c-.2.3-.3.9-.3,1.7v2.5h-1.3v-4.9l1.3-1Z"></path><path class="cls-1" d="M32.5,13.7c0-.5-.4-.5-.6-.5-.3,0-.5.3-.5.5s.2.4,1,.6c.7.2,1.6.6,1.6,1.7s-1,2-2,2-1.3-.2-1.7-.8c-.4-.4-.4-.9-.4-1.2h1.4c0,.3.2.7.8.7s.6-.3.6-.6c0-.4-.3-.5-1.3-.9-.7-.2-1.3-.7-1.3-1.7s1-1.8,1.9-1.8,1.8.6,1.9,1.8h-1.3Z"></path><path class="cls-1" d="M30.3,12h-.6c-.7,0-1,.2-1.2.6h0v-.6s-1.3,0-1.3,0v5.9s1.4,0,1.4,0v-3.2c0-.3,0-1.1.9-1.3,0-.1.7-1.2.8-1.3"></path></g></svg> 