<svg xmlns="http://www.w3.org/2000/svg" xmlns:xlink="http://www.w3.org/1999/xlink" id="Layer_1" x="0px" y="0px" viewBox="0 0 3988.3 1063.5" style="enable-background:new 0 0 3988.3 1063.5;" xml:space="preserve">
<style type="text/css">
	.st0{fill:#5C6670;}
	.st1{fill:#BB0000;}
</style>
<path class="st0" d="M0,0v577.1c0,232,417.7,481.8,425.4,486.4c7.7-4.6,425.4-254.4,425.4-486.4V0H0L0,0z M812,577.1  c0,157.9-242.3,350.3-386.5,440.8C281.1,927.4,38.9,735.1,38.9,577.1V38.9H812V577.1z"></path>
<g>
	<path class="st1" d="M266.5,249.5c12.1,0,21.9-9.8,21.9-21.9c0-12.1-9.8-21.9-21.9-21.9c-12.1,0-21.9,9.8-21.9,21.9   C244.6,239.6,254.4,249.5,266.5,249.5z M583.9,249.5c12.1,0,21.9-9.8,21.9-21.9c0-12.1-9.8-21.9-21.9-21.9   c-12.1,0-21.9,9.8-21.9,21.9C562,239.6,571.8,249.5,583.9,249.5z M77.8,77.8v499.3c0,116.8,176.4,283.1,347.6,394.6   c171.2-111.5,347.7-277.9,347.7-394.6V77.8H77.8L77.8,77.8z M492.3,188.5c5.4-6.7,17.9-25,38.1-18.4c18.8,6.1,12.3,19.9,25.5,23.7   c0.8,0.2,2,0.3,3-0.4h0c1-0.7,1.3-1.9,1.4-2.7c0.4-13.7-14.7-11.9-14.7-31.6c0-21.2,21.2-27.4,29.2-30.5c8.1-3.1,9.4-13.1,9.4-13.1   s1.2,10,9.3,13.1c8.1,3.1,29.3,9.3,29.3,30.5c0,19.7-15.1,17.9-14.7,31.6c0.1,0.8,0.3,2,1.3,2.7c0.9,0.8,2.1,0.6,2.9,0.4   c13.2-3.8,6.8-17.6,25.5-23.7c20.1-6.5,32.6,11.7,38.1,18.4c5.5,6.7,15.3,4.8,15.3,4.8s-9.1,4.3-9.6,12.9   c-0.4,8.7,0.2,30.7-20,37.3c-18.7,6.1-21.7-8.9-34.6-4.2c-0.8,0.3-1.8,0.9-2.1,2.1l0,0c-0.4,1.1,0.1,2.2,0.5,2.9   c7.7,11.4,18.9,1,30.4,16.9c12.5,17.1-1,34.6-5.8,41.9c-4.7,7.3,0.1,16.1,0.1,16.1s-6.9-7.3-15.3-5.1c-8.4,2.2-29.2,9.6-41.6-7.5   c-11.6-15.9,1.7-23.3-6.7-34.2c-0.5-0.6-1.4-1.5-2.6-1.4c-1.2,0-2.1,0.8-2.6,1.4c-8.4,10.9,4.9,18.2-6.7,34.2   c-12.4,17.1-33.2,9.7-41.6,7.5c-8.4-2.3-15.3,5.1-15.3,5.1s4.9-8.8,0.1-16.1c-4.7-7.3-18.2-24.8-5.7-41.9   c11.6-15.9,22.7-5.5,30.4-16.9c0.4-0.7,0.9-1.8,0.5-2.9c-0.4-1.1-1.4-1.7-2.1-2.1c-12.9-4.7-15.8,10.3-34.6,4.2   c-20.1-6.5-19.5-28.6-20-37.3c-0.5-8.7-9.5-12.9-9.5-12.9S486.8,195.2,492.3,188.5L492.3,188.5z M436.4,360.3   c22.8-45.8,109.8,4.7,150.6,4.7l43.6,169.7c-38.9,0-158.9-47.8-194.2-6.5L436.4,360.3L436.4,360.3z M413.6,528.3   c-35.3-41.3-155.3,6.5-194.2,6.5L263,365.1c40.8,0,127.8-50.6,150.6-4.7V528.3z M425.4,562.5L425.4,562.5L425.4,562.5   c18.5,0,25.4,15.6,26.5,18.5c0,0,0.2,0.7,0.2,1.2l0,0.1c0,0.1-0.1,0.3-0.1,0.4c-0.1,0.3-0.3,0.6-0.6,0.9c-0.8,0.9-1.3,1.3-2.2,1.3   c-0.4,0-0.7-0.2-1.5-0.9c-2.4-1.8-6.8-5.1-22.2-5.3c-15.4,0.2-19.8,3.6-22.2,5.3c-0.8,0.6-1.2,0.9-1.5,0.9c-0.9,0-1.4-0.4-2.2-1.3   c-0.3-0.3-0.5-0.6-0.6-0.9c-0.1-0.1-0.1-0.3-0.1-0.4l0-0.1c0-0.6,0.1-1.2,0.2-1.2C400,578.1,406.9,562.5,425.4,562.5L425.4,562.5   L425.4,562.5z M175,188.5c5.4-6.7,17.9-25,38.1-18.4c18.8,6.1,12.3,19.9,25.5,23.7c0.8,0.2,2,0.3,3-0.4h0c1-0.7,1.3-1.9,1.3-2.7   c0.4-13.7-14.7-11.9-14.7-31.6c0-21.2,21.2-27.4,29.3-30.5c8.1-3.1,9.3-13.1,9.3-13.1s1.2,10,9.3,13.1c8.1,3.1,29.3,9.3,29.3,30.5   c0,19.7-15.1,17.9-14.7,31.6c0.1,0.8,0.3,2,1.3,2.7c1,0.8,2.1,0.6,2.9,0.4c13.2-3.8,6.8-17.6,25.5-23.7   c20.1-6.5,32.6,11.7,38.1,18.4c5.5,6.7,15.3,4.8,15.3,4.8s-9.1,4.3-9.6,12.9c-0.4,8.7,0.2,30.7-20,37.3   c-18.7,6.1-21.6-8.9-34.6-4.2c-0.8,0.3-1.8,0.9-2.2,2.1l0,0c-0.4,1.1,0.1,2.2,0.5,2.9c7.7,11.4,18.8,1,30.4,16.9   c12.5,17.1-1,34.6-5.7,41.9c-4.7,7.3,0.1,16.1,0.1,16.1s-6.9-7.3-15.2-5.1c-8.4,2.2-29.2,9.6-41.6-7.5   c-11.6-15.9,1.7-23.3-6.7-34.2c-0.5-0.6-1.4-1.5-2.6-1.4c-1.2,0-2.1,0.8-2.7,1.4c-8.4,10.9,4.9,18.2-6.7,34.2   c-12.4,17.1-33.2,9.7-41.6,7.5c-8.4-2.3-15.2,5.1-15.2,5.1s4.8-8.8,0.1-16.1c-4.7-7.3-18.2-24.8-5.7-41.9   c11.6-15.9,22.7-5.5,30.4-16.9c0.4-0.7,0.9-1.8,0.5-2.9c-0.4-1.1-1.4-1.7-2.1-2.1c-12.9-4.7-15.8,10.3-34.6,4.2   c-20.1-6.5-19.5-28.6-20-37.3c-0.5-8.7-9.5-12.9-9.5-12.9S169.5,195.2,175,188.5L175,188.5z M386.3,864.2L356,879.7   c-3.5,1.9-7.8,0.6-9.4-2.7l-3.4-6.6c-1.7-3.3-0.1-7.3,3.4-9.2l30.4-15.4c3.5-1.8,7.8-0.6,9.4,2.6l3.3,6.6   C391.4,858.4,389.9,862.5,386.3,864.2z M507.7,870.4l-3.4,6.6c-1.7,3.3-5.9,4.5-9.4,2.7l-30.4-15.5c-3.6-1.8-5.1-5.9-3.4-9.1   l3.3-6.6c1.6-3.2,5.9-4.4,9.4-2.6l30.4,15.4C507.8,863.1,509.3,867.1,507.7,870.4L507.7,870.4z M510.7,850.1l-32.1-16.5   c0,0,75.2-168.8-53.1-168.8c-127.2,0-53.1,168.8-53.1,168.8l-32.1,16.5c0,0-30.6-53.2-30.6-123.4c0,0,2.5-107.3,115.9-107.3h0   c121,0,116,115.9,116,115.9C541.5,793.2,510.7,850.1,510.7,850.1L510.7,850.1z M469.8,585c0-27.6-20.1-35.3-20.1-35.3   c22.8-37.8,131.5,11.3,212.6,11.3l-45.9-178.6c5.4,3.2,12.6,6,21,6l0,0h0.2L701,585L469.8,585L469.8,585z M149.6,585L213,388.3h0.2   l0,0c8.4-0.1,15.5-2.9,21-6l-45.9,178.6c81.2,0,189.9-49.1,212.6-11.3c0,0-20.1,7.8-20.1,35.3L149.6,585L149.6,585z"></path>
</g>
<g>
	<path class="st0" d="M3473.6,289.3c0-162.8,251-173.3,251-3.6C3724.7,453,3473.6,449.5,3473.6,289.3z M3689,296.8   c0-164.3-179.6-155.8-179.6-18.9C3509.3,431.5,3689,440.5,3689,296.8z M1237.5,169c-1.3,2-1.5,5.4,0.3,7.5c0,0,22.8-0.4,26.8,8.2   c5.1,11.2,6.4,49.2,6.8,73.9v41.1c0,54.3-19.6,95-71.4,95c-54.6,0-72.5-37.9-72.5-95.3v-77.1c0-37.1,0.7-43.2,21.4-45l8.6-0.7   c1.7-1.2,1.6-5.4,0.3-7.5h-90.2c-1.3,2.1-1.5,6.3,0.3,7.5l8.9,0.7c20.7,1.8,21.4,7.9,21.4,45v84.3c0,42.5,8.9,68.6,27.9,84.3   c17.5,15,42.1,19.6,66.8,19.6c26.4,0,52.9-9.3,68.2-26.1c20-21.4,25-54.3,25-85.3v-40.4c0-20-0.4-61.1,5-72.8   c2.8-9.9,26.4-9.3,26.4-9.3c1.5-1.8,2-5.3,0.4-7.5H1237.5L1237.5,169z M1960.9,169c-1.5,2.1-1.7,6.1,0.4,7.9c0,0,22.5,0.6,22.5,7.5   c0,13.2-59.6,149.6-70.7,173.2c-17.9-40.7-67.9-169.6-68.6-173.2c0-5.8,22.1-7.5,22.1-7.5c2.1-1.8,1.9-5.7,0.4-7.9h-82.6   c-1.7,2.2-1.7,6.1,0.4,7.9c0,0,26.4-0.8,35.3,30c0,0,75.3,187.5,79.3,202.5c2.1,1.4,6.8,1.4,9.3,0c6.1-18.9,86.4-202.5,96.4-219.3   c4.6-7.5,10-11.8,18.6-12.5l10.7-0.7c1.5-1.5,1.7-5.7,0.3-7.9L1960.9,169L1960.9,169z M1614.3,169h-81.3c-1.6,2.1-1.4,6.1,0.6,7.9   c0,0,25.2,1.7,28.2,7.9c10.9,22.5,7.1,163.6,5.7,165.3c0,0-127.4-135.5-154.9-181.1h-58.4c-1.6,2.1-1.3,6.1,0.5,7.9   c0,0,22.6,1.7,28.2,9.3c11.3,12.1,8.6,187.8,3.2,202.5c-6.8,8.2-25.4,8.2-25.4,8.2c-1.8,1.8-1.8,5.6-0.3,7.9h80.9   c1.5-2.1,1.5-5.5-0.3-7.9c0,0-25.3-1-29.3-7.9c-9.2-12.4-6.4-151.8-6.4-151.8c0-10.7,0.4-18.9,1.8-23.2   c0,0,166.4,190.3,170.7,196.4c3.9,0,6.1-1.8,6.8-3.9c-1.1-9.3-3.8-178.6,4.3-221.4c1.2-6.6,25-8.2,25-8.2   C1615.7,175,1615.9,171.2,1614.3,169L1614.3,169z M1665.7,177.5c21.1,1.8,21.8,7.9,21.8,45.7v127.1c0,37.9-0.7,42.9-21.8,45.4   l-8.9,1.1c-1.7,1.7-1.6,5.8-0.3,7.9h91.3c1.3-2.2,1.5-6.7-0.3-7.9l-8.9-1.1c-21.1-2.5-21.8-7.5-21.8-45.4V223.2   c0-37.9,0.7-43.9,21.8-45.7l8.9-0.7c1.8-1.2,1.6-5.7,0.3-7.9h-91.2c-1.3,2.2-1.5,6.7,0.3,7.9L1665.7,177.5L1665.7,177.5z    M2739.7,177.5c21.1,1.8,21.8,7.9,21.8,45.7v127.1c0,37.9-0.7,42.9-21.8,45.4l-8.9,1.1c-1.7,1.7-1.6,5.8-0.3,7.9h91.3   c1.3-2.2,1.5-6.7-0.3-7.9l-8.9-1.1c-21.1-2.5-21.8-7.5-21.8-45.4V223.2c0-37.9,0.7-43.9,21.8-45.7l8.9-0.7c1.8-1.2,1.6-5.7,0.3-7.9   h-91.2c-1.3,2.2-1.5,6.7,0.3,7.9L2739.7,177.5L2739.7,177.5z M3133,178.6c10.7,1.8,16.1,3.6,28.2,27.1l42.1,82.1   c10.4,20,11.4,20.7,11.4,53.3c0,49-0.7,52.4-21.4,54.5l-11.1,1.1c-1.7,1.7-1.6,5.8-0.3,7.9h97.4c1.3-2,1.4-6.1-0.3-7.9l-13.6-1.1   c-19.3-1.4-21.4-4.8-21.4-54.5c0-39.3,0.7-40.5,16.8-67.3l22.5-38.9c17.9-30.7,28.6-53.6,47.1-56.4l10-1.8c2.1-1.8,2.2-5.6,0.4-7.9   h-69.9c-1.6,2.1-1.5,5.8,0.5,7.9c0,0,21.4,1.5,21.4,6.4c0,7.6-45.7,88.6-56.8,107.5c-13.9-24.6-51.4-97.7-51.4-106.8   c0-5.8,19.6-7.1,19.6-7.1c1.7-1.7,2-5.8,0.4-7.9h-82.2c-1.4,2.1-1.4,5.8,0.4,7.9L3133,178.6L3133,178.6z M3918.8,169h-156.3   c-1.3,2.2-1.5,6.7,0.3,7.9l5.7,0.7c20.7,2.5,21.4,7.5,21.4,45v128.6c0,37.5-0.7,42.1-21.4,44.6l-8.9,1.1c-1.7,1.7-1.6,5.8-0.3,7.9   h94.1c1.3-2.2,1.5-6.7-0.3-7.9l-12.1-1.1c-21.1-1.8-21.8-7.1-21.8-44.6v-49.6c0-9.3,1.1-9.6,11.8-9.6c0,0,46.7,0.7,51.8,1.8   c12.4,2.6,15,27.5,15,27.5c2,1.7,5.7,2,7.9,1.1v-72.8c-2.4-1-6.4-0.7-7.9,1c0,0-2.5,25.4-12.1,26.8c-4.5,0.6-54.6,2.1-54.6,2.1   c-10.7,0-11.8,0-11.8-9.6v-75.3c0-13.6,0-14.3,10.7-14.3c0,0,48.6,0.4,56.4,2.1c17.9,5,22.1,17.9,25,33.9c2.5,2.1,7.5,1.1,8.6-1.1   C3919.2,201.7,3918.9,185.1,3918.8,169L3918.8,169z M2515,401.8c-32.2,0-67.9-58.9-96.4-105c-1.8-2.9-3.6-6.4-1.8-8.6   c17.9-7.1,44.6-25.7,44.6-59.6c0-25-15-55.1-63.5-59.3c-0.1,0-76.6-2.4-105.5,1.4c-2.9,1.4-2.9,7.1-0.4,8.9l11.4,1.4   c14.6,1.8,15.7,7.9,15.7,41.8v128.2c0,37.5-0.7,42.1-21.4,44.6l-8.9,1.1c-1.7,2-1.6,5.9-0.3,7.9h89.2c1.3-2.1,1.5-6.4-0.3-7.9   l-7.5-1.1c-20.7-2.9-21.4-7.1-21.4-44.6v-45c0-7.5,0.7-7.9,16.8-7.9c14.3,0,19.2,4.1,25.4,11.4c22,26.2,40,98.9,108.9,98.9   c6.8,0,12.5-0.7,15.7-1.8C2517.1,405.4,2516.8,402.5,2515,401.8L2515,401.8z M2349.7,285.7c-1.1-1.4-1.1-5.4-1.1-11.8v-83.6   c0-10,1.1-11.4,23.2-11.4c73.6,0,77.3,108.5,7.1,108.5C2351.1,287.5,2350,286.1,2349.7,285.7z M2247.5,353.6   c-9.3,18.6-18.9,31.1-25.4,34.6c-7.9,3.9-70.7,11.6-88.9-2.9c-5.7-6.1-6.8-18.2-6.8-37.1v-50.4c0-9.3,1.1-9.6,11.8-9.6   c0,0,43,1.6,48.2,1.8c11.1,0.4,14.3,27.5,14.3,27.5c1.4,1.7,5.5,2,7.9,0.8v-72.8c-2.4-1.2-6.4-0.9-7.9,0.8c0,0-2.7,26.4-11.4,27.1   c-4.5,0.4-51.1,2.1-51.1,2.1c-10.7,0-11.8,0-11.8-10v-71.4c0-13.6,0-14.3,10.7-14.3c0,0,52.9,0.4,60.4,2.1   c18.6,4.6,21.8,17.1,27.1,33.9c1.8,2.1,7.5,1.4,8.9-0.7l-5.4-46.4h-158.8c-1.3,2.2-1.5,6.7,0.3,7.9l5.7,0.7   c21.1,2.5,21.8,7.9,21.8,45v128.6c0,37.5-1.8,42.9-22.1,44.6l-11.8,1.1c-1.7,1.7-1.6,5.8-0.3,7.9h177.9l15.6-48.6   C2255,352.9,2250,351.8,2247.5,353.6L2247.5,353.6z M2570.6,214c0-16.4,7.5-39.6,42.5-39.6c34.3,0,43.9,23.2,48.6,40.4   c1.8,2.1,7.5,1.1,8.9-1.1l-6.4-43.6c-9.7,0-21.9-6.8-45.7-6.8c-46.4,0-72.9,27.5-72.9,61.4c0,70.4,101.8,69.9,101.8,133.6   c0,21.4-14.6,41.1-44.6,41.1c-41.4,0-56.1-35-61.4-53.2c-1.4-2.1-6.8-1.4-8.6,1.1l9.6,50c6.8,3.9,25.7,13.2,55.7,13.2   c46.4,0,76.1-26.8,76.1-66.1C2674.2,269.5,2570.6,267.5,2570.6,214L2570.6,214z M2870.9,169l-11.4,42.1c1.4,2.9,6.4,4.6,9.3,2.5   c3.9-8.9,8.6-15.7,16.1-24.6c8.9-10.8,63.6-8.9,63.6-8.9c10.7,0,10.7,0.4,10.7,11.4v159.6c0,37.5-1.8,42.9-22.1,44.6l-12.9,1.1   c-2.3,1.5-2.3,5.7-1,7.9h98.4c1.3-2.2,1.5-6.7-0.3-7.9l-11.4-1.1c-20.7-2.1-21.4-7.1-21.4-44.6V192.2c0-11.8-0.4-12.1,10.4-12.1   c0,0,53.8-2.3,66.8,8.9c5,4.4,7.9,17.1,8.9,26.1c1.8,2.1,7.9,2.1,9.3-0.7l3.4-45.4L2870.9,169L2870.9,169z"></path>
</g>
<g>
	<path class="st1" d="M1752,839l-11.6,1.6c-3.1,3.1-3.2,10.2-0.7,13.7h144.4c2.5-3.5,2.4-10.6-0.7-13.7l-11.6-1.6   c-24.7-3.2-29.4-4.7-29.4-60.5V583c0-55.7,4.7-57.3,29.4-60.5l11.6-1.6c3.1-3.1,3.2-10.2,0.7-13.7h-144.4   c-2.5,3.5-2.4,10.6,0.7,13.7l11.6,1.6c24.7,3.2,29.4,4.7,29.4,60.5v195.6C1781.4,834.3,1776.7,835.9,1752,839z M3986.2,844.8   c-29,0-74-50.8-129.3-152.4c-2.1-3.2-3.2-7.4,0-8.9c25.8-10.5,63.1-34.7,63.1-83.1c0-79.8-82.9-90.3-107.5-92.8   c-0.8-0.1-104.6-2.2-159.6,2.9c-4.2,2.6-4.2,11-0.5,14.7l13.7,1.6c24.7,2.6,25.2,8.9,25.2,59.4v192.4c0,55.7-4.7,57.3-29.4,60.5   l-11.6,1.6c-4,3.1-3.5,10.2-0.8,13.7H3794c2.5-3.5,2.4-10.6-0.7-13.7l-11.6-1.6c-24.7-3.2-29.4-4.7-29.4-60.5v-67.3   c0-11,4.5-11.6,20.3-11.6c55.5,0,54.5,158.8,180,158.8c18.4,0,28.4-1.6,34.7-3.2C3988.8,852.7,3988.8,846.9,3986.2,844.8   L3986.2,844.8z M3777.5,679.7c-25.2,0-25.2-1.1-25.2-17.9V552.5c0-24.2,0.5-25.8,27.9-25.8C3869.3,526.8,3888.3,679.7,3777.5,679.7   L3777.5,679.7z M1332,776.5c-24.2,54.1-32.6,56.8-90.9,56.8c-42.1,0-50.5-4.2-56.8-11.6c-7.9-8.9-8.9-27.9-8.9-54.1V583   c0-54.7,4.7-56.2,29.4-59.9l11.6-2.1c3.5-2.2,3.7-10,0.9-13.7h-147.8c-2.7,3.7-2.3,11.5,0.8,13.7l14.7,2.1   c24.7,3.7,29.4,5.3,29.4,59.9v195.6c0,54.7-4.7,56.2-29.4,59.4l-15.8,2.6c-4,2.2-3.5,10-0.7,13.7h258.4l21.4-74.6   C1345.7,775.4,1337.3,773.8,1332,776.5L1332,776.5z M1669.3,776.5c-18.4,42.6-30,57.8-96.7,56.8c-44.2,0-53.1-4.2-59.4-11.6   c-7.9-8.9-8.9-27.9-8.9-54.7v-66.8c0-13.1,0.5-14.2,12.6-14.2h25.2c45.7,0,54.7,1.1,58.4,23.1l3.7,21c3.6,2.7,11.4,3.1,15.2,0.8   V620.4c-3.8-2.6-11.6-2.1-15.2,1l-3.7,17.9c-3.7,22.6-12.6,23.1-58.4,23.1h-25.2c-12.1,0-12.6-0.5-12.6-14.2v-88.8   c0-30,0-31,22.6-31c0,0,65.2,1.1,77.3,4.7c16.8,4.2,24.7,17.3,33.1,47.8c4.2,3.2,14.7,2.1,16.8-2.1l-8.1-71.5h-241.3   c-2.5,3.5-2.4,10.6,0.7,13.7l8.4,1.1c24.7,3.7,29.4,5.3,29.4,61v195.6c0,55.7-4.7,57.3-29.4,59.9l-19.4,2.1   c-3.1,3.1-3.2,10.2-0.7,13.7h271.1l21.3-74.6C1683,774.4,1674.1,772.8,1669.3,776.5L1669.3,776.5z M2277.8,765.4   c-2.6-4.7-11-6.8-15.8-2.1c-46.2,124.9-247.6,102.2-247.6-88.3c0-192.8,215.4-190.8,236-78.3c3.7,3.7,13.1,3.2,16.8-1.1l-7.4-82   c-154.1-44.6-317,11.3-317,169.3c0,162.6,177.9,210.6,309.9,161.5L2277.8,765.4L2277.8,765.4z M2600.9,776.5   c-18.4,42.6-30,57.8-96.7,56.8c-44.2,0-53.1-4.2-59.4-11.6c-7.9-8.9-8.9-27.9-8.9-54.7v-66.8c0-13.1,0.5-14.2,12.6-14.2h25.2   c45.7,0,54.7,1.1,58.4,23.1l3.7,21c3.6,2.7,11.4,3.1,15.2,0.8V620.4c-3.8-2.6-11.6-2.1-15.2,1l-3.7,17.9   c-3.7,22.6-12.6,23.1-58.4,23.1h-25.2c-12.1,0-12.6-0.5-12.6-14.2v-88.8c0-30,0-31,22.6-31c0,0,65.2,1.1,77.3,4.7   c16.8,4.2,24.7,17.3,33.1,47.8c4.2,3.2,14.7,2.1,16.8-2.1l-8.1-71.5h-241.3c-2.5,3.5-2.4,10.6,0.7,13.7l8.4,1.1   c24.7,3.7,29.4,5.3,29.4,61v195.6c0,55.7-4.7,57.3-29.4,59.9l-19.4,2.1c-3.1,3.1-3.2,10.2-0.7,13.7h271.1l21.3-74.6   C2614.6,774.4,2605.7,772.8,2600.9,776.5L2600.9,776.5z M2737.7,575.1c0-67.8,105.8-83.3,130.4,7.4c4.7,3.7,14.2,3.2,16.8-1.6   l-11-71c-71.1-23.4-187.7-15.1-187.7,85.2c0,114.8,150.3,93.1,150.3,190.3c0,77.3-119.7,73.6-151.9-26.8   c-4.2-3.7-13.1-3.2-16.3,2.1l15.8,79.9c27.7,26.9,208.2,51.3,208.2-80.4C2892.2,641.9,2737.7,656.2,2737.7,575.1z M2955.1,507.3   l-17.6,65.7c2.1,5.3,13.1,6.8,16.8,3.7c19.4-42.6,33.6-48.4,82-48.4h29.4c13.7,0,14.2,1.1,14.2,23.1v227.1   c0,55.7-4.7,57.3-29.4,59.4l-22.1,2.6c-3.1,2.2-3.2,10-0.7,13.7H3190c2.5-3.5,2.4-10.6-0.7-13.7l-18.9-2.1   c-24.7-2.6-29.4-4.2-29.4-59.9V551.5c0-22.1,0.5-23.1,14.2-23.1h30c56.2,0,66.2,10,73.1,51c4.7,3.7,13.7,2.6,16.3-1.6l5.3-70.4   L2955.1,507.3L2955.1,507.3z M3594.2,776.5c-18.4,42.6-30,57.8-96.7,56.8c-44.2,0-53.1-4.2-59.4-11.6c-7.9-8.9-8.9-27.9-8.9-54.7   v-66.8c0-13.1,0.5-14.2,12.6-14.2h25.2c45.7,0,54.7,1.1,58.4,23.1l3.7,21c3.6,2.7,11.4,3.1,15.2,0.8V620.4   c-3.8-2.6-11.6-2.1-15.2,1l-3.7,17.9c-3.7,22.6-12.6,23.1-58.4,23.1h-25.2c-12.1,0-12.6-0.5-12.6-14.2v-88.8c0-30,0-31,22.6-31   h35.2c14.2,0,30,1.1,42.1,4.7c16.8,4.2,24.7,17.3,33.1,47.8c4.2,3.2,14.7,2.1,16.8-2.1l-8.1-71.5h-241.3   c-2.5,3.5-2.4,10.6,0.7,13.7l8.4,1.1c24.7,3.7,29.4,5.3,29.4,61v195.6c0,55.7-4.7,57.3-29.4,59.9l-19.4,2.1   c-3.1,3.1-3.2,10.2-0.7,13.7h271.1l21.3-74.6C3607.9,774.4,3598.9,772.8,3594.2,776.5L3594.2,776.5z"></path>
</g>
</svg>