<svg xmlns="http://www.w3.org/2000/svg" viewBox="0 0 351 78"><defs><style>.a{fill:none;}.b{fill:#092869;}.c{fill:#feb325;}</style></defs><title>Wolve</title><rect class="a" width="351" height="78"></rect><path class="b" d="M102.66,7.16V13.1c0,2,.74,3,2.52,3s2.45-1.48,2.45-2.82V7.16h1.26v6.16A3.46,3.46,0,0,1,105.18,17c-2.74,0-3.86-1.48-3.86-3.93V7.16h1.34"></path><path class="b" d="M120.32,16.88h-1c-2.15-2.52-5.79-6.9-6.3-7.79h0v7.79h-1.12V7.16h1c2.15,2.52,5.72,6.83,6.38,7.79h0V7.16h1.12v9.72"></path><rect class="b" x="123.29" y="7.16" width="1.34" height="9.72"></rect><path class="b" d="M130.12,16.88l-3.64-9.65L127.89,7c1,2.67,1.86,5.34,2.82,8.31h0c1-3,2-5.64,3-8.31l1.19.15L131,16.88h-.89"></path><polyline class="b" points="141.48 8.12 137.99 8.12 137.99 11.24 141.4 11.24 141.4 12.21 137.99 12.21 137.99 15.92 142.07 15.92 142.07 16.88 136.65 16.88 136.65 7.16 141.48 7.16 141.48 8.12"></polyline><path class="b" d="M144.3,16.88h1.33v-4H147l2.23,4.23,1.34-.44-2.45-4.16a3.07,3.07,0,0,0,1.63-2.82c0-1.7-1.26-2.52-2.82-2.52h-2.82v9.72m1.48-8.76h1.19a1.48,1.48,0,0,1,1.63,1.64,1.88,1.88,0,0,1-2.08,2.08h-.74Z"></path><path class="b" d="M157.28,8.64a2.85,2.85,0,0,0-1.7-.66,1.33,1.33,0,0,0-1.49,1.33c0,.67.6,1.19,1.86,2.15S158,13.32,158,14.58c0,1.56-1.49,2.52-3.05,2.52a4.1,4.1,0,0,1-2.74-1l.59-.82a3.8,3.8,0,0,0,2.15.82,1.54,1.54,0,0,0,1.71-1.64c0-1.18-1.48-2-2.23-2.59a3.18,3.18,0,0,1-1.7-2.6,2.55,2.55,0,0,1,2.82-2.3,3.06,3.06,0,0,1,2.37,1l-.67.74"></path><rect class="b" x="160.7" y="7.16" width="1.34" height="9.72"></rect><polyline class="b" points="167.08 16.88 167.08 8.12 163.97 8.12 163.97 7.16 171.53 7.16 171.53 8.12 168.42 8.12 168.42 16.88 167.08 16.88"></polyline><polyline class="b" points="175.25 16.88 175.25 12.65 172.28 7.31 173.76 7.01 176.14 11.61 178.66 7.01 179.85 7.16 176.58 12.65 176.58 16.88 175.25 16.88"></polyline><path class="b" d="M190.76,17c3,0,4.9-2.3,4.9-5.19a4.9,4.9,0,0,0-9.8,0c0,2.89,1.86,5.19,4.9,5.19m0-1c-2.53,0-3.42-2.3-3.42-4.23s1-3.94,3.42-3.94,3.41,2.08,3.41,3.94S193.28,16.07,190.76,16.07Z"></path><polyline class="b" points="203 8.12 199.52 8.12 199.52 11.84 202.93 11.84 202.93 12.8 199.52 12.8 199.52 16.88 198.18 16.88 198.18 7.16 203 7.16 203 8.12"></polyline><polyline class="b" points="66.14 55.11 92.56 75.52 92.56 2.48 40.39 2.48 40.39 75.52 66.14 55.11"></polyline><path class="b" d="M38.09,22.82c-2.38,2.45-8.32,9.57-11.51,11.88-1.26,1-2.59,1-4.82.74-3-.45-5.86-8.09-7.57-12.92s-3.34-18.4-3.34-18.4L0,12.73a7.16,7.16,0,0,0,.15,1.85c1.41,7.72,2.6,12,5.34,17.22,3.64,6.9,6.83,11.36,12,11.5,6.24.23,9.58-4.08,13.07-8.53,3-3.86,6.9-10.47,9.79-14.18V20.3c-.66.81-1.41,1.7-2.22,2.52"></path><path class="c" d="M48.63,27.27c1.85,4,4.38,8.24,4.38,8.24,3.34,4.16,5.12,6.61,10.39,7.2,7.27.89,11.5-6,14.25-9.72C79.58,30.32,88,13.17,92.56,6.79V4.34c-3.85,4.45-15.73,24.94-18.62,28-3.2,3.34-5.72,4.08-9.5-.15-3-3.34-6.46-10.24-8.76-16.1-1.93-5.13-6.68-3.2-8.46-2.16-1.41.82-4.09,3.57-6.76,6.46v.3c.74-.67,1-1.26,1.78-1.56,3.42-1.41,3.71,2.3,6.39,8.16"></path><path class="b" d="M115.28,23.41C116.91,28.76,118.47,34,120.1,40h.07c1.64-6.09,3.2-11.51,4.83-16.92l2.23.37-6.09,19.59h-2.45c-1.56-5.27-3.12-10.46-4.68-16.25h-.07c-1.56,5.79-3.12,11.06-4.75,16.25h-2.45L101,23.71l2.6-.59c1.56,5.41,3.12,10.83,4.6,16.92h.08c1.55-6,3.19-11.28,4.82-16.63h2.23"></path><path class="b" d="M138.88,43.45c6.08,0,9.87-4.67,9.87-10.54a9.87,9.87,0,0,0-19.74,0c0,5.87,3.78,10.54,9.87,10.54m0-2c-5.12,0-6.83-4.68-6.83-8.54,0-3.71,2-7.86,6.83-7.86s6.83,4.23,6.83,7.86C145.71,36.77,144,41.45,138.88,41.45Z"></path><polyline class="b" points="152.98 23.41 155.73 23.41 155.73 41.15 163.97 41.15 163.97 43.16 152.98 43.16 152.98 23.41"></polyline><path class="b" d="M170.79,43.16l-7.27-19.52,2.82-.52c1.93,5.34,3.78,10.76,5.71,16.84h.08c2-6.08,4-11.43,6-16.84l2.45.37-7.87,19.67h-1.93"></path><polyline class="b" points="192.99 25.42 186.01 25.42 186.01 31.73 192.84 31.73 192.84 33.73 186.01 33.73 186.01 41.15 194.17 41.15 194.17 43.16 183.26 43.16 183.26 23.41 192.99 23.41 192.99 25.42"></polyline><path class="b" d="M197.81,43.16h2.75V35h2.89L208,43.53l2.74-.82-4.9-8.39a6.3,6.3,0,0,0,3.27-5.71c0-3.41-2.52-5.05-5.71-5.05h-5.65v19.6m2.83-17.74h2.3a3,3,0,0,1,3.34,3.34c0,1.63-.67,4.23-4.16,4.23h-1.56V25.42Z"></path><polyline class="b" points="229.13 43.16 226.38 43.16 226.38 33.28 216.74 33.28 216.74 43.16 214.06 43.16 214.06 23.41 216.74 23.41 216.74 31.36 226.38 31.36 226.38 23.41 229.13 23.41 229.13 43.16"></polyline><path class="b" d="M240,23.41l-8,19.75h2.67l2.08-5.79h7.5l2,5.79h3.12L242,23.41h-2m-2.53,12c1-2.74,2.08-5.49,3.12-9h.07c1,3.57,1.93,6.31,2.9,9Z"></path><path class="b" d="M273.59,43.16h-2.75V27.05h-.07c-.82,2.3-5.27,11-7.94,16h-1.12c-2.45-5-6.53-13.43-7.27-16h-.07v16h-2.23V23.41H255c2.53,5.27,5,10.47,7.57,16,2.82-5.57,5.57-10.84,8.32-16h2.59V43.16"></path><path class="b" d="M281.6,43.16h-2.74V23.41h5c4.16,0,6.75,1.86,6.75,5.72,0,3.34-2.82,6.31-7.27,6.31h-.89V33.66h.89c2.67-.15,4.31-1.56,4.31-4.46,0-2.15-1.19-3.71-4.16-3.71H281.6V43.16"></path><polyline class="b" points="298.68 43.16 298.68 25.42 292.37 25.42 292.37 23.41 307.73 23.41 307.73 25.42 301.42 25.42 301.42 43.16 298.68 43.16"></polyline><path class="b" d="M319.6,43.45c6.09,0,9.88-4.67,9.88-10.54a9.88,9.88,0,0,0-19.75,0c.08,5.87,3.86,10.54,9.87,10.54m0-2c-5.12,0-6.82-4.68-6.82-8.54,0-3.71,2-7.86,6.82-7.86s6.83,4.23,6.83,7.86C326.51,36.77,324.73,41.45,319.6,41.45Z"></path><path class="b" d="M351,43.16h-2.15C344.54,38,337.2,29.2,336,27.5h-.08V43.16h-2.22V23.41h2c4.31,5.12,11.58,13.73,12.91,15.74h.08V23.41h2.23V43.16"></path></svg>