<svg xmlns="http://www.w3.org/2000/svg" xmlns:xlink="http://www.w3.org/1999/xlink" id="Layer_1" x="0px" y="0px" viewBox="0 0 261.82 75.08" style="enable-background:new 0 0 261.82 75.08;" xml:space="preserve"> <style type="text/css"> .st0{fill:#EF7E00;} .st1{fill:#5D514C;} </style> <g> <g> <path class="st0" d="M38.91,75.08c-2.66,0-5.4-1.82-5.4-5.02c0-3.27,2.58-5.17,5.4-5.17c2.74,0,5.4,1.9,5.4,5.09 C44.3,73.11,41.49,75.08,38.91,75.08z"></path> <path class="st0" d="M55.55,75.08c-2.66,0-5.4-1.82-5.4-5.02c0-3.27,2.58-5.17,5.4-5.17c2.74,0,5.4,1.9,5.4,5.09 C60.95,73.11,58.13,75.08,55.55,75.08z"></path> <path class="st0" d="M72.19,75.08c-2.66,0-5.4-1.82-5.4-5.02c0-3.27,2.58-5.17,5.4-5.17c2.74,0,5.4,1.9,5.4,5.09 C77.59,73.11,74.78,75.08,72.19,75.08z"></path> </g> <g> <path class="st0" d="M30.25,54.34H2.05C0.53,54.34,0,53.96,0,52.29V3.65c0-1.21,0.53-1.9,1.75-1.9H30.4c1.22,0,1.6,0.46,1.6,1.29 c0,0.15,0,0.3,0,0.46l-0.53,4.56c-0.15,1.37-0.99,1.6-2.58,1.6H9.8v13.76h17.56c1.44,0,1.9,0.61,1.9,1.67v4.33 c0,1.29-0.53,1.82-1.82,1.82H9.8v15.2h20.37c1.29,0,1.9,0.53,1.9,1.75v4.33C32.07,53.73,31.54,54.34,30.25,54.34z"></path> <path class="st0" d="M69.69,54.34h-4.94c-1.22,0-1.75-0.61-1.82-1.52l-0.15-2.05c-2.13,2.43-6.38,4.48-10.34,4.48 c-11.02,0-16.04-8.74-16.04-18.92c0-10.64,5.93-19.91,16.65-19.91c3.42,0,6.99,1.37,9.12,3.57V2.89c0-1.37,0.38-1.9,1.6-2.05 l5.62-0.76c0.08,0,0.68-0.08,0.76-0.08c0.91,0,1.22,0.38,1.22,1.52v50.92C71.37,53.73,70.61,54.34,69.69,54.34z M62.17,27.51 c-1.52-2.05-4.41-3.72-7.3-3.72c-6.16,0-8.89,5.78-8.89,12.01c0,6.23,2.28,12.01,8.44,12.01c2.81,0,6.23-1.9,7.75-3.8V27.51z"></path> <path class="st0" d="M110.2,54.34h-4.86c-0.99,0-1.75-0.53-1.82-1.52l-0.08-1.9c-3.5,2.81-7.68,4.33-12.08,4.33 c-8.51,0-12.01-5.4-12.01-13.6V19.23c0-1.29,0.76-1.75,1.98-1.75h5.32c1.22,0,1.9,0.38,1.9,1.75v20.83c0,4.18,1.06,7.07,5.62,7.07 c2.89,0,6.54-1.6,8.82-3.65V19.23c0-1.29,0.68-1.75,1.9-1.75h5.4c1.22,0,1.9,0.38,1.9,1.75v32.99 C112.18,53.81,111.72,54.34,110.2,54.34z"></path> <path class="st1" d="M166.06,58.22l-1.22,4.18c-0.3,0.99-0.76,1.67-1.6,1.67c-0.61,0-2.13-0.3-2.96-0.53 c-4.64-1.37-8.44-4.33-11.48-6.31c-1.98-1.29-3.27-2.13-6.16-2.13c-1.14,0-2.2,0-3.27-0.08c-13.83-0.84-20.75-12.24-20.75-26.75 c0-15.2,8.28-27.51,23.41-27.51c15.66,0,22.88,12.31,22.88,26.98c0,10.49-3.8,19.46-11.32,24.09c2.74,1.52,6.84,3.27,10.26,4.11 c1.75,0.46,2.28,0.84,2.28,1.75C166.14,57.84,166.14,57.99,166.06,58.22z M141.82,9.04c-8.28,0-12.69,8.29-12.69,18.93 c0,11.25,3.8,19.15,12.69,19.15c8.36,0,12.62-8.13,12.62-19.15C154.43,16.57,150.71,9.04,141.82,9.04z"></path> <path class="st1" d="M201.78,54.34h-4.86c-0.99,0-1.75-0.53-1.82-1.52l-0.08-1.9c-3.5,2.81-7.68,4.33-12.09,4.33 c-8.51,0-12.01-5.4-12.01-13.6V19.23c0-1.29,0.76-1.75,1.98-1.75h5.32c1.22,0,1.9,0.38,1.9,1.75v20.83c0,4.18,1.06,7.07,5.62,7.07 c2.89,0,6.54-1.6,8.82-3.65V19.23c0-1.29,0.68-1.75,1.9-1.75h5.4c1.22,0,1.9,0.38,1.9,1.75v32.99 C203.76,53.81,203.3,54.34,201.78,54.34z"></path> <path class="st1" d="M246.01,54.34h-3.65c-3.95,0-5.7-1.9-6.23-4.48h-0.15c-1.9,2.81-6.84,5.4-11.02,5.4 c-10.72,0-15.58-8.82-15.58-18.7c0-13.15,7.9-20.06,16.42-20.06c4.03,0,7.83,1.82,9.73,4.41l0.15-2.05 c0.07-0.84,0.68-1.37,1.6-1.37h5.32c0.99,0,1.6,0.53,1.6,1.67v26.37c0,1.06,0.15,1.82,0.46,2.2c0.23,0.23,0.53,0.3,0.91,0.3h0.61 c0.91,0,1.37,0.3,1.37,1.29v3.57C247.53,53.81,246.93,54.34,246.01,54.34z M234.99,27.89c-1.52-2.2-4.63-3.88-7.52-3.88 c-4.64,0-8.59,3.95-8.59,11.93c0,6.38,2.43,11.78,8.06,11.78c3.72,0,6.92-2.81,8.06-5.17V27.89z"></path> <path class="st1" d="M260.15,54.34h-5.78c-1.06,0-1.75-0.53-1.75-1.82V2.66c0-1.29,0.53-1.67,1.52-1.82l5.47-0.76 c0.15,0,0.38-0.08,0.53-0.08c0.91,0,1.67,0.46,1.67,1.67v50.77C261.82,53.73,261.21,54.34,260.15,54.34z"></path> </g> </g> </svg>