<?xml version="1.0" encoding="utf-8"?>
<!-- Generator: Adobe Illustrator 24.2.3, SVG Export Plug-In . SVG Version: 6.00 Build 0)  -->
<svg version="1.1" id="Layer_1" xmlns="http://www.w3.org/2000/svg" xmlns:xlink="http://www.w3.org/1999/xlink" x="0px" y="0px"
	 width="236" height="68" viewBox="0 0 236.434 67.803" style="enable-background:new 0 0 236.434 67.803;" xml:space="preserve">
<style type="text/css">
	.st0{clip-path:url(#SVGID_2_);}
	.st1{fill:#E73838;}
	.st2{clip-path:url(#SVGID_4_);}
	.st3{clip-path:url(#SVGID_6_);}
	.st4{fill:#00A7A2;}
	.st5{clip-path:url(#SVGID_8_);}
	.st6{clip-path:url(#SVGID_10_);}
	.st7{fill:#1F3355;}
	.st8{clip-path:url(#SVGID_12_);}
	.st9{clip-path:url(#SVGID_14_);}
	.st10{fill:#F8B100;}
	.st11{clip-path:url(#SVGID_16_);}
	.st12{clip-path:url(#SVGID_18_);}
	.st13{fill:url(#SVGID_19_);}
	.st14{clip-path:url(#SVGID_21_);}
	.st15{clip-path:url(#SVGID_23_);}
	.st16{clip-path:url(#SVGID_25_);}
	.st17{clip-path:url(#SVGID_27_);}
	.st18{fill:url(#SVGID_28_);}
	.st19{clip-path:url(#SVGID_30_);}
	.st20{fill:#FFD210;}
	.st21{clip-path:url(#SVGID_32_);}
	.st22{clip-path:url(#SVGID_34_);}
	.st23{clip-path:url(#SVGID_36_);}
	.st24{clip-path:url(#SVGID_38_);}
	.st25{fill:#A3B51C;}
	.st26{clip-path:url(#SVGID_40_);}
	.st27{fill:url(#SVGID_41_);}
</style>
<title>Qualifi</title>
<g>
	<g>
		<g>
			<defs>
				<rect id="SVGID_1_" x="0.307" y="1.369" width="49.04" height="48.46"/>
			</defs>
			<clipPath id="SVGID_2_">
				<use xlink:href="#SVGID_1_"  style="overflow:visible;"/>
			</clipPath>
			<g class="st0">
				<path class="st1" d="M14.007,11.549c-1.86-4.4-0.7-7.44,2.55-8.68l1.66-0.59c-3.52,1.05-4.79,4.08-2.91,8.49
					c2.64,6.26,10.77,13,19,16.15l-0.59,1.47c-2.494-0.975-4.888-2.187-7.15-3.62l0.1-0.1c-5.77-3.53-10.67-8.42-12.63-13.12"/>
			</g>
		</g>
		<g>
			<defs>
				<rect id="SVGID_3_" x="0.307" y="1.369" width="49.04" height="48.46"/>
			</defs>
			<clipPath id="SVGID_4_">
				<use xlink:href="#SVGID_3_"  style="overflow:visible;"/>
			</clipPath>
			<g class="st2">
				<path class="st1" d="M46.027,29.659c0-0.49,0.09-0.88,0.09-1.37c2.186-0.74,3.569-2.895,3.33-5.19l0.1,1.67
					C49.543,26.985,48.127,28.952,46.027,29.659"/>
			</g>
		</g>
		<g>
			<defs>
				<rect id="SVGID_5_" x="0.307" y="1.369" width="49.04" height="48.46"/>
			</defs>
			<clipPath id="SVGID_6_">
				<use xlink:href="#SVGID_5_"  style="overflow:visible;"/>
			</clipPath>
			<g class="st3">
				<path class="st4" d="M9.507,14.869c-1.76-4.1-1.2-7.14,1.27-8.9l0.3-0.19c1.237-0.863,2.545-1.619,3.91-2.26l1.67-0.65
					c-3.23,1.27-4.41,4.31-2.55,8.71c2,4.6,6.86,9.59,12.53,13.22l-0.1,0.09c-1,1.57-2.05,3-3.13,4.6
					c-1.548-0.961-3.019-2.041-4.4-3.23C14.597,22.809,11.177,18.699,9.507,14.869"/>
			</g>
		</g>
		<g>
			<defs>
				<rect id="SVGID_7_" x="0.307" y="1.369" width="49.04" height="48.46"/>
			</defs>
			<clipPath id="SVGID_8_">
				<use xlink:href="#SVGID_7_"  style="overflow:visible;"/>
			</clipPath>
			<g class="st5">
				<path class="st4" d="M39.167,35.439c0.659-1.72,1.184-3.489,1.57-5.29c1.745,0.215,3.516,0.048,5.19-0.49
					c2.078-0.711,3.45-2.695,3.38-4.89v1.76c-0.11,1.46-0.324,2.91-0.64,4.34l-0.1,0.39c-0.88,3.13-4.31,4.7-9.4,4.21"/>
			</g>
		</g>
		<g>
			<defs>
				<rect id="SVGID_9_" x="0.307" y="1.369" width="49.04" height="48.46"/>
			</defs>
			<clipPath id="SVGID_10_">
				<use xlink:href="#SVGID_9_"  style="overflow:visible;"/>
			</clipPath>
			<g class="st6">
				<path class="st7" d="M7.457,16.739c-1.67-3.82-1.28-6.85,0.68-8.62c0.78-0.68,1.76-1.46,2.64-2.15
					c-2.35,1.67-2.93,4.8-1.27,8.81s5.09,7.93,9.5,11.45c-0.59,0.79-1.18,1.57-1.76,2.26C12.737,24.959,9.117,20.749,7.457,16.739"
					/>
			</g>
		</g>
		<g>
			<defs>
				<rect id="SVGID_11_" x="0.307" y="1.369" width="49.04" height="48.46"/>
			</defs>
			<clipPath id="SVGID_12_">
				<use xlink:href="#SVGID_11_"  style="overflow:visible;"/>
			</clipPath>
			<g class="st8">
				<path class="st7" d="M41.717,37.979L41.717,37.979c-2.735,0.29-5.5,0.024-8.13-0.78c0.482-0.821,0.91-1.673,1.28-2.55
					c1.41,0.378,2.848,0.642,4.3,0.79c5.09,0.49,8.52-1.08,9.4-4.21c-0.29,1-0.78,2.25-1.08,3.13
					C46.607,36.419,44.557,37.689,41.717,37.979"/>
			</g>
		</g>
		<g>
			<defs>
				<rect id="SVGID_13_" x="0.307" y="1.369" width="49.04" height="48.46"/>
			</defs>
			<clipPath id="SVGID_14_">
				<use xlink:href="#SVGID_13_"  style="overflow:visible;"/>
			</clipPath>
			<g class="st9">
				<path class="st10" d="M4.807,19.969c-1.47-3.43-1.37-6.07,0-8c0.889-1.158,1.837-2.27,2.84-3.33l0.49-0.49
					c-2,1.86-2.35,4.8-0.68,8.62c1.66,4,5.28,8.22,9.79,11.75c2.816,2.325,5.905,4.296,9.2,5.87c-0.79,1.17-1.47,2.35-2.25,3.43
					C15.477,33.669,7.647,26.529,4.807,19.969"/>
			</g>
		</g>
		<g>
			<defs>
				<rect id="SVGID_15_" x="0.307" y="1.369" width="49.04" height="48.46"/>
			</defs>
			<clipPath id="SVGID_16_">
				<use xlink:href="#SVGID_15_"  style="overflow:visible;"/>
			</clipPath>
			<g class="st11">
				<path class="st10" d="M41.717,38.079L41.717,38.079c2.84-0.39,4.89-1.66,5.68-3.62l-0.3,0.68c-0.6,1.307-1.32,2.556-2.15,3.73
					c-1.335,1.572-3.235,2.556-5.29,2.74c0.76-1.129,1.449-2.304,2.06-3.52"/>
			</g>
		</g>
		<g>
			<defs>
				<path id="SVGID_17_" d="M4.717,12.139c-0.4,0.59-0.89,1.37-1.28,2.05c-1.07,1.86-1.07,4.41,0.3,7.54c1.86,4.41,6,9,11.06,12.83
					l0,0c3.203,2.426,6.684,4.46,10.37,6.06c0.422-0.475,0.784-0.998,1.08-1.56l0.1-0.1c-0.78-0.298-1.533-0.663-2.25-1.09
					c-8.62-4.2-16.45-11.34-19.29-17.9c-1.47-3.43-1.37-6.07,0-8L4.717,12.139z"/>
			</defs>
			<clipPath id="SVGID_18_">
				<use xlink:href="#SVGID_17_"  style="overflow:visible;"/>
			</clipPath>
			<g class="st12">
				
					<linearGradient id="SVGID_19_" gradientUnits="userSpaceOnUse" x1="-113.4152" y1="639.8179" x2="-112.4352" y2="639.8179" gradientTransform="matrix(5.42 8.66 -8.94 5.65 6340.0767 -2620.9045)">
					<stop  offset="0" style="stop-color:#EF7F85"/>
					<stop  offset="1" style="stop-color:#E51F24"/>
				</linearGradient>
				<polygon class="st13" points="-10.463,20.069 9.217,51.489 39.267,32.499 19.597,1.079 				"/>
			</g>
		</g>
		<g>
			<defs>
				<rect id="SVGID_20_" x="0.307" y="1.369" width="49.04" height="48.46"/>
			</defs>
			<clipPath id="SVGID_21_">
				<use xlink:href="#SVGID_20_"  style="overflow:visible;"/>
			</clipPath>
			<g class="st14">
				<path class="st4" d="M2.857,23.299c-1.18-2.84-1.28-5.19-0.49-6.95c0.29-0.69,0.78-1.47,1.07-2.16
					c-1.07,1.86-1.07,4.41,0.3,7.54c1.86,4.41,6,9,11.06,12.83l0,0c-0.3,0.48-0.69,1-1,1.46c-5.09-3.81-9.1-8.42-11-12.72"/>
			</g>
		</g>
		<g>
			<defs>
				<rect id="SVGID_22_" x="0.307" y="1.369" width="49.04" height="48.46"/>
			</defs>
			<clipPath id="SVGID_23_">
				<use xlink:href="#SVGID_22_"  style="overflow:visible;"/>
			</clipPath>
			<g class="st15">
				<path class="st4" d="M37.307,44.539c-2.462,0.264-4.952,0.064-7.34-0.59c0.39-0.39,0.78-0.88,1.18-1.37
					c5.87,1.37,10.16,0.59,12.23-1.71c-0.49,0.59-1.17,1.27-1.66,1.76c-1.216,1.125-2.763,1.826-4.41,2V44.539z"/>
			</g>
		</g>
		<g>
			<defs>
				<rect id="SVGID_24_" x="0.307" y="1.369" width="49.04" height="48.46"/>
			</defs>
			<clipPath id="SVGID_25_">
				<use xlink:href="#SVGID_24_"  style="overflow:visible;"/>
			</clipPath>
			<g class="st16">
				<path class="st7" d="M2.457,23.979c-1.17-2.74-1.27-5-0.58-6.75l0.39-1c-0.79,1.76-0.69,4.11,0.49,7
					c1.86,4.31,5.87,8.91,11,12.73c2.565,1.965,5.318,3.67,8.22,5.09c-0.215,0.185-0.382,0.418-0.49,0.68
					c-2.314-1.13-4.537-2.437-6.65-3.91v-0.1c-5.58-3.92-10.28-9-12.34-13.71"/>
			</g>
		</g>
		<g>
			<defs>
				<path id="SVGID_26_" d="M37.307,44.539L37.307,44.539l-0.58,0.59c1.536-0.185,2.991-0.795,4.2-1.76l0.69-0.59
					C40.367,43.747,38.877,44.356,37.307,44.539 M41.617,42.779l0.2-0.2L41.617,42.779z"/>
			</defs>
			<clipPath id="SVGID_27_">
				<use xlink:href="#SVGID_26_"  style="overflow:visible;"/>
			</clipPath>
			<g class="st17">
				
					<linearGradient id="SVGID_28_" gradientUnits="userSpaceOnUse" x1="-133.6598" y1="670.7116" x2="-132.6798" y2="670.7116" gradientTransform="matrix(-5.08 0.08 0.08 -5.02 -693.5174 3421.5166)">
					<stop  offset="0" style="stop-color:#D2DA4E"/>
					<stop  offset="1" style="stop-color:#80AA2A"/>
				</linearGradient>
				<polygon class="st18" points="41.817,42.479 36.727,42.579 36.727,45.219 41.817,45.129 				"/>
			</g>
		</g>
		<g>
			<defs>
				<rect id="SVGID_29_" x="0.307" y="1.369" width="49.04" height="48.46"/>
			</defs>
			<clipPath id="SVGID_30_">
				<use xlink:href="#SVGID_29_"  style="overflow:visible;"/>
			</clipPath>
			<g class="st19">
				<path class="st20" d="M1.577,26.719c-0.819-1.738-1.124-3.674-0.88-5.58c0.3-1,0.69-2.35,1-3.32l0.29-0.69
					c-0.68,1.74-0.6,4.01,0.57,6.74c2.06,4.69,6.66,9.78,12.34,13.7v0.1c-0.49,0.78-1,1.47-1.47,2.15
					c-5.48-3.72-10-8.52-11.85-13.12"/>
			</g>
		</g>
		<g>
			<defs>
				<rect id="SVGID_31_" x="0.307" y="1.369" width="49.04" height="48.46"/>
			</defs>
			<clipPath id="SVGID_32_">
				<use xlink:href="#SVGID_31_"  style="overflow:visible;"/>
			</clipPath>
			<g class="st21">
				<path class="st20" d="M36.727,45.129c1.536-0.185,2.991-0.795,4.2-1.76l-0.48,0.48c-0.908,0.727-1.856,1.401-2.84,2.02
					c-1.002,0.634-2.126,1.05-3.3,1.22l0,0c-1.763,0.217-3.549,0.149-5.29-0.2c0.79-0.587,1.514-1.258,2.16-2
					c1.839,0.349,3.721,0.416,5.58,0.2"/>
			</g>
		</g>
		<g>
			<defs>
				<rect id="SVGID_33_" x="0.307" y="1.369" width="49.04" height="48.46"/>
			</defs>
			<clipPath id="SVGID_34_">
				<use xlink:href="#SVGID_33_"  style="overflow:visible;"/>
			</clipPath>
			<g class="st22">
				<path class="st7" d="M1.307,27.869c-0.725-1.561-1.035-3.284-0.9-5l0.1-0.69l0.19-1c-0.319,1.942-0.011,3.935,0.88,5.69
					c2,4.5,6.37,9.3,11.85,13.12c1.996,1.387,4.088,2.63,6.26,3.72c-0.201,0.251-0.429,0.479-0.68,0.68
					C11.077,40.429,3.827,33.969,1.307,27.869"/>
			</g>
		</g>
		<g>
			<defs>
				<rect id="SVGID_35_" x="0.307" y="1.369" width="49.04" height="48.46"/>
			</defs>
			<clipPath id="SVGID_36_">
				<use xlink:href="#SVGID_35_"  style="overflow:visible;"/>
			</clipPath>
			<g class="st23">
				<path class="st7" d="M37.607,45.869l-0.88,0.49l-0.69,0.39c-0.914,0.48-1.912,0.779-2.94,0.88
					c0.383-0.188,0.745-0.416,1.08-0.68l0,0C35.376,46.795,36.537,46.43,37.607,45.869"/>
			</g>
		</g>
		<g>
			<defs>
				<rect id="SVGID_37_" x="0.307" y="1.369" width="49.04" height="48.46"/>
			</defs>
			<clipPath id="SVGID_38_">
				<use xlink:href="#SVGID_37_"  style="overflow:visible;"/>
			</clipPath>
			<g class="st24">
				<path class="st25" d="M0.407,24.959v-2.09c-0.101,0.68-0.101,1.37,0,2.05 M38.187,5.189c-6.509-4.18-14.628-4.984-21.83-2.16
					c7.145-1.437,14.568,0,20.66,4c6.148,3.834,10.557,9.915,12.29,16.95C48.818,16.298,44.685,9.315,38.187,5.189 M23.187,48.189
					c0.58-0.49,1.17-1.07,1.66-1.47c-2.022-0.61-3.986-1.396-5.87-2.35c-7.8-3.94-15.05-10.4-17.67-16.5
					c-0.408-0.933-0.71-1.909-0.9-2.91v0.2c-0.013,0.426,0.021,0.852,0.1,1.27v0.2l0,0c0.589,7.992,4.949,15.226,11.74,19.48
					c6.529,4.124,14.622,4.921,21.83,2.15c-3.589,0.706-7.285,0.672-10.86-0.1"/>
			</g>
		</g>
	</g>
	<g>
		<path d="M81.307,39.249h-2c-10.87,0-17.62-6.55-17.62-17.32c0-9.06,7.44-16.25,17.62-16.25s17.62,7.19,17.62,16.25
			c0.253,7.07-4.106,13.488-10.77,15.86 M91.537,21.929c0-6.06-3.52-13.06-12.23-13.06s-12.24,7-12.24,13
			c0,6.36,3.13,14.09,12.24,14.09s12.23-7.73,12.23-14.09"/>
	</g>
	<g>
		<path d="M107.987,6.169v19.7c0,6.76,2.74,10.28,9,10.28c6.65,0,8.81-4.8,8.81-9.49V6.169h4.6v20.55c0,7.25-4.9,12.53-13.41,12.53
			c-10,0-13.9-4.79-13.9-13.21V6.169H107.987z"/>
	</g>
	<g>
		<path d="M152.137,6.169l13.22,32.5h-5.68l-3.62-9.6h-13.51l-3.82,9.6h-4.7l14.39-32.5L152.137,6.169z M154.877,25.869
			c-1.76-4.5-3.52-9-5.29-14.88h-0.09c-1.86,5.88-3.72,10.35-5.58,14.88H154.877z"/>
	</g>
	<g>
		<polygon points="169.367,6.169 174.257,6.169 174.257,35.439 188.947,35.439 188.947,38.669 169.367,38.669 		"/>
	</g>
	<g>
		<rect x="193.647" y="6.169" width="4.89" height="32.5"/>
	</g>
	<g>
		<polygon points="224.377,9.499 211.847,9.499 211.847,21.829 224.187,21.829 224.187,25.059 211.847,25.059 211.847,38.669 
			206.957,38.669 206.957,6.169 224.377,6.169 		"/>
	</g>
	<g>
		<rect x="231.237" y="6.169" width="4.89" height="32.5"/>
	</g>
	<g>
		<defs>
			<path id="SVGID_39_" d="M78.227,34.559c0.39,2,2.64,4.89,9.11,7.92c4.573,2.081,9.556,3.106,14.58,3h0.2
				c12.92,0,24.27-5.87,24.27-5.87c-10.67,3.91-26.13,6.75-38.56-2.84c-2-1.47-4.9-4.6-6.76-4.7h-0.1c-1.17,0.1-2.93,1.47-2.74,2.45
				"/>
		</defs>
		<clipPath id="SVGID_40_">
			<use xlink:href="#SVGID_39_"  style="overflow:visible;"/>
		</clipPath>
		<g class="st26">
			
				<linearGradient id="SVGID_41_" gradientUnits="userSpaceOnUse" x1="-112.4488" y1="649.7363" x2="-111.4688" y2="649.7363" gradientTransform="matrix(-30.0144 -29.5362 -29.5362 30.0144 15932.4512 -22769.1191)">
				<stop  offset="0" style="stop-color:#CA9732"/>
				<stop  offset="1" style="stop-color:#FECC38"/>
			</linearGradient>
			<polygon class="st27" points="102.607,70.579 70.887,39.349 101.817,8.029 133.437,39.159 			"/>
		</g>
	</g>
	<g>
		<path d="M221.537,54.129h-1.95v0.59h1.17v1.76c-0.338,0.156-0.709,0.224-1.08,0.2c-1.211,0.097-2.272-0.806-2.369-2.017
			c-0.009-0.111-0.009-0.222-0.001-0.333c-0.072-1.229,0.866-2.285,2.096-2.356c0.115-0.007,0.23-0.005,0.344,0.006
			c0.473-0.017,0.944,0.083,1.37,0.29l0.2-0.58c-0.467-0.189-0.966-0.291-1.47-0.3c-1.652-0.127-3.094,1.109-3.222,2.761
			c-0.005,0.06-0.007,0.119-0.008,0.179c-0.043,0.812,0.28,1.601,0.88,2.15c0.609,0.563,1.423,0.849,2.25,0.79
			c0.631-0.018,1.256-0.118,1.86-0.3v-2.84H221.537z M210.387,57.129v-2.41c0.023-0.785-0.01-1.57-0.1-2.35l0,0
			c0.29,0.59,0.68,1.27,1.07,2l1.86,2.94h0.79v-5.82h-0.59v2.45c-0.019,0.785,0.015,1.57,0.1,2.35l0,0
			c-0.308-0.649-0.669-1.271-1.08-1.86l-2-2.94h-0.88v5.78h0.79L210.387,57.129z M206.177,57.129h0.78v-5.74h-0.78V57.129z
			 M199.617,57.129v-2.41c0.023-0.785-0.01-1.57-0.1-2.35l0,0c0.29,0.59,0.68,1.27,1.08,2l1.86,2.94h0.78v-5.82h-0.59v2.45
			c-0.019,0.785,0.015,1.57,0.1,2.35l0,0c-0.304-0.651-0.665-1.274-1.08-1.86l-2-2.94h-0.89v5.78h0.79L199.617,57.129z
			 M193.447,51.939c0.257-0.053,0.518-0.086,0.78-0.1c0.79,0,1.37,0.3,1.37,1.08s-0.49,1.08-1.37,1.08h-0.78V51.939z
			 M192.667,57.129h0.78v-2.51h0.69c0.68,0,1,0.3,1.17,1.08s0.29,1.17,0.39,1.37h0.78c-0.199-0.51-0.36-1.035-0.48-1.57
			c-0.058-0.524-0.4-0.974-0.89-1.17l0,0c0.645-0.192,1.086-0.787,1.08-1.46c0.027-0.419-0.157-0.824-0.49-1.08
			c-0.513-0.361-1.134-0.534-1.76-0.49c-0.492-0.02-0.985,0.014-1.47,0.1v5.77L192.667,57.129z M186.987,54.679l0.59-1.66
			c0.09-0.39,0.19-0.69,0.29-1.08l0,0c0.1,0.29,0.2,0.69,0.29,1.08l0.59,1.66H186.987z M188.987,55.269l0.68,1.86h0.79l-2.06-5.78
			h-1l-2,5.78h0.78l0.59-1.86H188.987z M183.167,53.869h-2.35v-1.89h2.49v-0.59h-3.23v5.78h3.33v-0.59h-2.55v-2.05h2.35v-0.66
			H183.167z M174.457,57.199h3.33v-0.59h-2.55v-5.22h-0.78V57.199z M164.077,51.419v5.75h0.79v-2.74h2.93v2.74h0.79v-5.78h-0.79
			v2.48h-2.93v-2.48L164.077,51.419z M161.537,54.159h-2v0.59h1.17v1.76c-1.247,0.525-2.684-0.06-3.209-1.307
			c-0.117-0.277-0.181-0.573-0.191-0.873c-0.066-1.235,0.881-2.291,2.117-2.357c0.111-0.006,0.223-0.004,0.333,0.007
			c0.473-0.013,0.943,0.087,1.37,0.29l0.19-0.58c-0.467-0.189-0.966-0.291-1.47-0.3c-1.652-0.127-3.094,1.109-3.222,2.761
			c-0.005,0.06-0.007,0.119-0.008,0.179c-0.039,0.811,0.283,1.598,0.88,2.15c0.611,0.566,1.43,0.852,2.26,0.79
			c0.63-0.019,1.256-0.12,1.86-0.3v-2.84L161.537,54.159z M149.787,51.419v3.45c0,1.76,0.88,2.45,2.15,2.45s2.26-0.69,2.26-2.55
			v-3.38h-0.79v3.48c0,1.27-0.58,1.86-1.47,1.86s-1.37-0.59-1.37-1.86v-3.48L149.787,51.419z M144.597,51.909
			c1.27,0,1.86,1.18,1.86,2.35s-0.68,2.45-2,2.45s-1.86-1.08-1.86-2.35S143.287,51.909,144.597,51.909 M144.697,51.319
			c-1.524,0.005-2.756,1.245-2.75,2.77c0,0.077,0.004,0.154,0.01,0.23c-0.155,1.461,0.904,2.771,2.365,2.925
			c0.091,0.01,0.183,0.015,0.275,0.015c1.57,0,2.74-1.08,2.74-3C147.337,52.499,146.337,51.319,144.697,51.319 M136.767,52.009
			c0.257-0.053,0.518-0.086,0.78-0.1c0.79,0,1.37,0.3,1.37,1.08s-0.49,1.08-1.37,1.08h-0.78V52.009z M136.087,57.199h0.78v-2.58
			h0.68c0.69,0,1,0.3,1.18,1.08c0.105,0.463,0.236,0.921,0.39,1.37h0.78c-0.2-0.511-0.363-1.036-0.49-1.57
			c-0.052-0.524-0.391-0.975-0.88-1.17l0,0c0.669-0.178,1.147-0.768,1.18-1.46c0.023-0.419-0.16-0.822-0.49-1.08
			c-0.513-0.361-1.134-0.534-1.76-0.49c-0.492-0.02-0.985,0.014-1.47,0.1v5.77L136.087,57.199z M128.837,51.419v5.75h0.78v-2.74
			h2.94v2.74h0.75v-5.78h-0.78v2.48h-2.94v-2.48L128.837,51.419z M124.137,57.199h0.79v-5.22h1.86v-0.59h-4.41v0.59h1.86v5.19
			L124.137,57.199z M114.137,56.899c0.479,0.261,1.015,0.399,1.56,0.4c1.37,0,2.06-0.79,2.06-1.67s-0.49-1.27-1.57-1.66
			c-0.78-0.3-1.17-0.59-1.17-1.08s0.29-0.88,1.17-0.88c0.411,0.003,0.815,0.103,1.18,0.29l0.19-0.58
			c-0.4-0.182-0.831-0.284-1.27-0.3c-1.17,0-2,0.69-2,1.57s0.59,1.27,1.57,1.66c0.78,0.3,1.17,0.59,1.17,1.18s-0.48,1-1.27,1
			c-0.482-0.014-0.953-0.149-1.37-0.39L114.137,56.899z M108.357,56.899c0.482,0.261,1.022,0.399,1.57,0.4c1.37,0,2-0.79,2-1.67
			s-0.49-1.27-1.56-1.66c-0.79-0.3-1.18-0.59-1.18-1.08s0.3-0.88,1.18-0.88c0.408,0.001,0.809,0.101,1.17,0.29l0.2-0.58
			c-0.432-0.19-0.898-0.292-1.37-0.3c-1.18,0-2,0.69-2,1.57s0.59,1.27,1.57,1.66c0.78,0.3,1.17,0.59,1.17,1.18s-0.49,1-1.27,1
			c-0.482-0.013-0.953-0.147-1.37-0.39L108.357,56.899z M105.907,53.899h-2.34v-1.92h2.44v-0.59h-3.23v5.78h3.33v-0.59h-2.54v-2.05
			h2.34V53.899z M100.337,56.449c-0.404,0.17-0.844,0.236-1.28,0.19c-1.15,0.098-2.162-0.755-2.26-1.905
			c-0.013-0.148-0.009-0.297,0.01-0.445c-0.12-1.215,0.768-2.296,1.983-2.416c0.129-0.013,0.258-0.014,0.387-0.004
			c0.402,0.001,0.8,0.069,1.18,0.2l0.19-0.59c-0.461-0.209-0.964-0.309-1.47-0.29c-1.655-0.072-3.055,1.212-3.127,2.867
			c-0.002,0.044-0.003,0.089-0.003,0.133c-0.091,1.533,1.078,2.849,2.61,2.94c0.11,0.007,0.22,0.007,0.33,0
			c0.537,0.038,1.075-0.066,1.56-0.3L100.337,56.449z M93.867,56.449c-0.4,0.171-0.837,0.236-1.27,0.19
			c-1.15,0.098-2.162-0.755-2.26-1.905c-0.013-0.148-0.009-0.297,0.01-0.445c-0.12-1.215,0.768-2.296,1.983-2.416
			c0.129-0.013,0.258-0.014,0.387-0.004c0.398,0,0.794,0.068,1.17,0.2l0.2-0.59c-0.462-0.207-0.964-0.306-1.47-0.29
			c-1.655-0.072-3.055,1.212-3.127,2.867c-0.002,0.044-0.003,0.089-0.003,0.133c-0.091,1.533,1.078,2.849,2.61,2.94
			c0.11,0.007,0.22,0.007,0.33,0c0.537,0.038,1.075-0.066,1.56-0.3L93.867,56.449z M82.707,51.449v3.42c0,1.76,0.89,2.45,2.16,2.45
			s2.25-0.69,2.25-2.55v-3.38h-0.78v3.48c0,1.27-0.59,1.86-1.47,1.86s-1.37-0.59-1.37-1.86v-3.48L82.707,51.449z M76.667,56.869
			c0.478,0.263,1.015,0.401,1.56,0.4c1.37,0,2.06-0.79,2.06-1.67s-0.49-1.27-1.57-1.66c-0.78-0.3-1.17-0.59-1.17-1.08
			s0.29-0.88,1.17-0.88c0.411,0.003,0.815,0.103,1.18,0.29l0.19-0.58c-0.432-0.192-0.898-0.294-1.37-0.3c-1.17,0-2,0.69-2,1.57
			s0.59,1.27,1.59,1.66c0.78,0.3,1.17,0.59,1.17,1.18s-0.49,1-1.27,1c-0.482-0.013-0.953-0.147-1.37-0.39L76.667,56.869z"/>
	</g>
	<g>
		<path d="M210.967,62.939h-2.35v-1.86h2.45v-0.58h-3.23v5.77h3.33v-0.59h-2.55v-2h2.35v-0.69V62.939z M201.307,61.079
			c0.2,0,0.49-0.09,0.88-0.09c1.67,0,2.45,0.88,2.45,2.25c0.117,1.237-0.791,2.335-2.029,2.452
			c-0.174,0.016-0.349,0.013-0.521-0.011h-0.78C201.307,65.679,201.307,61.079,201.307,61.079z M200.627,66.269
			c0.39,0,0.88,0.1,1.37,0.1c0.944,0.056,1.878-0.22,2.64-0.78c0.617-0.579,0.941-1.406,0.88-2.25c0.065-0.79-0.265-1.561-0.88-2.06
			c-0.693-0.545-1.574-0.794-2.45-0.69c-0.58,0-1.17,0.1-1.66,0.1v5.58H200.627z M196.997,66.269h0.79v-5.77h-0.79V66.269z
			 M189.857,66.269l0.88-3c0.19-0.79,0.39-1.28,0.49-1.86l0,0c0.093,0.627,0.223,1.248,0.39,1.86l0.78,3h0.79l1.66-5.77h-0.78
			l-0.79,2.93c-0.19,0.69-0.39,1.37-0.49,2l0,0c-0.09-0.59-0.29-1.27-0.39-2l-0.68-2.93h-0.79l-0.78,2.93
			c-0.19,0.79-0.39,1.47-0.49,2l0,0c-0.126-0.675-0.29-1.343-0.49-2l-0.68-2.93h-0.79l1.57,5.77H189.857z M181.537,61.079
			c0.19,0,0.49-0.09,0.88-0.09c1.66,0,2.45,0.88,2.45,2.25c0.118,1.237-0.79,2.335-2.027,2.453
			c-0.178,0.017-0.356,0.013-0.533-0.013h-0.78v-4.6H181.537z M180.747,66.269c0.4,0,0.89,0.1,1.37,0.1
			c0.947,0.058,1.885-0.218,2.65-0.78c0.617-0.579,0.941-1.406,0.88-2.25c0.065-0.79-0.265-1.561-0.88-2.06
			c-0.693-0.545-1.574-0.794-2.45-0.69c-0.59,0-1.17,0.1-1.66,0.1v5.58H180.747z M175.167,66.269h3.33v-0.59h-2.54v-5.18h-0.79
			L175.167,66.269L175.167,66.269z M169.787,61.079c0.258-0.048,0.518-0.078,0.78-0.09c0.79,0,1.37,0.29,1.37,1.07
			s-0.49,1.08-1.37,1.08h-0.78V61.079z M169.007,66.269h0.78v-2.54h0.69c0.68,0,1,0.29,1.17,1.07s0.29,1.18,0.39,1.37h0.78
			c-0.2-0.507-0.36-1.028-0.48-1.56c-0.055-0.528-0.397-0.982-0.89-1.18l0,0c0.676-0.173,1.157-0.772,1.18-1.47
			c0.023-0.428-0.172-0.839-0.52-1.09c-0.51-0.366-1.134-0.54-1.76-0.49c-0.492-0.02-0.985,0.014-1.47,0.1v5.79H169.007z
			 M163.817,60.989c1.27,0,1.86,1.17,1.86,2.35c0,1.18-0.69,2.44-2,2.44s-1.86-1.07-1.86-2.35
			C161.817,62.149,162.507,60.989,163.817,60.989 M163.817,60.399c-1.519-0.001-2.751,1.23-2.751,2.749
			c0,0.084,0.004,0.168,0.011,0.251c-0.16,1.455,0.889,2.764,2.344,2.924c0.098,0.011,0.197,0.016,0.296,0.016
			c1.496,0.025,2.73-1.168,2.755-2.664c0.002-0.112-0.003-0.224-0.015-0.336c0.217-1.392-0.735-2.695-2.127-2.912
			C164.161,60.4,163.989,60.391,163.817,60.399 M154.307,66.269l0.88-3c0.2-0.79,0.4-1.28,0.49-1.86l0,0
			c0.097,0.627,0.23,1.248,0.4,1.86l0.78,3h0.78l1.67-5.77h-0.79l-0.78,2.93c-0.2,0.657-0.364,1.325-0.49,2l0,0
			c-0.1-0.59-0.29-1.27-0.39-2l-0.69-2.93h-0.78l-0.78,2.93c-0.2,0.79-0.39,1.47-0.49,2l0,0c-0.1-0.59-0.3-1.27-0.49-2l-0.69-2.93
			h-0.78l1.57,5.77L154.307,66.269z M143.147,61.079c0.2,0,0.49-0.09,0.88-0.09c1.67,0,2.45,0.88,2.45,2.25
			c0.122,1.231-0.776,2.328-2.007,2.451c-0.177,0.018-0.356,0.014-0.533-0.011h-0.79L143.147,61.079L143.147,61.079z
			 M142.307,66.269c0.39,0,0.88,0.1,1.37,0.1c0.945,0.061,1.88-0.216,2.64-0.78c0.621-0.577,0.948-1.404,0.89-2.25
			c0.061-0.791-0.272-1.562-0.89-2.06c-0.69-0.544-1.567-0.792-2.44-0.69c-0.59,0-1.18,0.1-1.67,0.1v5.58H142.307z M139.567,62.939
			h-2.26v-1.86h2.45v-0.58h-3.23v5.77h3.33v-0.59h-2.55v-2h2.35v-0.69L139.567,62.939z M130.467,65.939
			c0.481,0.254,1.016,0.388,1.56,0.39c1.37,0,2.06-0.78,2.06-1.66c0-0.88-0.49-1.28-1.57-1.67c-0.78-0.29-1.17-0.59-1.17-1.08
			s0.29-0.88,1.17-0.88c0.412,0,0.818,0.104,1.18,0.3l0.19-0.59c-0.401-0.178-0.832-0.276-1.27-0.29c-1.18,0-2,0.68-2,1.56
			s0.59,1.28,1.57,1.67c0.78,0.29,1.17,0.58,1.17,1.17s-0.49,1-1.27,1c-0.482-0.013-0.953-0.147-1.37-0.39L130.467,65.939z
			 M127.137,66.229h0.78v-5.73h-0.78V66.229z M120.677,66.229v-2.5c0.024-0.785-0.01-1.57-0.1-2.35l0,0c0.29,0.58,0.68,1.27,1.08,2
			l1.86,2.93h0.79v-5.81h-0.69v2.44c-0.019,0.785,0.015,1.57,0.1,2.35l0,0c-0.308-0.649-0.669-1.271-1.08-1.86l-2-2.93h-0.88v5.77
			L120.677,66.229z M117.347,63.229h-2v0.64h1.18v1.77c-0.341,0.144-0.71,0.209-1.08,0.19c-1.218,0.08-2.27-0.843-2.35-2.061
			c-0.006-0.096-0.006-0.193,0-0.289c-0.066-1.235,0.881-2.291,2.117-2.357c0.111-0.006,0.223-0.004,0.333,0.007
			c0.475-0.017,0.946,0.086,1.37,0.3l0.19-0.59c-0.468-0.185-0.966-0.283-1.47-0.29c-1.597-0.177-3.036,0.975-3.213,2.572
			c-0.013,0.119-0.019,0.238-0.017,0.358c-0.124,1.503,0.994,2.821,2.496,2.945c0.168,0.014,0.336,0.012,0.504-0.005
			c0.629-0.021,1.254-0.118,1.86-0.29L117.347,63.229z M107.657,60.979c1.169,0.059,2.069,1.055,2.01,2.224
			c-0.002,0.042-0.005,0.084-0.01,0.126c0,1.27-0.68,2.44-2,2.44c-1.175-0.065-2.074-1.07-2.008-2.245
			c0.002-0.035,0.005-0.07,0.008-0.105C105.657,62.149,106.337,60.979,107.657,60.979 M107.657,60.389
			c-1.519-0.001-2.751,1.23-2.751,2.749c0,0.084,0.004,0.168,0.011,0.251c-0.16,1.455,0.889,2.764,2.344,2.924
			c0.098,0.011,0.197,0.016,0.296,0.016c1.496,0.025,2.73-1.168,2.755-2.664c0.002-0.112-0.003-0.224-0.015-0.336
			C110.297,61.559,109.297,60.389,107.657,60.389 M102.857,65.479c-0.411,0.127-0.839,0.191-1.27,0.19
			c-1.144,0.103-2.155-0.74-2.259-1.884c-0.014-0.152-0.011-0.305,0.009-0.456c-0.11-1.188,0.764-2.24,1.952-2.35
			c0.133-0.012,0.266-0.012,0.398,0c0.398-0.002,0.793,0.062,1.17,0.19l0.2-0.59c-0.463-0.202-0.965-0.301-1.47-0.29
			c-1.655-0.072-3.055,1.212-3.127,2.867c-0.002,0.044-0.003,0.089-0.003,0.133c-0.091,1.527,1.073,2.839,2.6,2.93
			c0.11,0.007,0.22,0.007,0.33,0c0.539,0.035,1.079-0.065,1.57-0.29L102.857,65.479z M96.197,62.929h-2.31v-1.85h2.42v-0.58h-3.2
			v5.77h3.33v-0.59h-2.55v-2h2.35L96.197,62.929z M87.687,61.069c0.258-0.048,0.518-0.078,0.78-0.09c0.78,0,1.37,0.29,1.37,1.07
			s-0.49,1.08-1.37,1.08h-0.78V61.069z M86.897,66.259h0.79v-2.53h0.68c0.69,0,1,0.29,1.18,1.07c0.104,0.464,0.234,0.921,0.39,1.37
			h0.78c-0.178-0.508-0.315-1.03-0.41-1.56c-0.051-0.527-0.39-0.981-0.88-1.18l0,0c0.676-0.173,1.157-0.772,1.18-1.47
			c0.021-0.43-0.179-0.841-0.53-1.09c-0.517-0.359-1.143-0.525-1.77-0.47c-0.489-0.02-0.978,0.014-1.46,0.1v5.77L86.897,66.259z"/>
	</g>
</g>
</svg>
