<svg xmlns="http://www.w3.org/2000/svg" xmlns:xlink="http://www.w3.org/1999/xlink" id="Layer_1" x="0px" y="0px" viewBox="0 0 1893.356 250.162" style="enable-background:new 0 0 1893.356 250.162;" xml:space="preserve">
<style type="text/css">
	.st0{fill:#A9010A;}
</style>
<g>
	<path class="st0" d="M0.004,137.137c0.524-47.509,12.964-77.974,37.84-103.242c43.197-43.878,115.432-45.333,161.473-3.333   c50.805,46.345,55.495,126.492,10.436,178.348C157.71,268.804,65.13,262.549,21.445,196.189   C7.415,174.876-0.194,149.403,0.004,137.137z M214.695,63.019c0.2,0.351,0.399,0.703,0.599,1.054   c0.093-0.248,0.314-0.534,0.253-0.736c-0.139-0.468-0.439-0.799-0.907-0.238c-0.364-1.518-0.988-2.858-2.474-3.608   c-0.138-0.964-0.614-2.18,0.509-2.678c1.31-0.581,1.302,1.026,1.865,1.625c1.341,1.426,2.549,2.981,3.768,4.518   c1.147,1.447,1.401,0.701,1.584-0.564c0.252-1.741-4.391-10.357-5.928-11.092c-0.552-0.264-0.659-0.232-0.921,0.315   c-1.525,3.187-2.091,1.012-3.342-0.397c-3.07-3.46-2.786-8.583-5.621-11.818c-7.575-8.641-16.763-15.427-26.563-21.426   c-1.892-1.158-3.744-0.871-5.05-0.175c-1.921,1.023,1.355,2.185,0.565,3.595c-0.864-0.756-1.757-1.482-2.585-2.276   c-0.831-0.796-0.798-1.147-0.132-1.139c4.473,0.058,0.882-1.875,0.446-2.312c-2.541-2.548-6.168-1.906-9.274-2.847   c-0.327-0.099-0.795,0.269-1.198,0.421c0.312,0.546,0.564,1.138,0.945,1.629c2.198,2.826,5.445,4.625,6.259,8.873   c0.285,1.488,3.742,5.632,5.764,5.07c3.753-1.044,5.513,1.704,8.226,2.393c0.258,0.502,0.54,1.225,1.209,0.696   c0.747-0.59-0.127-0.893-0.444-1.267c-1.628-4.607-7.466-5.017-9.35-9.369c3.082-0.275,4.567,4.506,7.484,2.943   c1.594-0.855,1.513-0.726,2.2,0.464c1.388,2.407,2.526,4.983,4.831,6.784c2.552,1.993,0.95,4.096-0.922,4.416   c-3.658,0.625-4.054,3.026-3.676,5.572c0.483,3.256-1.897,5.217-2.779,7.824c-0.179,0.529-2.057-1.196-2.012,0.709   c0.022,0.944,1.235,0.806,2.015,1.035c3.579,1.049,5.907,3.388,7.073,6.956c0.41,1.253,0.516,2.908-0.889,2.696   c-10.665-1.615-6.039,4.908-5.176,9.449c0.062,0.326,0.06,0.674,0.176,0.979c1.49,3.905,4.181,6.771,8.466,6.3   c2.574-0.283,5.316-2.177,5.044-5.539c-0.296-3.661,0.099-7.718-0.837-10.864c-1.235-4.154,3.172-2.891,3.458-5.465   c0.17-1.525,2.191,0.547,3.322,1.238c2.626,1.604,4.542,4.897,8.412,3.604l-0.076-0.004c0.748-1.182,1.757-0.36,2.661-0.346   C212.302,61.398,213.17,62.539,214.695,63.019z M168.978,34.606c-0.689,2.583,1.111,2.416,2.72,2.46   c0.441,0.888,1.493,2.25,1.229,2.59c-2.56,3.295,2.608,2.944,2.479,5.218c-0.022,0.387,2.546-0.409,3.389-1.059   c1.06-0.817-0.608-1.446-1.089-2.11c-1.553-2.142-3.048-4.436-6.142-4.495c0.239-2.027-2.237-1.165-2.655-2.492   c-0.165-1.417-0.587-2.597-2.379-2.108c-0.335,0.092-0.851,0.748-0.774,0.93C166.405,35.085,167.672,34.971,168.978,34.606z    M31.611,110.169c-0.004-0.528-0.09-1.012-0.783-0.914c-0.176,0.025-0.324,0.245-0.484,0.376c0.464,0.137,0.928,0.273,1.391,0.41   c1.864,3.136,5.062,5.361,6.079,9.095c0.423,1.554,2.123,1.318,3.285,1.767c0.361,0.14,1.837-0.181,1.11-0.682   C38.131,117.412,37.187,111.321,31.611,110.169z M92.911,42.44l0.093-0.135c1.839-3.526-2.533-5.815-1.851-9.156   c0.096-0.469-0.552-1.09-0.855-1.641c-0.71,0.409-1.382,0.925-2.14,1.2c-0.9,0.326-2.078,0.824-2.695-0.215   c-0.458-0.771-0.759-2.537-0.451-2.72c3.159-1.878,0.404-2.749-0.635-3.626c-1.688-1.424-2.768-0.633-4.486,0.756   c-3.229,2.612-3.436,7.529-7.286,9.226c-2.708,1.193-4.814,2.561-5.727,5.437c-0.547,1.722-2.397,2.277-3.387,1.778   c-0.986-0.497-1.174-2.544,0.104-3.49c2.929-2.167,1.304-5.058,0.049-6.322c-3.341-3.366-0.38-5.007,1.339-6.828   c1.206-1.278,3.199-1.779,4.557-2.955c3.14-2.719,7.498-2.067,10.783-4.138c-0.558,0.646-1.611,1.007-1.403,2.079   c0.043,0.222,0.953,0.563,1.168,0.416c1.016-0.694,0.555-1.6,0.142-2.452c2.591-1.286,5.86-1.142,7.842-3.696   c-0.062-0.023-0.124-0.045-0.185-0.068c0.054,0.09,0.109,0.181,0.163,0.271c-4.613,1.58-9.746,1.309-13.444-0.854   c-3.143-1.839-4.578-0.768-6.776,0.351c-13.229,6.736-24.064,16.394-34.257,27.063C17.19,59.871,11.492,81.239,8.513,103.735   c-0.514,3.886,0.529,7.94,2.018,11.718c0.904,2.294,3.263,3.318,4.204,5.836c2.899,7.755,6.407,15.282,9.679,22.897   c0.249,0.58,0.329,1.398,1.177,1.269c0.136-0.021,0.232-1.128,0.138-1.699c-0.698-4.254-1.52-8.412-0.126-12.788   c0.752-2.359-0.596-5.107-2.978-5.68c-4.337-1.043-3.438-3.237-2.202-6.023c0.803-1.811,1.276-3.765,2.002-5.613   c0.524-1.335,2.892-2.731,0.124-3.906c-1.976-0.839-2.954,0.645-3.485,2.437c-0.41,1.384-0.642,3.21-2.819,2.526   c-1.709-0.538-2.211-1.807-2.544-3.678c-1.336-7.513,1.678-14.069,4.231-20.679c1.321-3.42,4.887-4.123,7.759-2.02   c0.392,0.287,0.834,0.864,1.123,0.458c2.638-3.692,4.064,0.041,5.248,1.182c1.657,1.596,3.782,3.518,2.342,6.491   c-1.209,2.496-0.015,4.799,0.727,7.124c1.985-1.706,1.738-4.02,1.787-6.295c0.113-5.303,0.948-10.037,6.461-12.935   c4.658-2.449,7.676-6.833,10.746-11.099c1.932-2.685,4.17-5.486,7.847-6.173c0.998-0.186,2.121-0.308,2.508-1.355   c2.349-6.358,8.344-5.343,13.217-6.624c-0.621,1.592-4.01,1.568-3.191,2.982c1.144,1.975,2.352-1.171,3.854-1.163   c0.474,0.003,0.956-0.191,1.422-0.336c1.032-0.322,2.237-0.236,2.99-1.235c-1.047-0.295-2.113-0.536-3.136-0.9   c-1.002-0.357-1.415,0.576-2.129,0.832c0.342-1.454,0.457-3.012,1.07-4.34c1.615-3.5-0.047-4.065-3.017-3.69   c-0.816,0.103-1.414,1.181-2.396,0.534c0.782-0.578,1.487-1.395,2.364-1.678c1.406-0.454,2.918-0.672,4.401-0.783   c4.943-0.373,9.836-0.852,14.387-3.099c1.392-0.687,3.1-1.26,2.516-3.067C96.15,41.047,94.504,41.187,92.911,42.44z    M219.899,189.072c6.375-8.3,9.74-18.03,12.715-27.832c9.017-29.707,6.299-58.764-5.553-87.185   c-0.26-0.624-0.042-1.848-1.151-1.742c-0.799,0.076-0.431,1.459-0.726,1.588c-2.868,1.254-4.638,3.087-4.149,6.481   c0.012,0.084-1.382,0.688-1.752,0.458c-2.951-1.836-7.877-0.756-8.567-6.183c-0.149-1.175-1.427-4.874-2.961-3.94   c-3.117,1.897-7.427,2.075-9.354,6.005c-0.586,1.194-1.431,2.541-2.933,3.191c-5.453,2.361-9.051,7.936-7.609,13.154   c0.889,3.216-0.248,5.323-1.443,7.89c-3.808,8.18-9.601,16.355-4.789,25.772c3.028,5.925-3.884,12.904,2.745,18.013   c0.694,0.535-0.316,0.978-0.935,1.203c-0.976,0.355-0.762,1.01-0.072,1.307c3.691,1.588,5.053,5.164,7.326,8.034   c2.63,3.322,7.843,7.675,10.301,5.914c4.469-3.201,10.563-3.628,13.99-8.597c1.338-1.94,3.258-7.142,6.983-1.683   c0.072,0.105,0.546-0.036,0.822-0.103c3.039-0.73,4.193,0.356,3.361,3.944c-0.996,4.292-1.576,8.442,0.219,12.643   c0.483,1.131-0.223,2.272-0.277,3.378c-0.323,6.707-4.667,11.934-6.446,18.087c-1.263,0.648-1.339,1.87-1.482,3.059   C219.262,191.292,219.953,190.408,219.899,189.072z M34.082,150.688c-0.145-0.696-0.078-1.785-0.985-1.649   c-0.392,0.059-0.777,1.391-0.106,2.186c1.1,4.404,3.244,9.617-0.134,13.035c-4.891,4.949-3.855,11.194-1.914,14.993   c5.347,10.465,9.637,22.054,20.219,29.04c3.72,2.456,6.107,5.973,7.506,10.227c1.56,4.745,3.977,9.057,6.962,13.072   c4.769,6.415,18.027,10.314,25.415,7.508c0.851-0.323,2.04,0.314,2.95,0.064c3.572-0.98,8.117-1.329,9.441-5.07   c0.695-1.964,1.262-2.578,2.842-2.894c2.606-0.522,5.227-0.977,7.852-1.397c5.306-0.848,11.077-5.457,10.674-10.563   c-0.469-5.958,3.598-7.64,6.769-10.525c1.227-1.116,2.673-2.123,3.526-3.487c1.47-2.352,2.504-5.844-0.619-6.834   c-4.039-1.28-6.954-4.589-10.943-5.378c-6.042-1.195-12.375-0.693-17.62-5.197c-2.528-2.171-5.391-0.513-7.312,2.086   c-0.899,1.216-2.047,1.348-2.823,0.093c-1.147-1.854,1.002-0.797,1.462-1.354c0.767-0.927,2.904-1.495,1.662-2.86   c-0.77-0.846-2.894-1.557-4.396-0.104c-0.71,0.687-1.722,1.738-2.425,0.703c-0.808-1.189,0.332-2.041,1.527-2.488   c1.688-0.631,3.147-1.369,1.925-3.601c-3.448-6.296-7.165-12.144-15.551-12.319c-1.996-0.042-4.471-1.293-4.933-2.912   c-1.186-4.157-5.915-4.827-7.647-8.621c-0.492-1.078-2.553-5.031-5.5-4.226c-5.335,1.458-8.428-1.452-11.836-4.613   c-0.699-0.648-0.837-3.009-2.587-1.981c-1.245,0.732-2.198,1.978-1.782,3.777c0.178,0.769,0.986,2.233-0.683,2.2   c-1.157-0.023-1.409-1.513-1.078-2.39c1.007-2.668-0.309-3.604-2.607-4.084c-2.355-0.492-3.741-0.042-4.01,2.782   C37.183,149.381,35.271,149.856,34.082,150.688z M121.531,6.031c-4.53,0.265-9.133,0.299-13.549,1.866   c-1.727,0.613-1.083,0.695-0.081,1.575c3.606,3.167,3.762,6.142,0.888,9.783c-0.302,0.383-1.33,1.151-0.317,1.503   c2.438,0.846,1.555,2.912,1.597,4.344c0.124,4.247,3.872,3.95,6.17,4.696c2.744,0.891,1.173-2.028,1.706-3.176   c0.199-0.43,0.671-0.761,0.786-1.198c1.494-5.697,7.945-3.51,10.854-6.867c0.769-0.887,4.983,1.102,2.311-2.869   c-0.816-1.212,1.451-3.077-0.497-5.067C128.58,7.741,125.825,5.507,121.531,6.031z M97.055,20.713   c1.875,1.643,3.111-0.459,2.412-1.109c-2.216-2.062-3.12-5.042-5.35-6.913c-1.064-0.892-2.525-0.01-3.455,0.834   c-2.241,2.03,1.137,0.974,1.035,1.762c-0.224,1.735,4.248,5.108-1.781,4.961c-1.078-0.026-3.457,0.816-3.194,2.318   c0.318,1.818,1.688,3.428,3.994,3.88c2.182,0.427,2.762-1.017,2.946-2.391C93.952,21.891,94.84,20.733,97.055,20.713z    M142.89,21.098c-1.328,0.331-3.761-0.076-3.724,1.376c0.046,1.804,2.497,1.695,4.058,1.826c1.389,0.117,3.52,0.28,3.387-1.7   C146.48,20.677,144.221,21.623,142.89,21.098z M50.576,127.868c0.838-0.151,2.443,0.581,1.989-0.457   c-1.019-2.331-3.384-3.346-5.876-3.928c-2.155-0.503-1.845,1.542-1.744,2.126C45.599,129.398,48.988,126.516,50.576,127.868z    M93.231,54.718c0.216-3.106,4.368,2.521,4.388-1.667c0.013-2.729-3.51-1.225-4.8-2.89c-0.145-0.187-2.043,1.342-2.139,2.849   C90.586,54.497,91.204,55.163,93.231,54.718z M170.622,42.146c-1.076-1.58-1.855-3.609-3.734-4.289   c-0.932-0.337-2.612,1.672-2.128,1.916c1.969,0.996,1.357,3.886,3.412,4.336C169.209,44.338,170.353,43.587,170.622,42.146z    M81.698,12.404c0.244-0.632-0.112-1.174-0.534-1.003c-1.298,0.527-2.799,1.013-3.656,2.003c-0.577,0.666,0.775,0.363,1.196,0.544   C80.281,14.628,80.985,13.393,81.698,12.404z M210.631,66.035c-0.502,0.546-1.073,1.023-1.012,1.126   c0.276,0.466,0.676,0.912,1.134,1.205c0.632,0.405,0.852-0.235,0.769-0.603C211.402,67.231,211.021,66.757,210.631,66.035z    M85.412,21.385l-0.172,0.192l0.249,0.054L85.412,21.385z"></path>
	<path class="st0" d="M298.46,131.622c0.007-20.986-0.013-41.972,0.018-62.958c0.011-7.338,1.363-8.604,8.823-8.623   c3.332-0.009,6.669,0.111,9.995-0.034c3.826-0.166,6.971,0.438,8.026,4.861c0.733,3.072,2.956,1.431,4.403,0.95   c5.989-1.99,11.769-4.553,17.958-6.009c18.669-4.393,36.036-2.379,51.287,10.165c2.504,2.06,4.435,1.14,6.75-0.183   c15.557-8.887,32.14-13.244,50.202-11.77c26.545,2.167,43.979,20.769,44.015,47.436c0.04,29.647,0.027,59.294,0.022,88.941   c-0.001,7.167-1.577,8.731-8.796,8.783c-4.165,0.03-8.331,0.027-12.496-0.011c-6.763-0.062-8.222-1.539-8.223-8.252   c-0.005-27.648,0.011-55.296-0.03-82.943c-0.005-3.156-0.168-6.328-0.504-9.466c-1.258-11.749-7.66-19.02-19.242-21.034   c-8.428-1.466-16.939-1.119-25.176,1.568c-6.588,2.149-10.811,6.382-11.224,13.662c-0.123,2.156-0.285,4.315-0.286,6.473   c-0.018,30.48-0.006,60.96-0.016,91.44c-0.002,6.995-1.46,8.449-8.461,8.511c-3.998,0.036-7.997,0.06-11.995,0.024   c-7.811-0.07-9.043-1.299-9.047-8.951c-0.012-27.981,0.012-55.963-0.064-83.944c-0.009-3.479-0.158-7.04-0.9-10.418   c-2.223-10.133-8.654-16.256-18.833-18.173c-8.635-1.626-17.277-1.481-25.594,1.641c-7.97,2.992-10.797,7.447-10.793,16.01   c0.014,31.313,0.026,62.625,0.031,93.938c0.001,8.393-1.489,9.875-9.851,9.887c-3.999,0.006-7.998,0.067-11.996,0.02   c-6.301-0.075-7.994-1.75-8.003-8.081C298.434,173.927,298.452,152.774,298.46,131.622z"></path>
	<path class="st0" d="M919.62,136.233c-14.163,0-28.326,0.061-42.489-0.048c-3.097-0.024-4.289,0.49-4.018,4.141   c2.492,33.584,31.056,50.541,63.913,37.647c4.934-1.936,9.608-4.538,14.387-6.863c6.49-3.159,10.274-0.888,10.495,6.327   c0.451,14.744-2.099,18.688-16.277,23.021c-18.481,5.649-37.245,7.164-56.065,1.706c-22.364-6.486-36.37-21.606-42.587-43.646   c-5.561-19.713-4.851-39.627,1.86-58.989c9.859-28.442,34.077-43.913,64.266-41.711c32.039,2.337,53.182,23.09,56.57,55.322   c0.525,4.994,0.593,9.968,0.562,14.957c-0.038,6.16-1.886,8.051-8.127,8.086c-14.163,0.079-28.326,0.025-42.489,0.025   C919.62,136.216,919.62,136.224,919.62,136.233z M906.978,113.112c7.644,0,15.287,0.001,22.931,0   c12.065-0.002,12.727-0.97,8.574-12.574c-0.279-0.779-0.639-1.531-0.995-2.279c-6.214-13.063-20.534-19.765-36.503-17.089   c-14.607,2.447-25.849,14.197-27.412,28.406c-0.331,3.012,0.771,3.61,3.497,3.576C887.037,113.024,897.008,113.101,906.978,113.112   z"></path>
	<path class="st0" d="M633.625,144.874c0.005,16.648,0.022,33.296-0.004,49.944c-0.01,6.628-1.682,8.291-8.21,8.338   c-3.331,0.024-6.662-0.038-9.992,0.021c-3.873,0.068-7.188-0.36-8.617-4.94c-0.928-2.974-3.358-1.15-4.929-0.462   c-6.882,3.014-13.876,5.567-21.363,6.624c-13.427,1.894-26.594,1.45-39.011-4.689c-13.645-6.746-21.564-17.522-22.009-33.021   c-0.424-14.741,5.954-25.97,18.5-33.636c14.719-8.994,30.835-14.752,47.135-20.062c4.578-1.491,9.118-3.097,13.691-4.602   c3.626-1.193,4.909-3.525,5.165-7.44c0.981-14.982-5.228-19.666-19.925-20.066c-15.774-0.429-30.685,2.919-44.382,11.08   c-6.011,3.581-10.458,0.992-10.575-5.97c-0.267-15.853,2.457-19.876,17.844-23.758c19.389-4.891,39.095-6.836,58.779-2.133   c18.019,4.305,27.697,17.271,27.895,35.828c0.004,0.333,0.003,0.666,0.003,0.999C633.62,112.91,633.62,128.892,633.625,144.874z    M603.853,150.528c0-5.818-0.097-11.637,0.041-17.452c0.068-2.894-0.741-3.297-3.443-2.329c-8.43,3.02-17.016,5.604-25.436,8.648   c-6.547,2.366-13.105,4.847-18.513,9.485c-10.059,8.627-7.499,27.446,4.721,31.435c11.537,3.766,23.342,2.868,34.589-1.755   c5.312-2.183,8.178-6.53,8.049-12.575C603.751,160.835,603.838,155.681,603.853,150.528z"></path>
	<path class="st0" d="M1081.812,131.466c0-20.985-0.018-41.969,0.01-62.954c0.009-6.963,1.532-8.436,8.492-8.466   c4.165-0.018,8.33,0.008,12.495,0.001c2.523-0.004,5.146,0.701,5.469,3.315c0.574,4.642,3.178,3.3,5.633,2.388   c5.762-2.139,11.421-4.578,17.426-5.992c13.417-3.161,26.857-3.337,39.82,1.6c19.143,7.29,28.387,22.237,28.876,42.064   c0.698,28.295,0.37,56.616,0.413,84.926c0.022,14.836-0.043,14.782-14.941,14.834c-14.911,0.052-15.02,0.918-14.921-15.114   c0.156-25.147,0.051-50.296,0.025-75.445c-0.003-2.493-0.064-5.004-0.363-7.475c-1.943-16.047-10.593-23.865-26.847-24.301   c-7.518-0.202-14.985,0.01-22.072,3.039c-7.035,3.007-9.751,7.014-9.752,14.606c-0.004,31.977,0.005,63.953-0.002,95.93   c-0.002,7.146-1.584,8.689-8.861,8.722c-3.832,0.018-7.664,0.02-11.495,0.014c-7.892-0.011-9.42-1.498-9.424-9.237   c-0.009-20.818-0.003-41.636-0.003-62.454C1081.798,131.466,1081.805,131.466,1081.812,131.466z"></path>
	<path class="st0" d="M725.185,60.034c16.126,0.151,13.592-1.973,18.706,13.6c10.261,31.246,20.495,62.501,30.753,93.747   c0.381,1.161,0.495,2.474,1.599,3.293c0.486-1.034,1.087-2.03,1.442-3.107c11.034-33.431,22.063-66.865,33.044-100.314   c2.164-6.592,2.901-7.231,9.891-7.228c3.832,0.001,7.665-0.057,11.495,0.033c5.758,0.136,7.726,3.032,5.833,8.479   c-7.143,20.558-14.299,41.111-21.446,61.668c-7.257,20.873-14.465,41.764-21.781,62.616c-4.061,11.576-5.748,12.681-18.184,12.657   c-3.662-0.007-7.323-0.145-10.985-0.185c-5.769-0.064-9.127-3.053-10.991-8.399c-9.246-26.51-18.613-52.977-27.914-79.467   c-5.502-15.671-11.054-31.326-16.398-47.052c-2.524-7.428-0.331-10.264,7.437-10.339C720.187,60.014,722.686,60.034,725.185,60.034   z"></path>
	<path class="st0" d="M1846.398,137.213c-13.163,0.001-26.327-0.003-39.49,0.002c-7.149,0.003-7.861,0.835-7.613,8.18   c0.291,8.586,1.926,16.844,5.951,24.493c8.09,15.372,21.596,21.326,38.224,21.819c13.201,0.391,25.809-1.739,37.63-8.005   c5.206-2.76,6.237-1.893,6.272,4.185c0.05,8.82,0.13,9.06-8.066,11.799c-18.885,6.314-38.178,7.525-57.593,3.027   c-17.199-3.984-29.096-14.74-34.886-31.229c-8.335-23.741-8.383-47.847,1.206-71.229c8.038-19.6,24.113-29.11,44.72-31.034   c17.697-1.652,33.953,1.999,46.413,15.775c10.363,11.456,13.831,25.58,14.102,40.589c0.241,13.365,0.837,11.523-11.378,11.61   C1870.059,137.278,1858.228,137.212,1846.398,137.213z M1837.461,124.002c10.99,0,21.981-0.027,32.971,0.017   c3.048,0.012,5.269-0.658,5.183-4.363c-0.309-13.254-4.604-24.423-16.418-31.71c-7.685-4.74-16.164-5.85-24.966-5.346   c-18.728,1.071-33.937,16.726-34.816,35.501c-0.202,4.309,1.133,6.051,5.576,5.973   C1815.811,123.884,1826.637,124.013,1837.461,124.002z"></path>
	<path class="st0" d="M692.518,104.326c-0.006,29.96-0.001,59.921-0.009,89.881c-0.002,7.518-1.444,8.93-9.089,8.969   c-3.996,0.02-7.992,0.013-11.988-0.003c-7.018-0.029-8.606-1.676-8.607-8.97c-0.005-43.11-0.002-86.219-0.001-129.329   c0-17.31-0.011-34.621,0.007-51.931c0.007-6.911,1.54-8.405,8.573-8.442c4.495-0.024,8.992-0.073,13.486,0.016   c5.868,0.116,7.625,1.961,7.627,7.932C692.531,43.073,692.524,73.699,692.518,104.326z"></path>
	<path class="st0" d="M1260.616,108.922c0.003-29.304,0.104-58.609-0.099-87.911c-0.033-4.805,1.367-6.844,6.197-6.259   c1.311,0.159,2.669,0.109,3.99-0.013c4.301-0.394,5.864,1.45,5.82,5.795c-0.171,16.815-0.071,33.632-0.061,50.449   c0.004,6.615,1.38,7.521,7.227,4.86c15.848-7.215,32.242-8.88,49.191-4.789c15.579,3.76,25.997,15.623,27.723,31.505   c2.238,20.589,0.964,41.248,1.238,61.875c0.148,11.153-0.112,22.312,0.071,33.465c0.064,3.895-1.305,5.411-5.194,5.318   c-12.362-0.296-11.051,1.56-11.071-10.782c-0.042-25.974-0.013-51.948-0.026-77.922c-0.001-1.829,0.017-3.673-0.192-5.484   c-2.165-18.722-11.377-27.099-30.481-28.225c-9.47-0.558-18.576,0.527-27.338,4.238c-8.727,3.697-11.158,7.294-11.16,16.761   c-0.007,31.635,0.002,63.27-0.004,94.905c-0.001,6.153-0.35,6.506-6.487,6.454c-10.888-0.092-9.299,0.878-9.322-9.325   C1260.572,165.532,1260.613,137.227,1260.616,108.922z"></path>
	<path class="st0" d="M1392.527,137.112c-0.157-9.884,1.131-19.543,4.004-29.035c6.925-22.877,25.545-37.68,49.523-38.95   c7.984-0.423,15.971-0.354,23.88,1.269c21.185,4.348,34.443,17.438,40.463,37.719c6.239,21.016,5.841,42.174-2.12,62.71   c-7.976,20.576-23.764,31.527-45.438,33.904c-11.656,1.278-23.354,0.838-34.507-3.339c-21.631-8.102-30.854-25.504-34.648-46.867   C1392.659,148.756,1392.615,142.931,1392.527,137.112z M1496.942,136.845c0.354-9.216-0.927-18.51-4.159-27.59   c-6.274-17.632-19.605-27.184-39.105-27.696c-18.331-0.481-32.113,7.944-38.7,25.008c-7.508,19.449-7.587,39.532-1.091,59.198   c5.577,16.884,19.921,26.098,38.356,26.382c19.243,0.296,32.727-8.232,39.732-25.137   C1495.933,157.46,1497.152,147.449,1496.942,136.845z"></path>
	<path class="st0" d="M991.04,131.338c0-21.156-0.002-42.312,0.001-63.467c0.001-6.02,1.715-7.795,7.606-7.834   c4.332-0.028,8.666,0.032,12.998-0.015c3.809-0.042,6.229,1.669,6.139,5.557c-0.093,4.059,1.76,3.504,4.195,2.226   c10.84-5.69,22.279-8.462,34.607-7.82c8.73,0.455,11.249,2.697,11.312,11.417c0.02,2.832,0.041,5.665-0.023,8.495   c-0.153,6.749-2.925,9.114-9.479,7.703c-7.553-1.626-15.167-2.03-22.842-1.76c-1.815,0.064-3.652,0.285-5.424,0.68   c-8.064,1.796-10.646,4.931-10.657,13.139c-0.041,31.151-0.029,62.302-0.037,93.452c-0.002,8.704-1.369,10.058-10.16,10.062   c-3.499,0.002-7,0.044-10.498-0.017c-5.847-0.101-7.738-1.996-7.744-7.85c-0.023-21.323-0.009-42.645-0.009-63.968   C991.03,131.338,991.035,131.338,991.04,131.338z"></path>
	<path class="st0" d="M1646.412,137.132c-0.005,19.977,0.018,39.955-0.035,59.932c-0.006,2.481,0.868,6.362-3.175,5.886   c-3.762-0.443-9.364,3.589-11.121-3.526c-0.904-3.661-3.872-2.796-6.097-2.191c-3.833,1.041-7.495,2.701-11.255,4.027   c-15.286,5.394-30.747,5.548-46.03,0.466c-12.376-4.115-19.646-13.157-22.17-25.968c-1.193-6.055-1.843-12.151-1.831-18.338   c0.051-26.803,0.127-53.606-0.054-80.408c-0.032-4.674,1.178-6.559,6.129-6.38c10.967,0.395,10.057-1.09,10.063,9.867   c0.014,26.969-0.064,53.939,0.013,80.908c0.053,18.625,7.463,28.196,24.219,31.209c8.941,1.608,17.906,1.296,26.727-1.069   c2.083-0.558,4.135-1.276,6.143-2.066c10.431-4.106,12.072-6.556,12.075-17.838c0.008-31.298,0.01-62.596,0.022-93.894   c0.002-6.917,0.041-6.943,6.905-6.985c9.478-0.058,9.478-0.058,9.478,9.431C1646.417,99.175,1646.418,118.154,1646.412,137.132z"></path>
	<path class="st0" d="M1710.151,205.291c-8.92,0.024-17.557-1.394-25.958-4.432c-3.896-1.409-6.217-3.529-5.67-8.071   c0.316-2.627,0.074-5.323,0.049-7.987c-0.034-3.537,1.602-4.098,4.381-2.422c2.987,1.802,5.783,3.974,8.9,5.498   c10.183,4.977,20.844,5.299,31.64,2.44c6.977-1.847,11.627-6.215,13.255-13.442c1.993-8.845,0.931-17.031-6.109-23.375   c-8.561-7.714-18.705-13.294-28.002-20.024c-1.885-1.364-3.875-2.585-5.749-3.963c-14.019-10.309-18.484-22.007-14.417-37.679   c3.329-12.829,13.709-20.869,30.286-22.51c10.627-1.052,21.283-0.78,31.531,3.142c7.165,2.742,7.897,3.589,7.89,11.189   c-0.001,0.833,0.113,1.691-0.05,2.493c-0.377,1.857,1.145,4.332-1.066,5.505c-2.273,1.206-4.076-0.811-5.832-1.926   c-9.789-6.216-20.237-9.089-31.872-6.923c-7.369,1.372-13.339,4.607-15.695,12.093c-2.324,7.383-0.103,13.778,5.644,18.909   c10.115,9.03,22.129,15.35,33.14,23.104c7.488,5.273,14.12,11.181,16.892,20.314c7.326,24.132-7.436,45.3-33.211,47.594   C1716.814,205.11,1713.477,205.139,1710.151,205.291z"></path>
	<path class="st0" d="M31.735,110.041c-0.464-0.137-0.928-0.273-1.391-0.41c0.161-0.131,0.309-0.351,0.484-0.376   c0.694-0.098,0.78,0.386,0.78,0.919C31.604,110.179,31.735,110.041,31.735,110.041z"></path>
	<polygon class="st0" points="85.412,21.385 85.489,21.631 85.24,21.577  "></polygon>
	<path class="st0" d="M88.05,16.161c-0.054-0.09-0.109-0.181-0.163-0.271c0.062,0.023,0.124,0.045,0.186,0.06   C88.074,15.942,88.05,16.161,88.05,16.161z"></path>
	<path class="st0" d="M92.911,42.44c0.071-0.658-0.219-0.775-0.74-0.467c-0.073,0.043-0.111,0.303-0.053,0.383   c0.32,0.445,0.647,0.551,0.892-0.06C93.004,42.305,92.911,42.44,92.911,42.44z"></path>
	<path class="st0" d="M209.091,60.366c-2.915-2.054-5.886-4.035-8.707-6.211c-0.759-0.585-2.237-1.533-1.165-2.751   c0.764-0.868,1.943,0.023,2.574,0.709c1.504,1.637,3.469,2.478,5.294,3.606c1.53,0.946,3.969,2.002,1.934,4.643   C209.015,60.362,209.091,60.366,209.091,60.366z"></path>
</g>
</svg>