<svg xmlns="http://www.w3.org/2000/svg" xmlns:xlink="http://www.w3.org/1999/xlink" id="Layer_1" x="0px" y="0px" viewBox="0 0 351.005 67.904" style="enable-background:new 0 0 351.005 67.904;" xml:space="preserve">
<style type="text/css">
	.st0{fill:#D4D4D6;}
	.st1{fill:#009ADA;}
	.st2{fill:#ED2E24;}
	.st3{fill:#00597C;}
	.st4{fill:#343741;}
	.st5{fill:#353841;}
	.st6{fill:#353842;}
	.st7{fill:#941714;}
	.st8{fill:#003C55;}
	.st9{fill:#006E97;}
	.st10{fill:#B21F19;}
	.st11{fill:#FEFEFE;}
</style>
<path class="st0" d="M350.525,38.705c0.16-0.01,0.32-0.01,0.48,0v1.65l-0.22,0.06h-0.22c-0.48-0.335-0.598-0.995-0.264-1.476  C350.363,38.85,350.439,38.771,350.525,38.705z"></path>
<path class="st1" d="M60.375,55.275c-8.77,10.52-19.95,14.32-33.37,11.95c0-2.85,0.9-5.5,1.72-8.17  c0.227-0.374,0.543-0.687,0.92-0.91c4.89-1.29,9.36-3.36,12.69-7.19c4.69-5.4,6.08-11.74,5-18.71c-0.58-3.63-0.23-4.36,3.28-5.35  c2.27-0.64,4.45-1.7,6.89-1.73c0.294,0.06,0.573,0.179,0.82,0.35c3.25,3.7,4.09,8.32,4.53,12.93  C63.513,44.175,62.658,49.978,60.375,55.275z"></path>
<path class="st2" d="M40.685,0.865c12.54,2.81,21.08,10.15,25.32,22.39c-2.431,1.51-5.239,2.3-8.1,2.28  c-0.09-0.089-0.214-0.133-0.34-0.12c-0.738-0.339-1.414-0.799-2-1.36c-7.65-8.2-21.82-8.45-30.47-0.26  c-2.28,2.15-3.39,2.21-5.68,0.19c-1.76-1.54-4-2.69-5-5c-0.197-1.443,0.216-2.904,1.14-4.03c5.72-8.22,13.88-12.36,23.53-14  C39.615,1.08,40.171,1.049,40.685,0.865z"></path>
<path class="st3" d="M29.665,58.595l-0.47,0.55c-1.7,0.91-3.46,0.31-5.11,0c-9.16-1.66-16.32-6.58-22-13.82  c-4.127-12.107-2.127-23.107,6-33c2.25,2.23,5.58,3.44,6.5,6.93c0.51,3.19-0.78,6.27-0.23,9.54c1.48,8.64,6.18,14.48,14.24,17.73  c0.879,0.253,1.725,0.609,2.52,1.06c0.413,0.302,0.754,0.691,1,1.14C32.135,52.168,31.293,55.561,29.665,58.595z"></path>
<path class="st4" d="M246.005,19.175l-4.82,4.49c-8.27-4.6-14.87-4.2-19.33,1.28c-4,4.86-3.9,13,0.13,17.86s11.77,5.95,18.17,2.36  v-8.39h-7.4v-6h13.9v19.07c-7.87,3.64-16.14,5.19-24.6,1.4c-7.85-3.52-11.57-12.42-9.68-22.11c1.588-8.097,8.427-14.11,16.66-14.65  C236.835,13.955,242.385,15.455,246.005,19.175z"></path>
<path class="st4" d="M175.375,29.955v-13.71l6.12-2v38h-5.49c-0.75-0.75-0.14-1.76-0.48-2.58c-7.89,4.44-14.15,4.08-18.13-1.05  s-3.72-13.81,0.75-18.52C162.395,25.555,168.865,25.395,175.375,29.955z"></path>
<path class="st4" d="M84.095,48.225l4.75-5c2.83,3.08,6,4.7,10.13,3.33c2.035-0.477,3.527-2.216,3.69-4.3  c0.16-2.18-1.2-3.63-3.09-4.43c-2.52-1.1-5.17-1.87-7.69-2.87c-5-2.09-6.8-4.93-6.64-10.17c0.13-4.29,2.72-7.81,7.22-9.35  c6-2.05,11.67-1.61,17.06,2.6l-4.73,5.15c-2.133-2.234-5.257-3.229-8.29-2.64c-2.1,0.42-3.82,1.33-4.17,3.72s0.91,3.82,3,4.65  s3.94,1.45,5.92,2.15c6.35,2.23,8.79,5.49,8.36,11.18s-3.81,9.49-10.07,10.55C93.755,53.725,88.415,52.775,84.095,48.225z"></path>
<path class="st4" d="M184.255,64.115c0.28-1.92,0.55-3.69,0.81-5.48c6,1.06,6.66,0.63,9.25-6.19l-10.6-25.14h7  c2.26,5.55,4.52,11.12,6.95,17.11l6.22-17.13h6.66c-3.32,8.67-6.62,17.14-9.91,25.67l-1.63,4.06  C196.155,64.325,192.515,66.135,184.255,64.115z"></path>
<path class="st4" d="M145.125,27.255h6.25v25h-5.66c-0.13-0.91-0.26-1.79-0.45-3.12c-1.86,2.564-4.898,4.004-8.06,3.82  c-4.83-0.23-8.29-3.15-8.48-8c-0.23-5.84-0.06-11.68-0.06-17.68h6.2c0,4.46-0.1,8.91,0,13.36c0.14,4.88,1.9,6.84,5.52,6.37  s4.62-3,4.69-6.09C145.205,36.485,145.125,31.955,145.125,27.255z"></path>
<path class="st4" d="M313.125,27.305h6.29v24.91h-5.78c-0.08-0.91-0.16-1.79-0.27-3.08c-1.73,1.94-3.47,3.31-5.81,3.72  c-6.19,1.09-10.68-2.59-11-9.1c0-0.73,0-1.46,0-2.19v-14.2h6.45c0,4.48,0,8.94,0,13.41s1.38,6.26,4.39,6.33  c3.6,0.08,5.62-2.2,5.67-6.54S313.125,31.815,313.125,27.305z"></path>
<path class="st5" d="M112.165,20.845l6.14-1.89v8.1h6.83v5.55h-6.75c0,4.16-0.37,8.11,0.1,12c0.51,4.17,3.83,2.87,6.66,2.42v5.11  c-2.425,0.926-5.061,1.155-7.61,0.66c-3.24-0.47-5.26-2.4-5.32-5.65C112.075,38.425,112.165,29.745,112.165,20.845z"></path>
<path class="st6" d="M256.915,52.335h-6.09v-25h6v3.48c2.7-3.59,5.73-4.88,9.71-4v6c-0.74-0.05-1.5-0.12-2.26-0.15  c-4.61-0.21-7.28,2.2-7.38,6.82C256.845,43.695,256.915,47.885,256.915,52.335z"></path>
<path class="st7" d="M14.415,19.035c-1.55-2.77-5.19-3.57-6.35-6.71c7.03-9.13,21.28-14.37,31.52-11.57  c0.19,0.12,0.24,0.24,0.17,0.36s-0.13,0.16-0.2,0.16c-7.76,1.82-15.05,4.68-20.65,10.59c-1.9,2-4,4.07-4.08,7.21l-0.22,0.16  L14.415,19.035z"></path>
<path class="st8" d="M2.095,45.335c3.54,3,6.85,6.19,10.72,8.75c5,3.29,10.6,4.42,16.38,5.06c-0.59,2.73-0.68,5.59-2.16,8.08  C14.835,64.355,6.305,57.305,2.095,45.335z"></path>
<path class="st9" d="M57.855,25.535c2.583-1.175,5.332-1.944,8.15-2.28c3.9,11.68,1.93,22.33-5.58,32c0.37-4.58,1.89-9,1.81-13.66  C62.228,35.947,60.716,30.404,57.855,25.535z"></path>
<path class="st10" d="M39.555,1.275v-0.52l1.1,0.11L39.555,1.275z"></path>
<path class="st4" d="M350.525,38.705c-0.43-5.11-2.47-9.29-7.45-11.23s-9.5-1.3-13.52,2.86c-0.07-1.18-0.13-2.06-0.19-3h-5.76v37.48  l6.4-2.11v-13.09c4.26,3.76,8.73,4.29,13.36,2.26c4.87-2.14,6.77-6.4,7.18-11.47C350.555,39.835,350.545,39.275,350.525,38.705z   M336.845,47.115c-3.97,0.061-7.239-3.108-7.3-7.078c-0.001-0.077-0.001-0.155,0-0.232c-0.149-4.023,2.992-7.406,7.015-7.555  c4.023-0.149,7.406,2.992,7.555,7.015c0.007,0.18,0.007,0.36,0,0.54c0.111,3.925-2.98,7.198-6.905,7.309  C337.088,47.117,336.966,47.118,336.845,47.115z"></path>
<path class="st11" d="M168.235,47.115c-3.942,0.095-7.215-3.024-7.31-6.966c-0.003-0.108-0.003-0.216,0-0.324  c-0.211-4.021,2.878-7.451,6.898-7.662s7.451,2.878,7.662,6.898c0.013,0.254,0.013,0.509,0,0.763  c0.078,3.948-3.06,7.212-7.008,7.289C168.396,47.116,168.315,47.116,168.235,47.115z"></path>
<path class="st4" d="M280.315,26.535c-8,0-13.79,5.62-13.72,13.25s5.72,13.17,13.52,13.17c8.12,0,13.74-5.33,13.76-13.1  S288.325,26.545,280.315,26.535z M280.175,47.115c-3.987-0.026-7.199-3.28-7.173-7.267c0-0.051,0.001-0.102,0.003-0.153  c-0.072-4.053,3.156-7.397,7.209-7.469c4.053-0.072,7.397,3.156,7.469,7.209c0.003,0.163,0,0.327-0.008,0.49  c-0.014,3.987-3.257,7.209-7.245,7.195C280.345,47.12,280.26,47.118,280.175,47.115L280.175,47.115z"></path>
</svg>